<svg width="211" height="167" viewBox="0 0 211 167" fill="none" xmlns="http://www.w3.org/2000/svg">
<path d="M53.9232 42.3257H2.44875C1.90241 42.3251 1.37862 42.1078 0.992297 41.7215C0.605976 41.3352 0.388673 40.8114 0.388062 40.2651V2.94026C0.388707 2.39394 0.606025 1.87018 0.992343 1.48389C1.37866 1.0976 1.90243 0.880311 2.44875 0.8797H53.9232C54.4695 0.880379 54.9932 1.09769 55.3794 1.48398C55.7657 1.87027 55.983 2.39398 55.9836 2.94026V40.2651C55.983 40.8114 55.7657 41.3351 55.3795 41.7214C54.9932 42.1077 54.4695 42.3251 53.9232 42.3257ZM2.44875 1.65092C2.10688 1.65129 1.77913 1.78724 1.53737 2.02895C1.29561 2.27066 1.15959 2.59839 1.15915 2.94026V40.2651C1.15956 40.607 1.29556 40.9347 1.53732 41.1765C1.77907 41.4183 2.10685 41.5542 2.44875 41.5547H53.9232C54.2651 41.5542 54.5929 41.4183 54.8346 41.1765C55.0764 40.9347 55.2124 40.607 55.2128 40.2651V2.94026C55.2123 2.59839 55.0763 2.27066 54.8346 2.02895C54.5928 1.78724 54.2651 1.65129 53.9232 1.65092H2.44875Z" fill="#6595F7"/>
<path d="M59.3919 6.73422V44.0589C59.3919 44.5032 59.2154 44.9292 58.9013 45.2434C58.5872 45.5576 58.1612 45.7342 57.7169 45.7343H6.24261C5.7984 45.7342 5.37243 45.5577 5.05834 45.2436C4.74426 44.9295 4.56776 44.5035 4.56766 44.0593V6.73422C4.56776 6.29002 4.74426 5.86405 5.05835 5.54996C5.37244 5.23587 5.79841 5.05937 6.24261 5.05927H57.7169C58.1611 5.05937 58.5871 5.23587 58.9012 5.54996C59.2153 5.86405 59.3918 6.29002 59.3919 6.73422Z" fill="#6445F1"/>
<path d="M59.3919 6.73422V11.4008H4.56766V6.73422C4.56776 6.29002 4.74426 5.86405 5.05835 5.54996C5.37244 5.23587 5.79841 5.05937 6.24261 5.05927H57.7169C58.1611 5.05937 58.5871 5.23587 58.9012 5.54996C59.2153 5.86405 59.3918 6.29002 59.3919 6.73422Z" fill="black"/>
<path d="M7.84611 9.11422C8.36804 9.11422 8.79115 8.69112 8.79115 8.16919C8.79115 7.64726 8.36804 7.22415 7.84611 7.22415C7.32418 7.22415 6.90108 7.64726 6.90108 8.16919C6.90108 8.69112 7.32418 9.11422 7.84611 9.11422Z" fill="white"/>
<path d="M11.1387 9.11422C11.6606 9.11422 12.0837 8.69112 12.0837 8.16919C12.0837 7.64726 11.6606 7.22415 11.1387 7.22415C10.6168 7.22415 10.1936 7.64726 10.1936 8.16919C10.1936 8.69112 10.6168 9.11422 11.1387 9.11422Z" fill="white"/>
<path d="M14.4314 9.11422C14.9533 9.11422 15.3764 8.69112 15.3764 8.16919C15.3764 7.64726 14.9533 7.22415 14.4314 7.22415C13.9094 7.22415 13.4863 7.64726 13.4863 8.16919C13.4863 8.69112 13.9094 9.11422 14.4314 9.11422Z" fill="white"/>
<path d="M16.3622 14.0534H6.90108V16.0045H16.3622V14.0534Z" fill="white"/>
<path d="M56.8082 39.6973H6.90108V40.9591H56.8082V39.6973Z" fill="white"/>
<path d="M36.2235 42.1156H6.90108V43.3773H36.2235V42.1156Z" fill="white"/>
<path d="M205.024 129.253H153.549C153.003 129.253 152.479 129.035 152.093 128.649C151.707 128.263 151.489 127.739 151.489 127.193V89.8679C151.489 89.3216 151.707 88.7978 152.093 88.4115C152.479 88.0252 153.003 87.8079 153.549 87.8073H205.024C205.57 87.8079 206.094 88.0252 206.48 88.4115C206.867 88.7978 207.084 89.3216 207.085 89.8679V127.193C207.084 127.739 206.867 128.263 206.48 128.649C206.094 129.035 205.57 129.253 205.024 129.253ZM153.549 88.5784C153.208 88.5788 152.88 88.7148 152.638 88.9565C152.396 89.1983 152.26 89.526 152.26 89.8679V127.193C152.26 127.534 152.396 127.862 152.638 128.104C152.88 128.346 153.207 128.482 153.549 128.482H205.024C205.366 128.482 205.694 128.346 205.935 128.104C206.177 127.862 206.313 127.534 206.313 127.193V89.8679C206.313 89.526 206.177 89.1983 205.935 88.9565C205.694 88.7148 205.366 88.5788 205.024 88.5784H153.549Z" fill="#6595F7"/>
<path d="M210.493 93.6614V130.986C210.492 131.43 210.316 131.856 210.002 132.17C209.688 132.485 209.262 132.661 208.818 132.661H157.343C156.899 132.661 156.473 132.485 156.159 132.171C155.845 131.856 155.668 131.43 155.668 130.986V93.6614C155.668 93.2172 155.845 92.7912 156.159 92.4772C156.473 92.1631 156.899 91.9866 157.343 91.9865H208.818C209.262 91.9866 209.688 92.1631 210.002 92.4772C210.316 92.7912 210.492 93.2172 210.493 93.6614Z" fill="#6445F1"/>
<path d="M210.493 93.6614V98.3284H155.668V93.6614C155.668 93.2172 155.845 92.7912 156.159 92.4772C156.473 92.1631 156.899 91.9866 157.343 91.9865H208.818C209.262 91.9866 209.688 92.1631 210.002 92.4772C210.316 92.7912 210.492 93.2172 210.493 93.6614Z" fill="black"/>
<path d="M158.947 96.0419C159.469 96.0419 159.892 95.6188 159.892 95.0969C159.892 94.5749 159.469 94.1518 158.947 94.1518C158.425 94.1518 158.002 94.5749 158.002 95.0969C158.002 95.6188 158.425 96.0419 158.947 96.0419Z" fill="white"/>
<path d="M162.239 96.0419C162.761 96.0419 163.184 95.6188 163.184 95.0969C163.184 94.5749 162.761 94.1518 162.239 94.1518C161.718 94.1518 161.294 94.5749 161.294 95.0969C161.294 95.6188 161.718 96.0419 162.239 96.0419Z" fill="white"/>
<path d="M165.532 96.0419C166.054 96.0419 166.477 95.6188 166.477 95.0969C166.477 94.5749 166.054 94.1518 165.532 94.1518C165.01 94.1518 164.587 94.5749 164.587 95.0969C164.587 95.6188 165.01 96.0419 165.532 96.0419Z" fill="white"/>
<path d="M167.463 100.981H158.002V102.932H167.463V100.981Z" fill="white"/>
<path d="M207.909 126.625H158.002V127.886H207.909V126.625Z" fill="white"/>
<path d="M187.324 129.043H158.002V130.305H187.324V129.043Z" fill="white"/>
<path d="M179.279 55.3711H127.805C127.259 55.3705 126.735 55.1532 126.348 54.7669C125.962 54.3805 125.745 53.8567 125.744 53.3104V15.9856C125.745 15.4393 125.962 14.9155 126.348 14.5292C126.735 14.1429 127.259 13.9257 127.805 13.925H179.279C179.825 13.9257 180.349 14.1429 180.735 14.5292C181.122 14.9155 181.339 15.4393 181.34 15.9856V53.3104C181.339 53.8567 181.122 54.3805 180.736 54.7669C180.349 55.1532 179.825 55.3705 179.279 55.3711ZM127.805 14.6963C127.463 14.6966 127.135 14.8326 126.894 15.0743C126.652 15.316 126.516 15.6438 126.515 15.9856V53.3104C126.516 53.6523 126.652 53.98 126.894 54.2218C127.135 54.4635 127.463 54.5995 127.805 54.5999H179.279C179.621 54.5995 179.949 54.4635 180.191 54.2218C180.432 53.9801 180.568 53.6523 180.569 53.3104V15.9856C180.568 15.6437 180.432 15.316 180.19 15.0743C179.949 14.8326 179.621 14.6966 179.279 14.6963H127.805Z" fill="#6595F7"/>
<path d="M184.748 19.7797V57.1044C184.748 57.5486 184.571 57.9745 184.257 58.2887C183.943 58.6028 183.517 58.7793 183.073 58.7794H131.599C131.155 58.7793 130.729 58.6028 130.415 58.2887C130.1 57.9745 129.924 57.5486 129.924 57.1044V19.7797C129.924 19.3355 130.1 18.9095 130.415 18.5954C130.729 18.2813 131.155 18.1048 131.599 18.1047H183.073C183.517 18.1048 183.943 18.2813 184.257 18.5954C184.571 18.9095 184.748 19.3355 184.748 19.7797Z" fill="#6595F7"/>
<path d="M184.748 19.7797V24.4462H129.924V19.7797C129.924 19.3355 130.1 18.9095 130.415 18.5954C130.729 18.2813 131.155 18.1048 131.599 18.1047H183.073C183.517 18.1048 183.943 18.2813 184.257 18.5954C184.571 18.9095 184.748 19.3355 184.748 19.7797Z" fill="#015566"/>
<path d="M133.202 22.1597C133.724 22.1597 134.147 21.7366 134.147 21.2147C134.147 20.6927 133.724 20.2696 133.202 20.2696C132.68 20.2696 132.257 20.6927 132.257 21.2147C132.257 21.7366 132.68 22.1597 133.202 22.1597Z" fill="white"/>
<path d="M136.495 22.1597C137.017 22.1597 137.44 21.7366 137.44 21.2147C137.44 20.6927 137.017 20.2696 136.495 20.2696C135.973 20.2696 135.55 20.6927 135.55 21.2147C135.55 21.7366 135.973 22.1597 136.495 22.1597Z" fill="white"/>
<path d="M139.788 22.1597C140.309 22.1597 140.733 21.7366 140.733 21.2147C140.733 20.6927 140.309 20.2696 139.788 20.2696C139.266 20.2696 138.842 20.6927 138.842 21.2147C138.842 21.7366 139.266 22.1597 139.788 22.1597Z" fill="white"/>
<path d="M141.718 27.0988H132.257V29.05H141.718V27.0988Z" fill="white"/>
<path d="M182.164 52.7428H132.257V54.0045H182.164V52.7428Z" fill="white"/>
<path d="M161.58 55.161H132.257V56.4228H161.58V55.161Z" fill="white"/>
<path d="M61.0356 148.063H9.56146C9.01512 148.063 8.49134 147.845 8.10501 147.459C7.71869 147.073 7.50139 146.549 7.50078 146.002V108.677C7.50142 108.131 7.71874 107.607 8.10506 107.221C8.49138 106.835 9.01515 106.617 9.56146 106.617H61.0356C61.582 106.617 62.1057 106.835 62.4921 107.221C62.8784 107.607 63.0957 108.131 63.0963 108.677V146.002C63.0959 146.548 62.8786 147.072 62.4923 147.459C62.1059 147.845 61.5821 148.063 61.0356 148.063ZM9.56146 107.388C9.21958 107.388 8.8918 107.524 8.65004 107.766C8.40828 108.008 8.27228 108.335 8.27187 108.677V146.002C8.27228 146.344 8.40827 146.672 8.65003 146.913C8.89179 147.155 9.21957 147.291 9.56146 147.292H61.0356C61.3775 147.291 61.7053 147.155 61.9471 146.913C62.1888 146.672 62.3248 146.344 62.3252 146.002V108.677C62.3248 108.335 62.1888 108.008 61.9471 107.766C61.7053 107.524 61.3775 107.388 61.0356 107.388H9.56146Z" fill="#6595F7"/>
<path d="M66.5046 112.471V149.796C66.5045 150.24 66.328 150.666 66.0139 150.98C65.6998 151.294 65.2739 151.471 64.8297 151.471H13.3553C12.9111 151.471 12.4851 151.294 12.171 150.98C11.8569 150.666 11.6804 150.24 11.6803 149.796V112.471C11.6804 112.027 11.8569 111.601 12.171 111.287C12.4852 110.973 12.9111 110.796 13.3553 110.796H64.8297C65.2739 110.796 65.6998 110.973 66.0139 111.287C66.328 111.601 66.5045 112.027 66.5046 112.471Z" fill="#6595F7"/>
<path d="M66.5046 112.471V117.138H11.6807V112.471C11.6808 112.027 11.8573 111.601 12.1714 111.287C12.4856 110.973 12.9115 110.796 13.3557 110.796H64.8297C65.2739 110.796 65.6998 110.973 66.0139 111.287C66.328 111.601 66.5045 112.027 66.5046 112.471Z" fill="#015566"/>
<path d="M14.9588 114.852C15.4808 114.852 15.9039 114.428 15.9039 113.907C15.9039 113.385 15.4808 112.962 14.9588 112.962C14.4369 112.962 14.0138 113.385 14.0138 113.907C14.0138 114.428 14.4369 114.852 14.9588 114.852Z" fill="white"/>
<path d="M18.2514 114.852C18.7733 114.852 19.1964 114.428 19.1964 113.907C19.1964 113.385 18.7733 112.962 18.2514 112.962C17.7295 112.962 17.3064 113.385 17.3064 113.907C17.3064 114.428 17.7295 114.852 18.2514 114.852Z" fill="white"/>
<path d="M21.5441 114.852C22.066 114.852 22.4891 114.428 22.4891 113.907C22.4891 113.385 22.066 112.962 21.5441 112.962C21.0222 112.962 20.599 113.385 20.599 113.907C20.599 114.428 21.0222 114.852 21.5441 114.852Z" fill="white"/>
<path d="M23.475 119.791H14.0138V121.742H23.475V119.791Z" fill="white"/>
<path d="M63.9209 145.435H14.0138V146.696H63.9209V145.435Z" fill="white"/>
<path d="M43.3363 147.853H14.0138V149.115H43.3363V147.853Z" fill="white"/>
<path d="M134.879 145.159L132.598 141.496L126.472 149.22L129.227 152.805L134.879 145.159Z" fill="#F59060"/>
<path d="M140.765 153.249L141.314 154.165L131.366 166.736C131.14 166.464 130.949 166.166 130.795 165.847C130.5 165.229 130.329 164.559 130.294 163.875C130.258 163.191 130.357 162.506 130.587 161.861C130.727 161.479 130.837 161.086 130.916 160.687C131.729 156.561 128.899 152.717 128.899 152.717L134.879 145.159L140.765 153.249Z" fill="#FCB913"/>
<path d="M140.764 153.249L141.314 154.165L131.365 166.736C131.14 166.464 130.948 166.166 130.795 165.847L140.764 153.249Z" fill="#090909"/>
<path d="M130.705 151.909C131.784 154.153 134.058 159.617 130.916 160.686C131.729 156.56 128.899 152.717 128.899 152.717C128.899 152.717 128.248 151.336 129.168 151.003C129.328 150.952 129.499 150.942 129.664 150.973C129.829 151.004 129.984 151.075 130.114 151.18C130.369 151.37 130.572 151.621 130.705 151.909Z" fill="white"/>
<path d="M133.129 158.682C133.139 158.667 133.147 158.65 133.151 158.633C133.155 158.615 133.155 158.597 133.151 158.579C133.141 158.516 133.094 158.472 133.046 158.481C132.346 158.612 131.062 159.435 131.007 159.471C130.985 159.489 130.97 159.514 130.964 159.542C130.958 159.57 130.962 159.599 130.975 159.625C131.001 159.682 131.056 159.706 131.099 159.679C131.111 159.67 132.411 158.836 133.084 158.709C133.102 158.706 133.118 158.696 133.129 158.682Z" fill="#090909"/>
<path d="M133.041 155.615C133.052 155.599 133.06 155.58 133.064 155.56C133.067 155.541 133.067 155.521 133.062 155.501C133.048 155.437 132.998 155.394 132.95 155.407C132.04 155.649 130.88 157.28 130.831 157.349C130.816 157.374 130.808 157.404 130.811 157.435C130.813 157.465 130.824 157.493 130.843 157.517C130.85 157.527 130.859 157.536 130.87 157.542C130.881 157.549 130.894 157.552 130.907 157.552C130.919 157.552 130.932 157.549 130.943 157.543C130.954 157.538 130.964 157.529 130.971 157.519C130.983 157.502 132.144 155.871 133.001 155.642C133.017 155.637 133.031 155.628 133.041 155.615Z" fill="#090909"/>
<path d="M130.323 155.344C130.328 155.338 130.332 155.332 130.335 155.325C130.342 155.311 131.044 153.874 131.855 153.112C131.875 153.088 131.887 153.059 131.889 153.028C131.892 152.998 131.884 152.967 131.868 152.941C131.836 152.883 131.778 152.866 131.738 152.902C130.9 153.689 130.203 155.117 130.174 155.177C130.162 155.205 130.158 155.237 130.164 155.268C130.17 155.298 130.185 155.327 130.208 155.348C130.215 155.357 130.224 155.363 130.234 155.367C130.244 155.372 130.255 155.374 130.266 155.373C130.278 155.373 130.288 155.37 130.298 155.365C130.308 155.36 130.317 155.353 130.323 155.344Z" fill="#090909"/>
<path d="M130.85 151.005C130.865 150.983 130.873 150.958 130.875 150.931C130.877 150.905 130.872 150.878 130.861 150.854C130.833 150.789 130.775 150.76 130.73 150.789C130.271 151.084 129.08 152.856 129.03 152.931C129.014 152.959 129.008 152.991 129.011 153.023C129.014 153.055 129.026 153.086 129.047 153.11C129.054 153.122 129.064 153.131 129.075 153.138C129.087 153.145 129.1 153.148 129.114 153.149C129.127 153.149 129.14 153.146 129.152 153.14C129.164 153.133 129.174 153.124 129.182 153.113C129.195 153.095 130.4 151.3 130.83 151.023C130.838 151.018 130.844 151.012 130.85 151.005Z" fill="#090909"/>
<path d="M127.415 154.009C127.155 153.902 126.96 153.624 126.835 153.183C126.715 152.757 126.732 152.439 126.897 152.242C127.405 151.621 129.106 152.533 129.296 152.637L129.442 152.718L129.342 152.85C129.339 152.854 129.331 152.864 129.319 152.879C129.151 153.092 128.146 154.309 127.415 154.009ZM127.021 153.13C127.119 153.481 127.259 153.69 127.449 153.768C127.953 153.977 128.724 153.225 129.09 152.79C128.522 152.504 127.373 152.043 127.045 152.444L127.042 152.448C126.936 152.581 126.93 152.804 127.021 153.13V153.13Z" fill="#090909"/>
<path d="M129.149 154.933C129.039 154.894 128.94 154.829 128.861 154.743C128.782 154.657 128.725 154.553 128.695 154.44C128.502 153.758 129.161 152.779 129.237 152.67L129.332 152.531L129.398 152.724C129.456 152.892 129.947 154.362 129.641 154.832C129.634 154.843 129.627 154.853 129.62 154.863C129.517 154.991 129.36 155.016 129.149 154.933ZM128.874 154.383C128.896 154.456 128.935 154.523 128.989 154.578C129.043 154.633 129.109 154.673 129.182 154.696C129.409 154.785 129.47 154.69 129.491 154.659C129.649 154.415 129.472 153.589 129.291 153.003C129.08 153.349 128.764 153.99 128.874 154.383Z" fill="#090909"/>
<path d="M131.66 155.496C131.68 155.468 131.688 155.434 131.684 155.4C131.675 155.317 131.459 153.336 130.436 153.196C129.566 153.077 129.396 152.718 129.395 152.714C129.367 152.652 129.309 152.621 129.264 152.647C129.241 152.665 129.225 152.69 129.218 152.719C129.211 152.748 129.214 152.778 129.227 152.805C129.246 152.856 129.445 153.311 130.441 153.445C131.299 153.56 131.501 155.389 131.503 155.408C131.51 155.474 131.556 155.527 131.606 155.525C131.616 155.524 131.627 155.521 131.636 155.516C131.646 155.511 131.654 155.504 131.66 155.496Z" fill="#090909"/>
<path d="M133.688 143.246L127.504 150.563L127.067 149.995L133.688 143.246Z" fill="#090909"/>
<path d="M77.2102 143.926L74.93 140.263L68.8036 147.987L71.5583 151.572L77.2102 143.926Z" fill="#F59060"/>
<path d="M83.0962 152.016L83.6452 152.932L73.6973 165.503C73.4718 165.231 73.2802 164.933 73.1267 164.615C72.8313 163.997 72.6609 163.326 72.6251 162.642C72.5893 161.958 72.6889 161.274 72.9182 160.628C73.059 160.246 73.169 159.854 73.2474 159.454C74.0607 155.328 71.2307 151.484 71.2307 151.484L77.2102 143.927L83.0962 152.016Z" fill="#FCB913"/>
<path d="M83.0961 152.016L83.6452 152.932L73.6971 165.503C73.4716 165.231 73.28 164.933 73.1267 164.615L83.0961 152.016Z" fill="#090909"/>
<path d="M73.0369 150.677C74.1153 152.921 76.3898 158.384 73.2471 159.454C74.0604 155.327 71.2304 151.484 71.2304 151.484C71.2304 151.484 70.5797 150.103 71.4998 149.771C71.6598 149.72 71.83 149.709 71.995 149.74C72.1601 149.771 72.3149 149.842 72.4458 149.947C72.7004 150.138 72.9035 150.388 73.0369 150.677Z" fill="white"/>
<path d="M75.4605 157.449C75.4711 157.434 75.4785 157.418 75.4824 157.4C75.4862 157.382 75.4863 157.364 75.4828 157.346C75.4723 157.283 75.4255 157.24 75.378 157.248C74.6772 157.379 73.3931 158.203 73.3383 158.238C73.3165 158.256 73.3015 158.281 73.2958 158.309C73.2901 158.337 73.2939 158.366 73.3068 158.392C73.3324 158.449 73.3875 158.474 73.4302 158.446C73.443 158.438 74.7426 157.603 75.416 157.476C75.4336 157.473 75.4494 157.463 75.4605 157.449Z" fill="#090909"/>
<path d="M75.3722 154.382C75.3837 154.366 75.3915 154.347 75.3952 154.328C75.3988 154.308 75.3982 154.288 75.3934 154.269C75.3793 154.204 75.3293 154.161 75.282 154.174C74.3713 154.416 73.212 156.047 73.163 156.116C73.1474 156.142 73.1401 156.172 73.1422 156.202C73.1443 156.232 73.1556 156.261 73.1747 156.284C73.1815 156.295 73.1909 156.303 73.202 156.31C73.2131 156.316 73.2256 156.319 73.2383 156.319C73.251 156.32 73.2635 156.317 73.2748 156.311C73.2861 156.305 73.2958 156.296 73.3029 156.286C73.3145 156.269 74.4753 154.638 75.3327 154.409C75.3484 154.405 75.3623 154.395 75.3722 154.382Z" fill="#090909"/>
<path d="M72.6551 154.111C72.6597 154.105 72.6637 154.099 72.6669 154.092C72.6738 154.078 73.3761 152.641 74.187 151.879C74.2068 151.855 74.2187 151.826 74.221 151.795C74.2233 151.764 74.2159 151.733 74.1999 151.707C74.1674 151.649 74.1092 151.632 74.0697 151.669C73.2313 152.456 72.5348 153.884 72.5057 153.944C72.4933 153.973 72.4899 154.004 72.4959 154.035C72.5018 154.066 72.5169 154.094 72.539 154.116C72.5465 154.124 72.5556 154.13 72.5658 154.135C72.5761 154.139 72.5871 154.141 72.5982 154.141C72.6093 154.14 72.6201 154.137 72.6299 154.132C72.6398 154.127 72.6484 154.12 72.6551 154.111Z" fill="#090909"/>
<path d="M73.1816 149.772C73.1962 149.75 73.2048 149.724 73.2068 149.698C73.2087 149.672 73.2038 149.645 73.1926 149.621C73.1652 149.556 73.1065 149.527 73.0619 149.555C72.6028 149.85 71.412 151.623 71.3615 151.698C71.3459 151.726 71.3392 151.758 71.3422 151.79C71.3452 151.822 71.3579 151.853 71.3785 151.877C71.3855 151.889 71.3953 151.898 71.407 151.905C71.4187 151.911 71.4318 151.915 71.4452 151.915C71.4587 151.916 71.4719 151.913 71.4839 151.906C71.4958 151.9 71.5059 151.891 71.5134 151.88C71.5255 151.862 72.7321 150.067 73.1618 149.79C73.1694 149.785 73.176 149.779 73.1816 149.772Z" fill="#090909"/>
<path d="M69.747 152.776C69.4865 152.669 69.2911 152.391 69.1668 151.95C69.0466 151.524 69.0642 151.205 69.2284 151.009C69.7365 150.388 71.438 151.3 71.6272 151.404L71.7738 151.485L71.6733 151.617C71.6702 151.621 71.6625 151.631 71.6506 151.646C71.4823 151.858 70.4769 153.076 69.747 152.776ZM69.3524 151.897C69.4509 152.248 69.5912 152.457 69.781 152.535C70.2845 152.743 71.0561 151.992 71.4218 151.557C70.8534 151.271 69.7043 150.809 69.3766 151.21L69.3732 151.214C69.2679 151.348 69.2612 151.571 69.3524 151.897Z" fill="#090909"/>
<path d="M71.4806 153.7C71.3705 153.661 71.2716 153.595 71.1925 153.509C71.1133 153.424 71.0563 153.32 71.0264 153.207C70.8339 152.524 71.4927 151.546 71.5684 151.436L71.664 151.298L71.73 151.491C71.7876 151.659 72.2782 153.129 71.9728 153.599C71.9661 153.61 71.9589 153.62 71.9511 153.63C71.849 153.758 71.6911 153.782 71.4806 153.7ZM71.2058 153.15C71.2276 153.223 71.267 153.29 71.3207 153.345C71.3744 153.399 71.4407 153.44 71.5137 153.463C71.7404 153.553 71.8023 153.457 71.8226 153.425C71.9813 153.182 71.804 152.355 71.6229 151.77C71.4119 152.116 71.0959 152.757 71.2058 153.15Z" fill="#090909"/>
<path d="M73.9917 154.263C74.0115 154.235 74.02 154.201 74.0155 154.168C74.0069 154.085 73.791 152.103 72.7679 151.964C71.8981 151.845 71.728 151.485 71.7264 151.481C71.6988 151.419 71.6407 151.388 71.5961 151.414C71.5726 151.432 71.5561 151.458 71.5493 151.487C71.5424 151.515 71.5456 151.546 71.5583 151.572C71.5777 151.624 71.7764 152.078 72.7726 152.212C73.6303 152.328 73.8324 154.157 73.8343 154.175C73.8412 154.242 73.8875 154.294 73.9375 154.292C73.9482 154.292 73.9585 154.289 73.9679 154.284C73.9772 154.279 73.9853 154.271 73.9917 154.263Z" fill="#090909"/>
<path d="M76.3881 142.605L70 149.544L69.4035 148.768L76.3881 142.605Z" fill="#090909"/>
<path d="M58.8032 86.3658L42.3915 105.122C40.7295 107.021 39.8104 109.457 39.8039 111.981C39.7973 114.505 40.7036 116.946 42.3557 118.854L68.753 149.342L77.3264 141.777L57.9009 113.33L78.3759 99.4741L126.276 150.803L133.893 143.037L91.834 82.4299L58.8032 86.3658Z" fill="#6445F1"/>
<path d="M17.9877 43.3698C17.9877 43.3698 13.1663 38.8252 7.74569 36.5858C7.69349 36.5647 7.63592 36.5608 7.58132 36.5745C7.52672 36.5883 7.47791 36.619 7.44194 36.6624C7.40598 36.7057 7.38473 36.7594 7.38127 36.8156C7.37781 36.8718 7.39231 36.9276 7.42268 36.975L9.69323 40.5212L7.56379 45.9662C7.42973 46.309 7.41114 46.6862 7.51085 47.0406C7.61056 47.3949 7.82312 47.7071 8.11629 47.9297L12.093 50.9493L17.9877 43.3698Z" fill="#F59060"/>
<path d="M76.7257 28.725C76.4634 30.5943 76.3838 32.4847 76.488 34.3694L74.4951 34.7906L74.4223 40.8163L74.418 41.0924C74.4601 42.2575 74.0474 43.3933 73.2672 44.2596C72.4869 45.1259 71.4002 45.6547 70.2371 45.7342C70.0795 45.7441 69.9216 45.7459 69.7638 45.7397C69.3123 45.7228 68.8686 45.616 68.4587 45.4257C68.0488 45.2354 67.681 44.9653 67.3766 44.6313C67.0723 44.2972 66.8375 43.9059 66.6861 43.4801C66.5347 43.0543 66.4696 42.6027 66.4946 42.1515L66.7042 38.3287C63.7693 37.4179 62.6067 34.8609 62.3042 32.0134C62.2602 31.5977 62.2356 31.1776 62.2273 30.7501C62.2067 29.7519 62.2563 28.7535 62.3756 27.7622C62.4756 26.8771 62.6201 26.0267 62.7732 25.2541C63.3954 22.173 65.9124 19.7765 69.0411 19.4585C75.4435 18.8056 76.2131 27.5943 76.2806 28.6084L76.287 28.7054C76.4335 28.6987 76.5804 28.7053 76.7257 28.725Z" fill="#F59060"/>
<path d="M68.3652 32.6789C68.6693 31.7425 68.6305 31.0023 68.2497 30.4785C67.7086 29.7345 66.6883 29.7262 66.6451 29.7262V29.8964V30.0666C66.6539 30.0666 67.5383 30.0766 67.9757 30.6806C68.2874 31.1111 68.3093 31.7481 68.0414 32.5737L68.3652 32.6789Z" fill="#090909"/>
<path d="M61.7016 26.1752C61.6365 26.4817 61.6028 26.794 61.6011 27.1073C61.4793 27.9137 61.6524 29.7297 65.927 29.1177C70.8375 28.4146 69.7093 34.004 67.1219 34.0258C67.0369 34.0253 66.9531 34.0453 66.8776 34.0842C66.802 34.123 66.737 34.1796 66.688 34.249C66.6391 34.3185 66.6077 34.3987 66.5965 34.4829C66.5853 34.5672 66.5946 34.6528 66.6237 34.7327C66.8965 35.4778 67.2107 36.5868 67.1855 37.6926C67.1453 39.458 68.5778 40.898 70.3397 40.7808L74.7965 40.4843C75.4297 40.4428 76.0326 40.1979 76.5153 39.786C76.998 39.3741 77.3347 38.8173 77.4754 38.1985C78.4337 33.949 79.7638 24.5475 73.9468 20.7985C70.9813 19.0396 67.4268 19.0297 64.9935 20.7511C64.9937 20.7511 62.5085 22.5094 61.7016 26.1752Z" fill="black"/>
<path d="M101.199 79.0945C101.152 79.194 101.102 79.292 101.048 79.3884C100.335 80.7007 99.2164 81.747 97.8596 82.3709C96.5027 82.9947 94.9804 83.1625 93.5202 82.8493C92.9798 82.7334 92.4177 82.5935 91.8337 82.4298C91.8337 82.4298 85.4164 90.7539 69.1923 88.7639C69.0846 88.7524 68.977 88.7382 68.8675 88.723C65.8539 88.3313 62.5056 87.5852 58.8031 86.3657C58.8031 86.3657 58.7296 83.9725 58.5436 80.8512C58.537 80.7401 58.5308 80.6307 58.5223 80.5176C58.2317 75.7818 57.6866 69.5488 56.756 67.376C56.6694 67.1736 56.5878 66.9646 56.5095 66.754C56.4703 66.6462 56.4311 66.5369 56.3952 66.4258C55.1821 62.8621 55.1821 58.4788 55.1821 58.4788C55.1821 58.4788 48.7517 66.1908 43.8053 71.1095C42.9722 71.9387 41.9376 72.5368 40.8032 72.8446C39.6687 73.1525 38.4737 73.1596 37.3357 72.8652C37.2231 72.8375 37.1121 72.8065 37.0022 72.7706C36.161 72.5088 35.379 72.0851 34.7004 71.5233L24.5548 63.1482L24.2708 62.9147L14.2015 54.6036L13.8702 54.3293L11.1046 52.0471L17.8747 43.2316L32.4463 54.0878L32.6912 54.269L37.2362 57.6564C37.2362 57.6564 37.6263 57.1862 38.3234 56.3736C38.632 56.0111 39.0041 55.5783 39.4286 55.0908C40.968 53.3162 43.2129 50.7842 45.8102 48.0204C46.2675 47.5329 46.7532 47.0728 47.2647 46.6425C47.348 46.5707 47.4328 46.5005 47.5177 46.4319C49.9056 44.4943 52.7481 43.1975 55.7766 42.6641C56.3953 42.5531 57.0594 42.4405 57.76 42.3278C57.8663 42.3099 57.9739 42.2936 58.0816 42.2756C62.349 41.5997 67.9437 40.9467 73.6199 40.9515C73.9676 40.9515 74.3153 40.9549 74.6646 40.9597H74.668C80.2005 41.0463 85.7385 41.7924 90.1294 43.7839C90.1294 43.7839 91.6431 44.4254 93.7487 48.0644C93.8026 48.1575 93.8581 48.2522 93.912 48.3502C95.8498 51.7899 98.2577 57.7419 100.447 67.9615C100.47 68.0676 100.493 68.1753 100.515 68.2831C100.948 70.3238 101.372 72.5325 101.782 74.9241C102.032 76.3409 101.828 77.8004 101.199 79.0945Z" fill="#FCB913"/>
<path d="M24.4749 56.5887C25.8429 58.5789 25.6144 60.91 24.5548 63.1482L24.2708 62.9147C25.2438 60.8039 25.4674 58.6082 24.2055 56.7733C22.2481 53.9262 18.0575 54.0813 16.3449 54.2788C15.6332 54.3621 14.91 54.4796 14.2015 54.6036L13.8701 54.3293C14.67 54.1907 15.4944 54.0487 16.3075 53.9555C18.0771 53.7499 22.4163 53.5948 24.4749 56.5887Z" fill="#F5F3E3"/>
<path d="M35.0632 59.6991C32.6488 61.0263 29.8866 61.3609 27.4852 60.6182L27.203 60.5316L27.4283 60.3392C29.4663 58.5771 31.1667 56.4591 32.4466 54.0884L32.6915 54.2696C31.4515 56.5743 29.819 58.645 27.8674 60.3886C30.117 60.9959 32.6638 60.6466 34.9052 59.4137C36.2624 58.6754 37.432 57.6352 38.3236 56.3734C38.6322 56.0109 39.0044 55.5781 39.4289 55.0906C38.5732 56.9776 37.0354 58.6137 35.0632 59.6991Z" fill="#F5F3E3"/>
<path d="M48.6295 48.3414C48.115 47.8255 47.6574 47.2557 47.2647 46.642C47.348 46.5701 47.4328 46.5 47.5177 46.4313C47.9024 47.038 48.3524 47.6008 48.8596 48.1096C50.4431 49.68 53.158 50.684 55.2851 49.5674C57.6508 48.3251 58.1469 45.3066 57.76 42.3273C57.8663 42.3093 57.9739 42.293 58.0816 42.2751C58.4197 44.807 58.2972 48.3545 55.437 49.8564C53.065 51.102 50.2457 49.9445 48.6295 48.3414Z" fill="#F5F3E3"/>
<path d="M56.5096 66.7546C56.4704 66.6469 56.4312 66.5376 56.3953 66.4265C58.3624 64.8397 59.8497 62.4285 59.133 60.0451C58.6399 58.4109 57.0663 57.0434 55.1236 56.5613C51.3933 55.6377 47.7055 57.8411 45.4983 60.2131C43.6382 62.2114 42.2724 64.6516 40.9501 67.0143C40.5126 67.7978 40.0588 68.6092 39.5934 69.3928C38.8883 70.5795 38.1358 71.7369 37.3357 72.8651C37.2231 72.8374 37.1121 72.8064 37.0022 72.7704C37.8201 71.6212 38.5901 70.4393 39.3123 69.2247C39.7759 68.446 40.228 67.6362 40.6656 66.8543C41.996 64.4756 43.3723 62.0171 45.258 59.9895C47.5286 57.5506 51.3326 55.2863 55.2016 56.2446C57.2541 56.7523 58.9206 58.2085 59.4446 59.9518C60.2187 62.5183 58.6073 65.0944 56.5096 66.7546Z" fill="#F5F3E3"/>
<path d="M68.4579 82.9882C69.5909 84.7105 69.697 86.7822 69.1925 88.764C69.0847 88.7526 68.9771 88.7383 68.8677 88.7232C69.3623 86.8118 69.2708 84.8182 68.1852 83.1678C66.2442 80.2174 62.1531 79.794 58.5437 80.8513C58.5372 80.7402 58.5309 80.6308 58.5224 80.5178C62.2347 79.4522 66.4418 79.9223 68.4579 82.9882Z" fill="#F5F3E3"/>
<path d="M63.4705 52.6869C62.4682 50.7114 63.4788 48.5043 63.9603 47.6455C65.9258 44.1434 69.5973 42.2795 73.6198 40.9506C73.9674 40.9506 74.3152 40.9539 74.6645 40.9588C70.3415 42.291 66.3094 44.1273 64.2459 47.8056C63.7903 48.617 62.8306 50.7033 63.761 52.5382C64.0826 53.17 64.6312 53.7561 65.4414 54.3323C70.2214 57.7344 77.1008 56.9982 85.8886 52.1464C86.2019 51.9733 86.517 51.7991 86.8338 51.624C89.0475 50.3963 91.3673 49.1097 93.7491 48.0634C93.8029 48.1565 93.8585 48.2512 93.9124 48.3492C91.5305 49.3924 89.2074 50.682 86.9921 51.9096C86.6756 52.0844 86.3606 52.2585 86.0469 52.4321C82.217 54.5462 78.6745 55.8995 75.5188 56.4513C71.4376 57.1663 67.9832 56.5427 65.252 54.5984C64.3979 53.9915 63.8151 53.3668 63.4705 52.6869Z" fill="#F5F3E3"/>
<path d="M101.199 79.0946C101.152 79.1941 101.102 79.2921 101.048 79.3885C99.7926 78.9978 98.5103 78.7009 97.2112 78.5004C94.5192 78.0841 91.739 77.9584 89.0504 77.8376C85.3592 77.6708 81.5441 77.498 77.902 76.5757C72.9408 75.317 68.1528 71.5883 68.6017 66.8981L68.6116 66.81L68.6886 66.7692C74.5085 63.7181 81.3634 65.1272 87.993 66.4901C92.1749 67.3503 96.4467 68.227 100.447 67.9609C100.47 68.067 100.493 68.1747 100.516 68.2825C99.9953 68.3201 99.4712 68.3364 98.9422 68.3364C95.3556 68.3379 91.6073 67.5658 87.9261 66.8099C81.3829 65.4647 74.6178 64.0738 68.9204 67.0172C68.5563 71.4837 73.1879 75.0426 77.9824 76.2588C81.5919 77.1731 85.3909 77.3444 89.0658 77.5109C91.7626 77.6333 94.5526 77.759 97.2629 78.177C98.5963 78.383 99.9123 78.6898 101.199 79.0946Z" fill="#F5F3E3"/>
<path d="M86.4719 52.0266L86.2309 52.0701L91.7129 82.4524L91.9539 82.4089L86.4719 52.0266Z" fill="black"/>
<path d="M37.0973 57.5219L35.3655 60.1979L35.5711 60.331L37.3029 57.655L37.0973 57.5219Z" fill="black"/>
<path d="M74.1601 95.027L73.9857 95.1989L78.2885 99.5607L78.4629 99.3887L74.1601 95.027Z" fill="black"/>
<path d="M90.0008 84.1903L89.7999 84.3303L132.025 144.908L132.226 144.768L90.0008 84.1903Z" fill="black"/>
<path d="M74.5794 144.183L54.7365 115.83C54.5042 115.498 54.3397 115.124 54.2525 114.728C54.1653 114.333 54.157 113.924 54.2281 113.525C54.2993 113.126 54.4485 112.745 54.6671 112.404C54.8858 112.063 55.1696 111.769 55.5023 111.537L76.1541 97.1927L76.2938 97.3938L55.6421 111.739C55.3359 111.951 55.0746 112.222 54.8733 112.536C54.672 112.85 54.5346 113.201 54.4691 113.568C54.4035 113.935 54.4111 114.311 54.4913 114.675C54.5715 115.039 54.7229 115.384 54.9366 115.69L74.7796 144.042L74.5794 144.183Z" fill="black"/>
<path d="M17.874 43.2318L11.4757 50.4802L12.0017 50.8797L17.874 43.2318Z" fill="#090909"/>
<path d="M78.15 28.3584C78.15 28.3584 78.0994 39.4265 81.6721 40.7876C83.6242 41.5316 84.8407 43.9312 85.5417 45.9553C85.6496 46.2635 85.6753 46.5945 85.6162 46.9157C85.5572 47.2368 85.4154 47.537 85.205 47.7867C84.9945 48.0363 84.7226 48.2268 84.416 48.3393C84.1095 48.4518 83.7789 48.4825 83.4569 48.4283C80.8984 48.0015 77.2433 47.7281 75.0605 49.0569C71.4398 51.2607 63.7262 49.0569 63.7262 49.0569L63.2122 49.0953C62.874 49.1206 62.5352 49.0537 62.232 48.9017C61.9288 48.7497 61.6726 48.5184 61.4904 48.2323C61.3083 47.9461 61.2072 47.616 61.1979 47.277C61.1885 46.938 61.2713 46.6027 61.4374 46.307C62.7271 44.0178 64.5554 40.3091 66.6236 34.733L78.15 28.3584Z" fill="black"/>
<path d="M186.062 157.339L182.179 154.71L190.823 148.377L194.602 151.518L186.062 157.339Z" fill="#F59060"/>
<path d="M194.604 164.068L195.576 164.703L209.643 154.421C209.357 154.165 209.041 153.945 208.702 153.765C208.043 153.418 207.322 153.205 206.58 153.138C205.839 153.071 205.091 153.15 204.38 153.372C203.96 153.509 203.529 153.613 203.092 153.681C198.576 154.393 194.52 151.159 194.52 151.159L186.062 157.339L194.604 164.068Z" fill="#6595F7"/>
<path d="M194.604 164.068L195.576 164.703L209.643 154.421C209.357 154.165 209.041 153.945 208.702 153.765L194.604 164.068Z" fill="#090909"/>
<path d="M193.569 153.087C195.961 154.352 201.8 157.05 203.092 153.681C198.577 154.392 194.52 151.159 194.52 151.159C194.52 151.159 193.048 150.394 192.648 151.38C192.586 151.552 192.568 151.736 192.595 151.917C192.621 152.097 192.692 152.269 192.801 152.415C192.997 152.699 193.261 152.93 193.569 153.087Z" fill="white"/>
<path d="M200.822 156.001C200.806 156.012 200.788 156.019 200.769 156.023C200.749 156.026 200.73 156.026 200.711 156.021C200.643 156.007 200.597 155.955 200.608 155.903C200.78 155.148 201.727 153.787 201.768 153.73C201.789 153.707 201.817 153.691 201.847 153.686C201.878 153.681 201.909 153.687 201.936 153.702C201.998 153.732 202.022 153.793 201.99 153.838C201.981 153.852 201.02 155.228 200.854 155.955C200.85 155.974 200.838 155.99 200.822 156.001Z" fill="#090909"/>
<path d="M197.495 155.778C197.477 155.789 197.456 155.797 197.435 155.8C197.414 155.804 197.392 155.802 197.371 155.796C197.301 155.778 197.257 155.722 197.273 155.671C197.574 154.693 199.393 153.501 199.47 153.45C199.499 153.435 199.532 153.428 199.564 153.431C199.597 153.435 199.627 153.448 199.652 153.47C199.664 153.478 199.673 153.488 199.679 153.501C199.686 153.513 199.689 153.527 199.688 153.541C199.688 153.555 199.684 153.568 199.677 153.58C199.671 153.592 199.661 153.603 199.649 153.61C199.631 153.622 197.811 154.815 197.526 155.736C197.52 155.753 197.51 155.768 197.495 155.778Z" fill="#090909"/>
<path d="M197.314 152.815C197.308 152.82 197.301 152.824 197.293 152.827C197.277 152.834 195.687 153.537 194.826 154.386C194.799 154.407 194.767 154.419 194.734 154.42C194.7 154.421 194.667 154.412 194.639 154.393C194.578 154.355 194.562 154.291 194.603 154.25C195.493 153.372 197.073 152.675 197.139 152.647C197.171 152.634 197.205 152.632 197.238 152.64C197.271 152.648 197.301 152.665 197.324 152.69C197.333 152.699 197.339 152.709 197.343 152.72C197.348 152.731 197.349 152.743 197.348 152.755C197.347 152.767 197.344 152.779 197.338 152.789C197.332 152.799 197.324 152.808 197.314 152.815Z" fill="#090909"/>
<path d="M192.579 153.207C192.555 153.222 192.527 153.231 192.498 153.232C192.469 153.233 192.44 153.226 192.415 153.213C192.346 153.18 192.316 153.116 192.349 153.068C192.689 152.582 194.663 151.362 194.747 151.311C194.778 151.295 194.813 151.289 194.848 151.294C194.883 151.298 194.915 151.313 194.941 151.336C194.953 151.345 194.963 151.356 194.97 151.369C194.977 151.382 194.98 151.396 194.98 151.411C194.979 151.425 194.975 151.439 194.968 151.452C194.961 151.465 194.951 151.475 194.938 151.483C194.918 151.496 192.919 152.731 192.6 153.186C192.594 153.194 192.587 153.201 192.579 153.207Z" fill="#090909"/>
<path d="M194.678 151.621C194.661 151.634 194.65 151.641 194.646 151.644L194.499 151.748L194.417 151.586C194.312 151.376 193.391 149.49 194.088 148.964C194.308 148.794 194.654 148.788 195.112 148.937C195.587 149.09 195.88 149.314 195.985 149.601C196.281 150.406 194.915 151.447 194.678 151.621ZM194.305 149.13L194.3 149.133C193.851 149.473 194.304 150.74 194.591 151.369C195.079 150.99 195.927 150.183 195.722 149.628C195.645 149.418 195.424 149.257 195.046 149.136C194.697 149.023 194.454 149.021 194.305 149.13Z" fill="#090909"/>
<path d="M196.82 152.031C196.809 152.038 196.798 152.046 196.786 152.053C196.263 152.365 194.687 151.771 194.506 151.701L194.3 151.622L194.454 151.524C194.576 151.446 195.666 150.772 196.399 151.009C196.521 151.046 196.631 151.112 196.721 151.202C196.811 151.291 196.878 151.401 196.916 151.522C196.997 151.755 196.964 151.925 196.82 152.031ZM194.814 151.596C195.443 151.817 196.332 152.044 196.604 151.882C196.639 151.861 196.745 151.798 196.658 151.549C196.635 151.468 196.594 151.395 196.537 151.335C196.48 151.274 196.409 151.229 196.33 151.202C195.908 151.065 195.199 151.382 194.814 151.596Z" fill="#090909"/>
<path d="M197.423 154.273C197.392 154.294 197.355 154.301 197.319 154.295C197.229 154.282 195.086 153.965 194.977 152.848C194.884 151.899 194.5 151.699 194.496 151.697C194.43 151.665 194.399 151.6 194.429 151.553C194.449 151.528 194.478 151.511 194.509 151.505C194.541 151.499 194.574 151.503 194.602 151.518C194.657 151.541 195.143 151.776 195.247 152.864C195.336 153.8 197.314 154.095 197.334 154.098C197.406 154.109 197.461 154.161 197.457 154.216C197.456 154.227 197.452 154.238 197.446 154.248C197.441 154.258 197.433 154.267 197.423 154.273Z" fill="#090909"/>
<path d="M185.208 156.76L191.633 149.05L190.823 148.377L185.208 156.76Z" fill="#090909"/>
<path d="M151.312 142.722L152.244 138.391L160.845 143.73L159.427 148.15L151.312 142.722Z" fill="#F59060"/>
<path d="M148.431 152.582L148.218 153.658L162.194 162.354C162.317 162.013 162.399 161.658 162.437 161.297C162.508 160.597 162.44 159.89 162.237 159.217C162.034 158.543 161.7 157.916 161.255 157.372C160.986 157.052 160.744 156.711 160.529 156.352C158.312 152.647 159.713 147.95 159.713 147.95L151.312 142.722L148.431 152.582Z" fill="#6595F7"/>
<path d="M148.431 152.582L148.218 153.658L162.194 162.354C162.317 162.013 162.399 161.658 162.437 161.297L148.431 152.582Z" fill="#090909"/>
<path d="M157.687 147.797C157.424 150.34 157.121 156.409 160.529 156.352C158.312 152.647 159.713 147.95 159.713 147.95C159.713 147.95 159.863 146.391 158.858 146.388C158.686 146.395 158.517 146.444 158.369 146.531C158.22 146.618 158.095 146.74 158.005 146.887C157.825 147.16 157.716 147.472 157.687 147.797Z" fill="white"/>
<path d="M157.695 155.183C157.68 155.172 157.667 155.159 157.657 155.143C157.647 155.127 157.641 155.11 157.638 155.092C157.63 155.065 157.632 155.037 157.645 155.012C157.657 154.988 157.679 154.969 157.705 154.961C158.428 154.844 159.955 155.194 160.02 155.209C160.047 155.219 160.07 155.238 160.086 155.264C160.101 155.289 160.107 155.318 160.104 155.347C160.099 155.411 160.054 155.454 160.003 155.443C159.987 155.439 158.442 155.083 157.748 155.194C157.729 155.197 157.711 155.193 157.695 155.183Z" fill="#090909"/>
<path d="M156.716 152.189C156.699 152.177 156.685 152.162 156.675 152.144C156.665 152.126 156.658 152.106 156.656 152.086C156.647 152.018 156.681 151.96 156.731 151.956C157.695 151.874 159.381 153.047 159.453 153.097C159.477 153.117 159.494 153.144 159.503 153.173C159.511 153.203 159.51 153.235 159.5 153.264C159.497 153.277 159.491 153.289 159.482 153.299C159.474 153.309 159.463 153.316 159.451 153.321C159.438 153.326 159.425 153.327 159.412 153.325C159.399 153.324 159.387 153.319 159.376 153.311C159.359 153.299 157.672 152.125 156.763 152.201C156.747 152.202 156.73 152.198 156.716 152.189Z" fill="#090909"/>
<path d="M159.248 150.984C159.242 150.98 159.236 150.975 159.23 150.969C159.218 150.958 158.041 149.813 156.993 149.358C156.966 149.342 156.944 149.318 156.931 149.289C156.918 149.26 156.915 149.228 156.921 149.197C156.932 149.129 156.983 149.093 157.034 149.115C158.117 149.584 159.286 150.722 159.335 150.77C159.356 150.794 159.371 150.823 159.376 150.855C159.38 150.887 159.376 150.919 159.362 150.948C159.357 150.958 159.351 150.968 159.343 150.976C159.334 150.983 159.324 150.989 159.313 150.993C159.302 150.996 159.291 150.997 159.28 150.996C159.268 150.994 159.258 150.99 159.248 150.984Z" fill="#090909"/>
<path d="M157.234 146.973C157.212 146.957 157.195 146.935 157.184 146.91C157.173 146.886 157.168 146.858 157.17 146.831C157.175 146.759 157.221 146.71 157.274 146.722C157.82 146.848 159.586 148.148 159.661 148.203C159.686 148.225 159.703 148.254 159.712 148.286C159.72 148.318 159.718 148.352 159.707 148.383C159.704 148.396 159.698 148.409 159.689 148.419C159.68 148.43 159.668 148.438 159.655 148.443C159.642 148.448 159.628 148.449 159.615 148.447C159.601 148.445 159.588 148.44 159.577 148.432C159.559 148.419 157.771 147.103 157.259 146.984C157.25 146.982 157.241 146.978 157.234 146.973Z" fill="#090909"/>
<path d="M159.364 148.253C159.347 148.242 159.336 148.235 159.332 148.232L159.189 148.14L159.303 148.011C159.449 147.845 160.776 146.373 161.483 146.797C161.71 146.93 161.838 147.231 161.869 147.685C161.902 148.155 161.81 148.491 161.595 148.685C160.994 149.228 159.6 148.4 159.364 148.253ZM161.414 147.046L161.41 147.043C160.954 146.769 160.003 147.614 159.553 148.087C160.058 148.381 161.064 148.84 161.479 148.464C161.635 148.322 161.698 148.072 161.671 147.698C161.646 147.352 161.563 147.138 161.414 147.046Z" fill="#090909"/>
<path d="M159.761 150.274C159.751 150.267 159.74 150.26 159.73 150.252C159.271 149.904 159.235 148.313 159.233 148.13L159.23 147.922L159.37 148.022C159.481 148.102 160.457 148.819 160.508 149.545C160.518 149.664 160.499 149.785 160.453 149.895C160.406 150.005 160.333 150.103 160.24 150.179C160.065 150.332 159.904 150.363 159.761 150.274ZM159.433 148.363C159.462 148.991 159.577 149.851 159.815 150.032C159.845 150.055 159.938 150.126 160.126 149.961C160.189 149.913 160.239 149.851 160.272 149.78C160.305 149.709 160.319 149.63 160.315 149.552C160.285 149.134 159.757 148.625 159.433 148.363L159.433 148.363Z" fill="#090909"/>
<path d="M158.009 151.594C157.981 151.574 157.961 151.544 157.953 151.51C157.933 151.427 157.454 149.437 158.394 148.947C159.194 148.531 159.233 148.124 159.233 148.12C159.239 148.05 159.284 148 159.336 148.01C159.365 148.019 159.39 148.038 159.406 148.064C159.423 148.089 159.43 148.119 159.427 148.15C159.426 148.206 159.392 148.714 158.476 149.189C157.687 149.598 158.127 151.436 158.131 151.454C158.141 151.482 158.141 151.513 158.13 151.54C158.119 151.567 158.098 151.59 158.072 151.603C158.061 151.606 158.05 151.607 158.04 151.606C158.029 151.604 158.018 151.6 158.009 151.594Z" fill="#090909"/>
<path d="M151.588 140.881L160.104 146.04L160.409 145.089L151.588 140.881Z" fill="#090909"/>
<path d="M104.079 114.988L111.835 111.224L105.675 107.232L104.079 114.988Z" fill="#090909"/>
<path d="M165.219 126.167L170.078 107.38C170.332 106.396 170.382 105.371 170.224 104.367C170.066 103.363 169.704 102.402 169.159 101.544C168.615 100.686 167.901 99.9483 167.06 99.3772C166.22 98.8062 165.271 98.4137 164.273 98.2241L136.018 92.8591C136.018 92.8591 108.413 88.0683 107.044 109.057L185.066 156.965L191.225 148.068L165.219 126.167ZM154.954 118.604L142.755 109.617L156.093 111.566L154.954 118.604Z" fill="#015566"/>
<path d="M163.622 71.0723C161.124 75.1927 158.22 79.0524 154.952 82.5934C153.494 84.1727 152.043 85.6027 150.627 86.8963C149.247 88.1604 147.453 88.8767 145.582 88.9107C143.711 88.9447 141.892 88.294 140.467 87.0809L131.455 79.3995L134.604 88.6902H134.606L136.019 92.8582C136.019 92.8582 132.475 92.4643 127.422 93.8501C124.345 94.6995 121.409 95.9936 118.706 97.6916C115.223 99.8635 111.589 102.992 108.187 107.483C107.804 107.99 107.423 108.515 107.044 109.057L107.016 108.982L99.0596 88.5252L98.9975 88.538C98.3747 88.6586 93.2272 89.647 87.9269 90.2254C82.0361 90.8677 77.2506 85.5571 78.5211 79.7706C79.268 76.3657 80.1747 72.517 81.1667 68.9151C82.0615 65.6593 83.7735 62.6862 86.1402 60.2779C88.5068 57.8696 91.4496 56.106 94.6893 55.1545C98.0757 54.1535 101.52 53.3583 105.002 52.7732C107.786 52.3034 110.596 52.0041 113.416 51.8772H113.418C116.401 51.7353 119.392 51.8439 122.357 52.2019C127.501 52.8433 132.187 55.4794 135.406 59.5424C138.503 63.4532 142.477 68.5386 144.23 71.0723L153.356 61.4464L163.622 71.0723Z" fill="#F5F3E3"/>
<path d="M115.008 41.1775C115.022 41.2312 115.033 41.2859 115.046 41.3405C115.111 41.6333 115.167 41.926 115.211 42.2168C115.221 42.2659 115.228 42.3158 115.235 42.3659C115.258 42.5215 115.277 42.6725 115.291 42.8277C115.328 43.1758 115.353 43.5249 115.357 43.8655C115.386 46.0275 114.695 48.013 112.653 49.2713L113.754 52.7692C113.863 53.112 113.914 53.4703 113.906 53.8297C113.9 54.0322 113.823 54.2262 113.688 54.3775C112.198 56.0721 108.838 56.2098 105.146 54.9777L104.584 47.8406L102.353 47.9318C101.914 47.9571 101.476 47.8621 101.087 47.657C100.698 47.452 100.372 47.1447 100.145 46.7682C100.116 46.7207 100.09 46.6718 100.066 46.6217L99.7956 46.0701C99.6325 45.7376 99.5474 45.3723 99.5467 45.0019C99.5459 44.6316 99.6297 44.2659 99.7915 43.9328C99.9533 43.5997 100.189 43.3078 100.481 43.0795C100.772 42.8511 101.112 42.6922 101.474 42.6149C101.474 42.6149 101.467 42.5833 101.458 42.5278C101.278 41.5672 99.9042 33.2306 106.002 32.3167C108.98 31.8662 111.889 33.493 113.195 36.2061C113.878 37.6303 114.598 39.3838 115.008 41.1775Z" fill="#F59060"/>
<path d="M113.113 44.9036C113.159 44.8676 113.198 44.8233 113.229 44.7731C113.688 44.0137 112.19 41.66 111.884 41.1959C111.862 41.1634 111.827 41.1409 111.789 41.1333C111.75 41.1257 111.71 41.1335 111.677 41.1552C111.644 41.1768 111.621 41.2105 111.613 41.2491C111.604 41.2876 111.611 41.3279 111.632 41.3612C112.299 42.3746 113.251 44.1545 112.971 44.6171C112.953 44.6469 112.898 44.7378 112.653 44.7133C112.633 44.711 112.613 44.7127 112.594 44.7182C112.575 44.7237 112.557 44.733 112.541 44.7456C112.526 44.7581 112.513 44.7736 112.503 44.7911C112.494 44.8087 112.488 44.828 112.486 44.8479C112.484 44.8678 112.486 44.8879 112.492 44.907C112.497 44.9261 112.507 44.9438 112.52 44.9592C112.533 44.9746 112.548 44.9872 112.566 44.9965C112.584 45.0057 112.603 45.0113 112.623 45.013C112.794 45.0424 112.97 45.0031 113.113 44.9036Z" fill="#090909"/>
<path d="M109.628 44.4882C110.446 44.3891 111.064 43.9397 111.009 43.4845C110.954 43.0293 110.246 42.7407 109.428 42.8399C108.611 42.939 107.992 43.3884 108.048 43.8436C108.103 44.2988 108.81 44.5874 109.628 44.4882Z" fill="#FC6D6D"/>
<path d="M115.21 42.217C115.22 42.2661 115.227 42.316 115.234 42.366C115.258 42.5216 115.276 42.6726 115.29 42.8279C115.328 43.176 115.353 43.525 115.357 43.8656C115.328 43.8719 115.301 43.8745 115.272 43.8785C114.451 43.9783 113.743 43.6899 113.689 43.2335C113.635 42.7771 114.252 42.3282 115.069 42.2293C115.116 42.223 115.162 42.2204 115.21 42.217Z" fill="#FC6D6D"/>
<path d="M112.653 49.272C112.653 49.272 111.111 50.1423 108.888 49.0856C108.888 49.0856 110.363 50.8559 112.93 50.1504L112.653 49.272Z" fill="#090909"/>
<path d="M108.189 40.4264C108.373 40.2888 108.571 40.1714 108.781 40.0762C108.987 39.981 109.204 39.9121 109.427 39.8709C109.64 39.8353 109.859 39.839 110.071 39.8819C110.276 39.93 110.47 40.0182 110.64 40.1415L110.66 40.1543C110.714 40.1898 110.78 40.2023 110.843 40.1891C110.907 40.1758 110.962 40.138 110.998 40.0838C111.033 40.0296 111.046 39.9636 111.033 39.9002C111.019 39.8367 110.982 39.7812 110.927 39.7457C110.924 39.7434 110.92 39.7408 110.916 39.7388C110.683 39.5917 110.422 39.4934 110.149 39.4496C109.882 39.4132 109.61 39.4263 109.348 39.4881C109.097 39.5517 108.855 39.6468 108.628 39.771C108.403 39.8922 108.191 40.0377 107.998 40.205C107.969 40.2296 107.95 40.2648 107.947 40.3028C107.943 40.3408 107.955 40.3787 107.979 40.4084C108.003 40.438 108.038 40.457 108.076 40.4614C108.114 40.4657 108.152 40.455 108.182 40.4315L108.189 40.4264Z" fill="#671E24"/>
<path d="M114.809 39.0594C114.591 38.9503 114.361 38.8664 114.124 38.8093C113.884 38.7495 113.636 38.7223 113.389 38.7285C113.13 38.739 112.876 38.8007 112.641 38.91C112.404 39.0271 112.193 39.1921 112.023 39.3945C111.979 39.4423 111.956 39.5055 111.959 39.5702C111.962 39.6349 111.99 39.6958 112.038 39.7396C112.086 39.7833 112.149 39.8063 112.214 39.8035C112.278 39.8006 112.339 39.7722 112.383 39.7244C112.386 39.7212 112.389 39.718 112.392 39.7148L112.408 39.6944C112.525 39.5348 112.672 39.4006 112.843 39.3001C113.02 39.2021 113.215 39.1401 113.417 39.1177C113.63 39.0978 113.844 39.1064 114.054 39.1433C114.269 39.1793 114.478 39.239 114.679 39.3212L114.687 39.3244C114.722 39.3392 114.761 39.3398 114.797 39.3261C114.832 39.3124 114.861 39.2855 114.876 39.2512C114.892 39.2168 114.894 39.1776 114.882 39.1418C114.869 39.1061 114.843 39.0766 114.809 39.0596V39.0594Z" fill="#671E24"/>
<path d="M109.972 41.9639C110.191 41.8998 110.29 41.5773 110.192 41.2435C110.095 40.9098 109.838 40.6912 109.619 40.7553C109.399 40.8194 109.3 41.1419 109.398 41.4756C109.495 41.8094 109.752 42.028 109.972 41.9639Z" fill="#090909"/>
<path d="M113.857 41.1467C114.024 41.098 114.085 40.8028 113.992 40.4874C113.9 40.1719 113.69 39.9556 113.524 40.0043C113.357 40.053 113.297 40.3482 113.389 40.6636C113.481 40.9791 113.691 41.1954 113.857 41.1467Z" fill="#090909"/>
<path d="M101.485 46.5297C101.04 45.8271 100.909 45.2309 101.096 44.7573C101.359 44.0929 102.177 43.8736 102.185 43.8714L102.104 43.5554C102.064 43.5656 101.119 43.8156 100.794 44.6349C100.565 45.2114 100.705 45.9076 101.21 46.7043L101.485 46.5297Z" fill="#090909"/>
<path d="M101.473 42.6157C101.976 42.6348 102.472 42.7472 102.934 42.9473C103.693 43.2808 103.876 43.6548 104.165 43.6546C104.625 43.6546 105.248 42.6981 105.997 38.7229C109.746 38.912 112.314 37.9711 113.7 37.3102C115.065 36.6592 115.545 36.1739 115.684 36.0255C117.713 33.8495 117.892 29.4101 115.439 27.0844C115.057 26.723 113.884 25.6112 112.25 25.6329C109.169 25.6738 108.426 31.0078 105.096 31.2397C104.028 31.3143 103.456 30.8328 102.481 31.2867C101.288 31.8425 100.742 33.2181 100.467 34.3095C99.8287 34.8169 99.3163 35.4653 98.9702 36.2039C97.4622 39.4741 100.157 43.0548 100.299 43.2375L101.473 42.6157Z" fill="#671E24"/>
<path d="M102.786 47.915L104.775 50.2608L104.584 47.84L102.786 47.915Z" fill="#671E24"/>
<path d="M112.92 46.326C112.472 46.414 111.654 46.4567 110.449 46.0732C110.422 46.0646 110.394 46.0642 110.367 46.072C110.34 46.0798 110.317 46.0954 110.299 46.1169C110.281 46.1383 110.27 46.1646 110.267 46.1924C110.265 46.2201 110.27 46.248 110.284 46.2725C110.637 46.918 111.611 48.2289 113.053 46.5548C113.072 46.5328 113.084 46.5054 113.087 46.4764C113.089 46.4474 113.083 46.4182 113.068 46.393C113.054 46.3678 113.032 46.3478 113.005 46.3358C112.979 46.3238 112.949 46.3204 112.92 46.326Z" fill="#E52039"/>
<path d="M119.135 100.616C117.245 101.13 115.433 101.893 113.744 102.885C113.62 102.956 113.496 103.031 113.372 103.107C113.241 103.187 113.108 103.268 112.977 103.354C112.092 103.916 111.249 104.54 110.453 105.222C110.244 105.402 110.036 105.586 109.829 105.781C109.249 106.316 108.701 106.884 108.187 107.482C107.784 107.951 107.391 108.449 107.016 108.982C106.842 109.226 106.673 109.477 106.508 109.734C106.4 109.897 106.297 110.064 106.194 110.234C105.297 111.726 104.586 113.323 104.079 114.988L102.631 107.355L102.555 106.95L101.04 98.9673L100.963 98.5627L99.4497 90.5797L99.3715 90.1735L99.0593 88.5251L98.9972 88.5379C98.5962 88.6159 96.325 89.0524 93.3459 89.5067C93.211 89.528 93.0744 89.5492 92.9377 89.5687C91.3869 89.8012 89.6658 90.0354 87.9268 90.2253C86.8505 90.3451 85.7613 90.2626 84.7153 89.9822C84.5627 89.9414 84.4136 89.897 84.2645 89.8474C82.3341 89.2069 80.6896 87.9093 79.6176 86.1807C79.5396 86.0582 79.465 85.9341 79.3958 85.8081C78.3726 83.9711 78.0612 81.8217 78.5211 79.7698C78.6772 79.0566 78.8404 78.3237 79.0107 77.5786C79.0445 77.4313 79.0782 77.2835 79.1119 77.135C79.4987 75.4528 79.9156 73.7099 80.3562 71.9803C80.4307 71.684 80.5065 71.3889 80.5834 71.0952C80.7751 70.3623 80.9683 69.6328 81.1672 68.9144C81.2203 68.7192 81.2771 68.5257 81.3375 68.3341C81.3836 68.1816 81.4315 68.0307 81.4829 67.8816C82.4863 64.8806 84.1935 62.1635 86.4618 59.9573C86.5773 59.8455 86.6943 59.7355 86.8114 59.6254C87.4659 59.0186 88.1612 58.4573 88.8922 57.9453C89.2027 57.7273 89.5221 57.516 89.8468 57.3155C91.2049 56.4742 92.6606 55.8015 94.1815 55.3123C94.3128 55.2679 94.4442 55.2271 94.5773 55.188C94.6145 55.1751 94.6517 55.165 94.6891 55.1544C97.0081 54.4729 99.6343 53.7987 102.463 53.238C102.598 53.2096 102.732 53.183 102.867 53.1564C103.569 53.0214 104.28 52.8937 105.002 52.7731C105.174 53.1404 105.346 53.513 105.517 53.8875C105.575 54.0152 105.634 54.143 105.692 54.2706C106.784 56.6643 107.871 59.1999 108.932 61.8776C108.984 62.0059 109.035 62.135 109.085 62.2645C110.054 64.7149 110.993 67.2805 111.904 69.9613C111.949 70.0927 111.993 70.224 112.037 70.3553C112.355 71.3028 112.668 72.2639 112.976 73.2386C113.5 74.896 113.987 76.5308 114.44 78.143C114.478 78.2761 114.516 78.4092 114.552 78.5407C115.306 81.2376 115.971 83.8637 116.546 86.4188C116.578 86.552 116.608 86.6868 116.638 86.8198C117.256 89.5719 117.785 92.227 118.226 94.7851C118.249 94.9217 118.273 95.0583 118.296 95.1932C118.441 96.0378 118.578 96.8705 118.706 97.6914C118.86 98.6851 119.003 99.6598 119.135 100.616Z" fill="#FF4655"/>
<path d="M163.622 71.0723C162.678 72.6303 161.576 74.3142 160.295 76.0779C160.189 76.2252 160.08 76.373 159.971 76.5215C159.853 76.6794 159.736 76.8374 159.617 76.9971C159.491 77.1638 159.364 77.3324 159.234 77.5027C157.967 79.1564 156.546 80.867 154.952 82.5934C154.417 83.1736 153.883 83.7332 153.352 84.2719C153.237 84.3891 153.121 84.5044 153.006 84.6197C152.205 85.4218 151.412 86.1807 150.626 86.8963C149.884 87.5768 149.016 88.1045 148.07 88.4492C147.124 88.7938 146.119 88.9487 145.113 88.9049C143.403 88.8348 141.767 88.1925 140.466 87.0809C138.839 85.6932 137.212 84.3062 135.585 82.9199C135.377 82.7443 135.17 82.5674 134.962 82.3893C133.793 81.3922 132.623 80.3956 131.454 79.3995L132.639 82.8986L132.772 83.2907L134.603 88.6901H134.605L136.765 90.2463L137.265 90.6083L137.281 90.619L137.73 90.9418L141.951 93.9849C140.997 93.8039 139.574 93.8129 137.991 93.9228C137.854 93.9317 137.716 93.9423 137.576 93.9529C134.715 94.1819 131.442 94.7124 129.502 95.0549C129.358 95.0798 129.224 95.1045 129.098 95.1276C128.294 95.2713 127.804 95.3689 127.804 95.3689C127.687 94.8845 127.559 94.377 127.421 93.8501C127.368 93.646 127.314 93.4402 127.259 93.2309C127.222 93.0995 127.188 92.9681 127.151 92.8351C126.525 90.5107 125.733 87.8509 124.85 85.0243C124.809 84.8931 124.768 84.7617 124.726 84.6287C123.939 82.1233 123.084 79.4953 122.206 76.8657C122.163 76.7345 122.119 76.6049 122.076 76.4736C121.2 73.8528 120.304 71.2338 119.438 68.7356C119.394 68.6042 119.347 68.4747 119.303 68.3434C118.334 65.5559 117.406 62.928 116.583 60.6248C116.537 60.4935 116.491 60.3641 116.445 60.2345C115.127 56.5438 114.099 53.7367 113.656 52.5283C113.599 52.3704 113.551 52.2409 113.514 52.1398C113.45 51.9676 113.416 51.8772 113.416 51.8772H113.418C113.917 51.8559 114.418 51.8405 114.923 51.831C115.567 51.8186 116.214 51.8174 116.864 51.8274C117.792 51.8416 118.721 51.8801 119.651 51.9429C119.795 51.9517 119.937 51.9624 120.081 51.973C120.84 52.0315 121.599 52.1078 122.357 52.2019C124.632 52.4857 126.84 53.1636 128.882 54.2051C129.043 54.285 129.201 54.3684 129.359 54.4554C130.524 55.0886 131.622 55.8382 132.636 56.6928C132.767 56.8011 132.898 56.9128 133.026 57.0281C133.891 57.7949 134.688 58.6362 135.405 59.5424C136.52 60.9495 137.748 62.5093 138.946 64.0476L139.226 64.4078C139.519 64.7839 139.81 65.1602 140.094 65.5292C140.294 65.7883 140.491 66.0438 140.685 66.2957C142.136 68.189 143.421 69.9013 144.23 71.0723L148.953 66.0899L149.296 65.7297L153.356 61.4463L157.529 65.3589L158.06 65.8575L160.434 68.0825L160.799 68.425L163.622 71.0723Z" fill="#FF4655"/>
<path d="M114.923 51.8309L113.514 52.1397C113.551 52.2408 113.599 52.3706 113.656 52.5283L116.864 51.8275C116.214 51.8168 115.567 51.8179 114.923 51.8309ZM118.296 95.1932C118.273 95.0584 118.249 94.9218 118.226 94.7851L112.259 96.091L110.524 88.1578L116.638 86.8199C116.608 86.6868 116.578 86.552 116.546 86.4189L110.435 87.755L108.7 79.82L114.552 78.5407C114.516 78.4093 114.479 78.2763 114.44 78.143L108.611 79.4189L106.876 71.4838L112.037 70.3549C111.993 70.2237 111.949 70.0924 111.904 69.961L106.789 71.0807L105.052 63.1461L109.085 62.2643C109.035 62.1347 108.984 62.0052 108.932 61.8774L104.965 62.7451L103.229 54.8101L105.692 54.2707C105.634 54.1429 105.575 54.0152 105.517 53.8875L103.141 54.4073L102.868 53.1564C102.733 53.183 102.598 53.2097 102.463 53.238L102.738 54.4961L94.8047 56.2314L94.5776 55.188C94.4445 55.2265 94.3131 55.2679 94.1817 55.3123L94.4019 56.3201L89.847 57.3155C89.5224 57.516 89.2029 57.7272 88.8925 57.9454L94.4906 56.7211L96.226 64.6562L88.2909 66.3914L86.811 59.6257C86.6939 59.7358 86.5768 59.8458 86.4615 59.9576L87.8881 66.4802L81.4825 67.8819C81.4312 68.031 81.3833 68.1818 81.3371 68.3344L87.9768 66.8812L89.7121 74.8162L81.7772 76.5516L80.5831 71.0951C80.5067 71.3896 80.431 71.6847 80.3559 71.9802L81.3744 76.6398L79.1121 77.1349C79.0783 77.2838 79.0446 77.4312 79.0108 77.5785L81.463 77.0425L83.1984 84.9758L79.3959 85.8088C79.4651 85.9347 79.5397 86.0589 79.6177 86.1814L83.2865 85.3794L84.2643 89.8473C84.4134 89.8969 84.5624 89.9413 84.7151 89.9821L83.6888 85.2906L91.6222 83.5553L92.9369 89.5686C93.0737 89.5491 93.2103 89.5279 93.3451 89.5066L92.025 83.4683L99.96 81.7331L101.695 89.6663L99.3708 90.1737L99.4489 90.58L101.782 90.0691L103.518 98.0041L100.963 98.5627L101.04 98.9673L103.608 98.4048L105.343 106.34L102.556 106.95L102.632 107.355L105.432 106.743L106.195 110.235C106.298 110.064 106.4 109.897 106.509 109.734L105.834 106.654L109.828 105.781C110.036 105.586 110.244 105.402 110.453 105.222L105.745 106.253L104.01 98.3182L111.945 96.5829L113.371 103.107C113.495 103.031 113.62 102.956 113.743 102.886L112.345 96.4942L118.296 95.1932ZM106.386 71.1699L98.451 72.9052L96.7156 64.9702L104.651 63.2349L106.386 71.1699ZM94.8921 56.6342L102.827 54.8989L104.563 62.8321L96.6275 64.5674L94.8921 56.6342ZM88.3791 66.7942L96.3123 65.0589L98.0477 72.9922L90.1149 74.7292L88.3791 66.7942ZM83.6007 84.8894L81.8653 76.9544L89.8003 75.219L91.5357 83.154L83.6007 84.8894ZM91.9367 83.0654L90.2013 75.1302L98.1363 73.395L99.8717 81.33L91.9367 83.0654ZM98.5391 73.308L106.472 71.5727L108.208 79.5059L100.275 81.2412L98.5391 73.308ZM100.361 81.644L108.296 79.9087L110.033 87.8437L102.099 89.579L100.361 81.644ZM103.921 97.915L102.185 89.98L110.12 88.2447L111.856 96.1798L103.921 97.915ZM160.799 68.4249L160.433 68.0824L158.632 68.4764L158.059 65.8574L157.528 65.3588L158.229 68.5658L150.294 70.3012L149.295 65.7303L148.953 66.0905L149.893 70.3898L141.958 72.1252L140.684 66.2963C140.491 66.0443 140.294 65.7888 140.093 65.5298L141.556 72.2121L133.623 73.9467L131.886 66.0135L139.227 64.4077L138.947 64.0475L131.799 65.6107L130.064 57.6757L133.027 57.0281C132.899 56.9126 132.768 56.801 132.637 56.6927L129.975 57.2747L129.36 54.4553C129.202 54.3683 129.044 54.2849 128.882 54.205L129.572 57.3617L121.639 59.0969L120.081 51.9729C119.938 51.9623 119.796 51.9516 119.652 51.9428L121.236 59.1857L116.446 60.2344C116.492 60.364 116.538 60.4934 116.584 60.6248L121.325 59.5885L123.06 67.5217L119.304 68.3427C119.348 68.4739 119.395 68.6035 119.439 68.7349L123.147 67.9239L124.883 75.8589L122.077 76.4728C122.12 76.6042 122.164 76.7337 122.207 76.865L124.972 76.2599L126.707 84.195L124.726 84.6286C124.769 84.7616 124.809 84.893 124.85 85.0242L126.795 84.5983L128.531 92.5335L127.152 92.835C127.189 92.9681 127.223 93.0994 127.26 93.2308L128.618 92.9345L129.099 95.128C129.225 95.1049 129.359 95.0802 129.503 95.0553L129.02 92.848L136.955 91.1126L137.576 93.9534C137.717 93.9427 137.855 93.9321 137.992 93.9232L137.358 91.0241L137.73 90.9425L137.281 90.6197L137.268 90.6214L137.265 90.6086L136.765 90.2466L136.866 90.7097L128.933 92.4451L127.195 84.5101L132.772 83.2914L132.639 82.8993L127.109 84.1095L125.373 76.1744L133.306 74.4391L135.044 82.3723L134.962 82.39C135.17 82.5675 135.377 82.7444 135.585 82.9206L135.533 82.6881L143.468 80.9511L145.204 88.8861L145.113 88.9056C146.44 88.9623 147.758 88.6744 148.941 88.0698L145.605 88.7991L143.87 80.8641L151.805 79.1287L153.006 84.6204C153.122 84.5049 153.237 84.3895 153.353 84.2726L152.208 79.0401L159.235 77.5034C159.364 77.3331 159.492 77.1645 159.618 76.9977L152.12 78.6373L150.384 70.704L158.319 68.9687L159.971 76.5222C160.081 76.3731 160.189 76.2259 160.296 76.0786L158.72 68.8799L160.799 68.4249ZM121.725 59.4997L129.659 57.7645L131.395 65.6995L123.46 67.4347L121.725 59.4997ZM125.285 75.7709L123.55 67.8359L131.485 66.1005L133.22 74.0355L125.285 75.7709ZM135.445 82.2845L133.71 74.3495L141.645 72.6142L143.38 80.5493L135.445 82.2845ZM151.716 78.7252L143.783 80.4605L142.048 72.5255L149.981 70.7902L151.716 78.7252Z" fill="#FFAEB8"/>
<path d="M98.5951 64.3117L96.4795 73.3137L96.7387 73.3746L98.8542 64.3726L98.5951 64.3117Z" fill="black"/>
<path d="M99.0784 88.657L99.0407 88.3934L102.133 87.9511L103.815 73.1513L91.081 73.7273L91.0689 73.4615L104.114 72.8714L102.374 88.1853L99.0784 88.657Z" fill="black"/>
<path d="M152.215 60.3499L164.762 71.7567L162.595 75.1787L149.819 63.3156L152.215 60.3499Z" fill="#ED2941"/>
<path d="M100.555 71.8705H104.319L102.437 89.4368H99.08L100.555 71.8705Z" fill="#ED2941"/>
<path d="M124.851 59.0537L124.598 59.1375L131.328 79.4419L131.581 79.3582L124.851 59.0537Z" fill="black"/>
<path d="M144.125 70.9909L140.932 75.0974L141.142 75.2607L144.335 71.1543L144.125 70.9909Z" fill="black"/>
<path d="M129.765 99.88L129.607 100.094L165.139 126.272L165.297 126.058L129.765 99.88Z" fill="black"/>
<path d="M110.362 105.253L110.218 105.477L111.409 106.236L111.552 106.012L110.362 105.253Z" fill="black"/>
<path d="M183.287 152.076L180.891 150.548L181.034 150.323L183.43 151.852L183.287 152.076ZM178.496 149.02L176.1 147.492L176.243 147.267L178.639 148.795L178.496 149.02ZM173.704 145.964L171.308 144.436L171.451 144.211L173.847 145.739L173.704 145.964ZM168.912 142.908L166.516 141.38L166.659 141.155L169.055 142.683L168.912 142.908ZM164.12 139.852L161.724 138.324L161.867 138.099L164.263 139.627L164.12 139.852ZM159.328 136.796L156.932 135.268L157.075 135.043L159.471 136.571L159.328 136.796ZM154.536 133.74L152.14 132.212L152.283 131.987L154.679 133.515L154.536 133.74ZM149.744 130.683L147.348 129.156L147.491 128.931L149.887 130.459L149.744 130.683ZM144.952 127.627L142.556 126.099L142.699 125.875L145.095 127.403L144.952 127.627ZM140.16 124.571L137.764 123.043L137.907 122.819L140.303 124.347L140.16 124.571ZM135.368 121.515L132.973 119.987L133.116 119.763L135.512 121.291L135.368 121.515ZM130.577 118.459L128.181 116.931L128.324 116.707L130.72 118.235L130.577 118.459ZM125.784 115.403L123.388 113.875L123.531 113.65L125.927 115.178L125.784 115.403ZM120.992 112.347L118.596 110.819L118.739 110.594L121.135 112.122L120.992 112.347ZM116.2 109.291L113.804 107.763L113.947 107.538L116.344 109.066L116.2 109.291Z" fill="black"/>
<path d="M185.826 153.379L185.683 153.603L186.873 154.362L187.016 154.138L185.826 153.379Z" fill="black"/>
<path d="M159.028 120.292L158.768 120.236L159.357 117.475L159.617 117.53L159.028 120.292ZM160.206 114.769L159.945 114.714L160.534 111.952L160.794 112.008L160.206 114.769ZM160.562 109.257C160.399 108.833 160.151 108.447 159.834 108.122C159.518 107.797 159.138 107.54 158.718 107.367L158.819 107.12C159.272 107.308 159.682 107.585 160.025 107.936C160.367 108.287 160.634 108.704 160.81 109.161L160.562 109.257ZM155.974 106.956L153.165 106.677L153.191 106.413L156 106.691L155.974 106.956ZM150.356 106.399L147.547 106.121L147.572 105.856L150.381 106.134L150.356 106.399ZM144.737 105.843L141.928 105.564L141.953 105.3L144.763 105.578L144.737 105.843ZM139.119 105.286L136.309 105.008L136.335 104.743L139.144 105.021L139.119 105.286Z" fill="black"/>
<path d="M154.287 62.234L166.987 50.1981L173.66 56.216L162.982 70.1387L154.287 62.234Z" fill="#F59060"/>
<path d="M104.198 73.0055L120.762 72.5854L121.958 83.0018L102.721 86.7841L104.198 73.0055Z" fill="#F59060"/>
<path d="M166.295 51.2073L168.737 47.5948C168.878 47.393 169.049 47.2136 169.244 47.063C170.464 46.1186 175.103 42.1404 178.676 39.0593C179.201 38.607 179.931 39.2913 179.516 39.8456C178.722 40.9045 176.648 42.7045 177.031 43.6819C177.173 44.0464 177.656 43.9279 178.112 44.6151C178.293 44.932 178.503 45.2318 178.738 45.5109C178.82 45.6173 178.914 45.7151 179.016 45.8028C179.315 46.0364 179.596 46.036 180.021 46.4788C180.521 47.0009 180.311 47.1887 180.907 47.8409C181.246 48.2129 181.411 48.2576 181.681 48.6649C181.858 48.9333 182.065 49.2522 182.031 49.6714C182.016 49.8543 181.964 50.0321 181.876 50.1934C181.789 50.3547 181.669 50.4958 181.523 50.6079L176.817 54.2491C176.297 54.6512 174.856 54.5162 174.662 55.144L171.988 57.8875L166.295 51.2073Z" fill="#F59060"/>
<path d="M171.691 50.9486C171.975 50.8825 172.242 50.7578 172.475 50.5825C172.666 50.4338 172.825 50.2476 172.942 50.0353C173.439 49.136 173.157 47.9355 173.065 47.6068L173.597 46.8221L174.019 46.2013L174.542 45.4325C174.627 45.3082 174.668 45.1595 174.659 45.0096C174.65 44.8596 174.592 44.7168 174.493 44.6033C174.395 44.4898 174.262 44.4121 174.115 44.3821C173.967 44.3521 173.815 44.3716 173.68 44.4375L172.936 44.8002L172.28 45.1182L171.118 45.6835L171.273 46.0051L172.502 45.4059L173.158 45.0879L173.838 44.7576C173.902 44.7264 173.975 44.7174 174.045 44.7319C174.115 44.7464 174.178 44.7836 174.225 44.8377C174.272 44.8919 174.299 44.9599 174.303 45.0312C174.307 45.1026 174.287 45.1732 174.247 45.2322L173.79 45.9044L173.368 46.5252L172.674 47.5468L172.7 47.6316C172.704 47.6444 173.126 48.9707 172.629 49.8636C172.521 50.0526 172.373 50.2164 172.197 50.3441C172.02 50.4718 171.819 50.5605 171.605 50.6043L171.691 50.9486Z" fill="#090909"/>
<path d="M176.891 43.5308L172.88 47.2506L173.122 47.5122L177.133 43.7924L176.891 43.5308Z" fill="#090909"/>
<path d="M175.992 51.7771L175.973 51.4209C175.42 51.4508 174.998 51.3189 174.72 51.0291C174.335 50.628 174.317 50.0226 174.322 49.8252L178.858 45.6416L178.617 45.3794L173.977 49.6582L173.97 49.7257C173.967 49.7642 173.884 50.6711 174.461 51.274C174.814 51.6436 175.329 51.8128 175.992 51.7771Z" fill="#090909"/>
<path d="M177.641 53.7644L177.7 53.4128C176.352 53.1833 176.184 52.0121 176.163 51.684L180.991 47.9491L180.773 47.6669L175.805 51.5103L175.804 51.5965C175.804 51.6155 175.805 53.4523 177.641 53.7644Z" fill="#090909"/>
<path d="M174.067 49.9033L174.228 49.5845C173.17 49.0521 173.048 47.5778 173.047 47.563L172.691 47.5895C172.696 47.6584 172.831 49.2805 174.067 49.9033Z" fill="#090909"/>
<path d="M120.289 72.7002C120.289 72.7002 127.257 70.8802 133.594 71.5713C133.655 71.5784 133.712 71.6047 133.757 71.6463C133.802 71.6879 133.832 71.7426 133.844 71.8027C133.856 71.8627 133.848 71.925 133.822 71.9804C133.796 72.0358 133.753 72.0815 133.699 72.1109L129.684 74.3088L128.876 80.6116C128.825 81.0085 128.646 81.3779 128.366 81.6639C128.086 81.9498 127.721 82.1367 127.325 82.1961L121.958 83.0022L120.289 72.7002Z" fill="#F59060"/>
<path d="M154.287 62.2336L163.622 69.3041L162.982 70.1383L154.287 62.2336Z" fill="#090909"/>
<path d="M104.198 73.0056L104.319 86.4701L102.721 86.7842L104.198 73.0056Z" fill="#090909"/>
<path d="M152.296 136.843L151.588 140.881L160.915 145.33L161.648 142.585L152.296 136.843Z" fill="#015566"/>
<path d="M152.366 136.731L152.227 136.958L161.579 142.7L161.718 142.474L152.366 136.731Z" fill="black"/>
<path d="M104.775 50.6539L102.786 53.1728L107.044 58.8098L108.812 56.1862L104.775 50.6539Z" fill="#ED2941"/>
<path d="M112.788 49.7005L115.358 51.8233L115.599 56.7376L113.087 55.3307L112.788 49.7005Z" fill="#ED2941"/>
</svg>
