<svg width="250" height="160" viewBox="0 0 250 160" fill="none" xmlns="http://www.w3.org/2000/svg">
<path d="M100.489 90.6417C96.5126 83.5278 99.0902 75.0681 100.924 67.2895C102.716 59.6989 103.718 51.943 103.916 44.1457C104.008 40.4522 103.856 36.5496 101.68 33.4053C99.5518 30.328 95.8258 28.4654 92.217 26.8175C78.0722 20.3587 61.2973 15.1152 46.6162 20.5386C36.4044 24.311 28.8516 33.2785 27.635 43.0753C26.4183 52.8721 31.5875 63.096 40.6262 68.7696C45.6292 71.9101 51.6768 73.7402 56.0682 77.5397C63.2896 83.7883 64.0021 95.071 57.6124 102.003C52.884 107.133 45.4921 109.513 39.0803 112.891C29.2638 118.062 21.3139 126.004 16.663 135.287C13.9752 140.651 12.5086 147.272 16.1908 152.145C22.2388 160.147 36.4145 157.212 45.1799 151.552C53.9453 145.892 62.4971 137.995 73.308 138.43C79.9242 138.695 85.7574 142.135 91.4966 145.082C102.489 150.704 114.174 154.846 126.25 157.401C135.533 159.375 145.301 160.426 154.592 158.481C163.883 156.536 172.659 151.182 176.253 143.298C181.054 132.769 175.232 119.988 164.898 113.336C147.682 102.254 111.576 110.478 100.489 90.6417Z" fill="#F5F3E3" fill-opacity="0.4"/>
<path d="M135.66 69.4866C136.42 78.6802 140.161 88.0385 147.915 94.1484C157.917 102.029 172.372 103.128 185.725 103.375C197.079 103.585 205.388 103.129 213.126 99.8302C220.582 96.6514 222.499 93.4348 223.045 92.4123C226.235 86.4342 223.712 78.3235 218.307 74.5391C216.273 73.1155 212.159 72.5521 204.014 71.4834C195.073 70.3102 191.389 70.4234 185.187 68.3799C178.525 66.1842 177.272 64.2391 176.887 63.5386C175.295 60.6424 177.04 58.0901 178.572 53.1119C179.869 48.8995 183.005 38.7132 178.604 30.9238C177.73 29.376 174.78 24.7768 169.151 22.9801C157.833 19.3672 145.534 30.2294 144.675 31.0083C130.829 43.5557 135.154 63.3593 135.66 69.4866Z" fill="#F5F3E3" fill-opacity="0.4"/>
<path d="M69.236 80.7228H10.593C9.97056 80.722 9.37386 80.4744 8.93376 80.0343C8.49366 79.5942 8.24608 78.9975 8.24533 78.3751V35.8522C8.24608 35.2298 8.49366 34.6331 8.93377 34.1931C9.37388 33.753 9.97057 33.5054 10.593 33.5047H69.236C69.8584 33.5054 70.4551 33.753 70.8952 34.1931C71.3353 34.6331 71.5829 35.2298 71.5836 35.8522V78.3751C71.5829 78.9975 71.3353 79.5942 70.8952 80.0343C70.4551 80.4744 69.8584 80.722 69.236 80.7228ZM10.593 34.3832C10.2034 34.3836 9.8299 34.5385 9.55443 34.814C9.27897 35.0894 9.12404 35.4629 9.12365 35.8525V78.3751C9.12404 78.7647 9.27897 79.1382 9.55443 79.4137C9.8299 79.6891 10.2034 79.844 10.593 79.8444H69.236C69.6255 79.8441 69.9991 79.6892 70.2745 79.4137C70.55 79.1382 70.7049 78.7647 70.7053 78.3751V35.8522C70.7049 35.4626 70.55 35.0891 70.2745 34.8136C69.9991 34.5382 69.6255 34.3833 69.236 34.3829L10.593 34.3832Z" fill="#6595F7"/>
<path d="M75.4665 40.1742V82.6971C75.4664 83.2032 75.2653 83.6885 74.9074 84.0463C74.5496 84.4042 74.0643 84.6053 73.5582 84.6054H14.9148C14.4087 84.6053 13.9234 84.4042 13.5656 84.0463C13.2077 83.6885 13.0066 83.2032 13.0065 82.6971V40.1742C13.0066 39.6681 13.2077 39.1829 13.5656 38.825C13.9234 38.4672 14.4087 38.2661 14.9148 38.266H73.5582C74.0643 38.2661 74.5496 38.4672 74.9074 38.825C75.2653 39.1829 75.4664 39.6681 75.4665 40.1742Z" fill="#6445F1"/>
<path d="M53.9687 50.0116H34.9373C31.7328 50.0116 29.135 52.6093 29.135 55.8138V68.1146C29.135 71.3191 31.7328 73.9169 34.9373 73.9169H53.9687C57.1732 73.9169 59.7709 71.3191 59.7709 68.1146V55.8138C59.7709 52.6093 57.1732 50.0116 53.9687 50.0116Z" fill="white"/>
<path d="M75.4666 40.1742V45.4907H13.007V40.1742C13.0071 39.6682 13.2082 39.183 13.5659 38.8252C13.9237 38.4674 14.4089 38.2663 14.9148 38.266H73.5583C74.0643 38.2661 74.5496 38.4672 74.9075 38.825C75.2653 39.1829 75.4664 39.6681 75.4666 40.1742Z" fill="#2C34F1"/>
<path d="M16.7421 42.8863C17.3368 42.8863 17.8188 42.4042 17.8188 41.8096C17.8188 41.2149 17.3368 40.7328 16.7421 40.7328C16.1474 40.7328 15.6653 41.2149 15.6653 41.8096C15.6653 42.4042 16.1474 42.8863 16.7421 42.8863Z" fill="white"/>
<path d="M20.4932 42.8863C21.0879 42.8863 21.57 42.4042 21.57 41.8096C21.57 41.2149 21.0879 40.7328 20.4932 40.7328C19.8985 40.7328 19.4165 41.2149 19.4165 41.8096C19.4165 42.4042 19.8985 42.8863 20.4932 42.8863Z" fill="white"/>
<path d="M24.2444 42.8863C24.8391 42.8863 25.3212 42.4042 25.3212 41.8096C25.3212 41.2149 24.8391 40.7328 24.2444 40.7328C23.6498 40.7328 23.1677 41.2149 23.1677 41.8096C23.1677 42.4042 23.6498 42.8863 24.2444 42.8863Z" fill="white"/>
<path d="M26.4441 48.513H15.6653V50.736H26.4441V48.513Z" fill="white"/>
<path d="M72.5229 77.7281H15.6653V79.1656H72.5229V77.7281Z" fill="white"/>
<path d="M49.0714 80.4833H15.6653V81.9208H49.0714V80.4833Z" fill="white"/>
<path d="M115.74 72.0112C115.952 72.248 116.1 72.5353 116.169 72.8455C116.238 73.1558 116.226 73.4786 116.135 73.783L114.523 78.8154L119.539 81.395L122.695 77.1572C122.89 76.9057 123.145 76.7084 123.438 76.5842C123.73 76.46 124.05 76.4131 124.366 76.4479L124.387 76.4497C124.702 76.4691 125.008 76.5686 125.274 76.7388C125.54 76.9091 125.758 77.1443 125.908 77.4224L128.327 82.1205L133.697 80.3989L132.933 75.1701C132.893 74.8568 132.934 74.5385 133.051 74.2453C133.169 73.9521 133.359 73.6937 133.604 73.4946L133.62 73.4807C133.857 73.2686 134.144 73.1209 134.455 73.0518C134.765 72.9827 135.088 72.9945 135.392 73.086L140.424 74.6968L143.004 69.6814L138.766 66.5249C138.515 66.3305 138.317 66.0747 138.193 65.7821C138.069 65.4896 138.022 65.17 138.057 64.854C138.057 64.8471 138.058 64.8392 138.059 64.833C138.078 64.5177 138.178 64.2126 138.348 63.9465C138.518 63.6804 138.753 63.4621 139.031 63.3123L143.729 60.8932L142.008 55.5228L136.778 56.2872C136.465 56.3271 136.147 56.2864 135.853 56.1689C135.56 56.0515 135.302 55.8611 135.103 55.616C135.098 55.6105 135.093 55.6051 135.089 55.5999C134.877 55.3631 134.729 55.0758 134.66 54.7655C134.591 54.4553 134.602 54.1324 134.694 53.828L136.306 48.7956L131.29 46.216L128.134 50.4538C127.939 50.7053 127.684 50.9026 127.391 51.0268C127.099 51.151 126.779 51.1979 126.463 51.1631L126.442 51.1611C126.127 51.1417 125.822 51.0422 125.555 50.8721C125.289 50.7019 125.071 50.4666 124.921 50.1886L122.502 45.4905L117.132 47.2121L117.896 52.4409C117.936 52.7542 117.895 53.0725 117.778 53.3657C117.66 53.6589 117.47 53.9173 117.225 54.1164C117.22 54.1211 117.214 54.1256 117.209 54.1302C116.972 54.3423 116.685 54.49 116.374 54.5592C116.064 54.6283 115.741 54.6165 115.437 54.525L110.405 52.9144L107.825 57.9296L112.063 61.0861C112.315 61.2805 112.512 61.5362 112.636 61.8288C112.76 62.1214 112.807 62.441 112.773 62.7569C112.773 62.7641 112.771 62.7718 112.771 62.7782C112.751 63.0934 112.652 63.3985 112.482 63.6646C112.311 63.9307 112.076 64.149 111.798 64.2988L107.1 66.718L108.822 72.0884L114.051 71.3237C114.364 71.2839 114.683 71.3246 114.976 71.4421C115.269 71.5596 115.527 71.75 115.727 71.9952C115.731 72.0004 115.736 72.0059 115.74 72.0112ZM121.387 65.0973C121.131 64.3007 121.118 63.4462 121.348 62.6419C121.578 61.8376 122.042 61.1197 122.68 60.5788C123.318 60.0379 124.102 59.6984 124.933 59.6032C125.764 59.5081 126.605 59.6615 127.349 60.0441C128.093 60.4268 128.707 61.0214 129.113 61.7529C129.519 62.4843 129.699 63.3197 129.63 64.1535C129.561 64.9872 129.247 65.7818 128.726 66.4368C128.206 67.0918 127.503 67.5778 126.706 67.8333C126.177 68.003 125.62 68.0668 125.067 68.0211C124.513 67.9754 123.974 67.8211 123.48 67.5671C122.986 67.313 122.547 66.9641 122.188 66.5404C121.828 66.1166 121.556 65.6262 121.387 65.0973Z" fill="#2C34F1"/>
<path d="M108.074 86.6119C108.204 86.7577 108.295 86.9344 108.338 87.1253C108.38 87.3163 108.373 87.5149 108.317 87.7022L107.325 90.7995L110.412 92.3875L112.355 89.7796C112.474 89.6248 112.632 89.5034 112.812 89.4269C112.992 89.3505 113.188 89.3216 113.383 89.3431L113.396 89.3443C113.59 89.3562 113.777 89.4175 113.941 89.5222C114.105 89.6269 114.239 89.7717 114.331 89.9428L115.82 92.8339L119.125 91.774L118.655 88.5563C118.63 88.3635 118.655 88.1676 118.727 87.9872C118.8 87.8067 118.917 87.6477 119.068 87.5251L119.078 87.5167C119.223 87.3861 119.4 87.2952 119.591 87.2527C119.782 87.2101 119.981 87.2174 120.168 87.2737L123.265 88.2654L124.853 85.1784L122.245 83.2358C122.09 83.1162 121.969 82.9589 121.892 82.7788C121.816 82.5988 121.787 82.4021 121.808 82.2077C121.808 82.2034 121.808 82.199 121.81 82.1947C121.822 82.0007 121.883 81.8129 121.988 81.6492C122.092 81.4854 122.237 81.3511 122.408 81.2589L125.299 79.7702L124.239 76.4654L121.022 76.9359C120.829 76.9604 120.633 76.9353 120.453 76.863C120.272 76.7907 120.113 76.6736 119.991 76.5227L119.982 76.5128C119.852 76.3671 119.761 76.1903 119.718 75.9994C119.676 75.8085 119.683 75.6098 119.739 75.4225L120.731 72.3255L117.645 70.7375L115.701 73.3459C115.581 73.5007 115.424 73.6221 115.244 73.6986C115.064 73.775 114.867 73.8039 114.673 73.7824L114.659 73.7812C114.466 73.7691 114.278 73.7078 114.114 73.6031C113.951 73.4984 113.817 73.3538 113.724 73.1828L112.236 70.2917L108.931 71.3515L109.401 74.5691C109.426 74.762 109.401 74.9579 109.329 75.1383C109.256 75.3187 109.139 75.4778 108.988 75.6003L108.978 75.6088C108.833 75.7393 108.656 75.8302 108.465 75.8728C108.274 75.9153 108.075 75.9081 107.888 75.8517L104.79 74.8597L103.202 77.9467L105.81 79.8892C105.965 80.0088 106.086 80.1662 106.163 80.3462C106.239 80.5263 106.268 80.723 106.247 80.9174C106.247 80.9219 106.247 80.9262 106.246 80.9305C106.234 81.1245 106.172 81.3122 106.068 81.4759C105.963 81.6397 105.818 81.774 105.647 81.8662L102.756 83.355L103.816 86.6599L107.033 86.1894C107.226 86.1649 107.422 86.1899 107.603 86.2622C107.783 86.3345 107.942 86.4516 108.065 86.6024C108.068 86.6053 108.071 86.6087 108.074 86.6119ZM111.549 82.3572C111.391 81.867 111.383 81.3411 111.525 80.8461C111.666 80.3512 111.952 79.9093 112.344 79.5764C112.737 79.2436 113.22 79.0346 113.731 78.9761C114.243 78.9175 114.76 79.012 115.218 79.2474C115.676 79.4829 116.053 79.8489 116.303 80.299C116.553 80.7492 116.664 81.2633 116.621 81.7764C116.579 82.2895 116.386 82.7785 116.065 83.1816C115.745 83.5847 115.312 83.8837 114.822 84.041C114.165 84.2518 113.451 84.1928 112.837 83.877C112.223 83.5613 111.759 83.0146 111.549 82.3572Z" fill="#6595F7"/>
<path d="M35.6335 123.053C35.6379 123.333 36.2774 123.231 36.2774 123.231C36.2774 123.231 36.3983 124.047 36.6593 125.407C36.6789 125.5 36.6963 125.596 36.716 125.693C36.9998 127.143 37.4296 129.132 38.0268 131.375C38.0529 131.475 38.0801 131.574 38.1095 131.675C38.5142 133.181 38.9951 134.796 39.5552 136.437C39.5901 136.542 39.627 136.644 39.664 136.75C40.3011 138.607 41.0415 140.427 41.8817 142.202C41.9134 142.268 41.9448 142.333 41.9775 142.398C43.3819 145.292 45.0822 147.925 47.1143 149.78H85.6715L85.4964 140.258L85.3995 134.979L85.3952 134.688L85.3245 130.911L85.3201 130.668L85.2782 128.424L85.2738 128.131L85.1597 121.869L85.1531 121.58L85.0966 118.504L92.879 125.397L93.1478 125.635L96.6795 128.765L99.6221 121.899L99.7429 121.619L100.027 120.956V120.955L100.226 120.492V120.491L101.91 116.558L102.035 116.267L103.883 111.959L104 111.685L105.687 107.748C105.687 107.748 104.038 106.488 101.699 104.73C101.641 104.687 101.582 104.642 101.524 104.599C100.576 103.886 99.522 103.099 98.4233 102.282C98.3194 102.204 98.2166 102.128 98.1117 102.05C96.7802 101.062 95.3911 100.041 94.0519 99.0667C93.9834 99.0177 93.9148 98.9687 93.8474 98.9199C93.8289 98.905 93.8103 98.8926 93.7919 98.8785C93.7233 98.8285 93.6548 98.7795 93.5874 98.7301C90.1856 96.2716 87.1972 94.2144 86.4216 93.9882C85.646 93.762 84.7742 93.5345 83.8095 93.3192H83.8089C83.722 93.2996 83.6348 93.28 83.5456 93.2598H83.5446C81.3399 92.7871 79.1101 92.4406 76.8659 92.2219C76.7757 92.212 76.6854 92.2033 76.5951 92.1958C75.1939 92.0599 73.6982 91.9583 72.1098 91.9033C72.0294 91.9 71.9488 91.8978 71.8673 91.8956C66.6265 91.7481 61.3827 92.0576 56.1956 92.8203C56.0662 92.8377 55.9368 92.8573 55.8074 92.8757C54.4954 93.0683 53.1519 93.2928 51.7769 93.5492C51.309 93.6372 50.8467 93.7421 50.393 93.8658C50.2669 93.8995 50.1418 93.9354 50.0167 93.9723C48.354 94.4623 46.7737 95.1977 45.3281 96.154C45.242 96.2106 45.1573 96.2671 45.0713 96.3269C44.2177 96.9125 43.4181 97.5731 42.6818 98.3008C42.6225 98.3584 42.5631 98.4182 42.5045 98.477C40.9424 100.063 39.6987 101.933 38.8407 103.987C38.8091 104.058 38.7797 104.13 38.7517 104.202C38.6766 104.386 38.6058 104.572 38.5374 104.76C38.4731 104.94 38.4111 105.118 38.3524 105.299C38.1757 105.837 38.0265 106.384 37.9053 106.937L37.8661 107.117C37.8639 107.128 37.8618 107.14 37.8585 107.151C37.5354 108.685 37.1558 110.423 36.8022 112.275C36.7826 112.379 36.7608 112.482 36.7429 112.587C36.6362 113.153 36.5318 113.727 36.4339 114.31C36.4219 114.382 36.4089 114.454 36.3969 114.525C36.1587 115.957 35.9542 117.433 35.816 118.916C35.8062 119.013 35.7985 119.109 35.7909 119.205C35.678 120.493 35.6186 121.783 35.6335 123.053Z" fill="#FCB913"/>
<path d="M62.2946 124.099C62.6729 124.876 63.2552 125.536 63.9793 126.007C64.7034 126.479 65.5421 126.745 66.4057 126.777L69.654 126.919C73.1959 127.075 76.8578 127.236 80.2399 128.504C81.4192 128.972 82.5719 129.505 83.6927 130.1C84.2279 130.373 84.7718 130.648 85.3253 130.91L85.3208 130.668C84.8042 130.421 84.295 130.162 83.7922 129.906C82.6643 129.307 81.5039 128.771 80.3164 128.301C76.9017 127.02 73.2222 126.858 69.6643 126.702L66.4159 126.559C65.5944 126.523 64.7975 126.268 64.108 125.82C63.4185 125.372 62.8615 124.748 62.4949 124.012C62.1284 123.276 61.9656 122.455 62.0235 121.635C62.0814 120.815 62.3579 120.025 62.8243 119.348C63.8352 117.891 65.1868 116.704 66.7613 115.888C70.325 114.078 74.4763 113.946 78.4927 113.821C78.8071 113.812 79.1214 113.802 79.4337 113.791C83.5838 113.651 88.3089 113.274 91.883 110.574C92.9121 109.796 93.5583 108.999 93.8569 108.136C94.2441 107.026 93.9657 105.801 93.1791 105.16C92.547 104.643 91.6964 104.54 90.948 104.507C88.4144 104.395 85.8404 104.908 83.3515 105.403C79.7311 106.124 76.3121 106.805 72.9386 105.773C72.5972 105.669 72.2585 105.534 72.0926 105.254C71.9267 104.973 71.9708 104.615 72.035 104.239C72.5441 101.228 73.1217 97.8169 74.7709 94.9983C75.3657 93.9996 76.0679 93.069 76.8651 92.223C76.7748 92.2131 76.6845 92.2044 76.5942 92.1969C75.8317 93.0214 75.1575 93.9234 74.5827 94.8882C72.9153 97.7408 72.3344 101.174 71.8221 104.202C71.7514 104.62 71.7045 105.023 71.907 105.365C72.1103 105.71 72.5107 105.871 72.8761 105.982C76.3018 107.03 79.907 106.313 83.3946 105.617C85.8706 105.125 88.4325 104.614 90.9389 104.725C91.6525 104.757 92.4597 104.853 93.0429 105.329C93.7585 105.913 94.0099 107.039 93.6531 108.066C93.367 108.886 92.7457 109.65 91.7515 110.401C88.229 113.063 83.5425 113.435 79.4273 113.574C79.114 113.585 78.8 113.595 78.4851 113.604C74.4459 113.731 70.2696 113.861 66.6624 115.695C65.0557 116.527 63.6769 117.739 62.646 119.225C62.1513 119.93 61.8573 120.755 61.7954 121.614C61.7334 122.472 61.906 123.331 62.2946 124.099Z" fill="white"/>
<path d="M60.1114 107.875C61.3319 107.528 62.6983 107.027 63.587 105.947C65.2177 103.964 64.4203 100.871 62.746 99.1426C60.9838 97.3238 58.4643 96.5008 56.2418 95.7756L50.3942 93.8666C50.2681 93.9003 50.143 93.9362 50.0178 93.9731L56.1741 95.9824C58.3726 96.7004 60.8649 97.513 62.5892 99.2938C64.198 100.955 64.9726 103.918 63.4181 105.809C62.5684 106.844 61.2392 107.328 60.0523 107.666C52.8506 109.716 45.2672 108.362 37.9047 106.939L37.8655 107.118C37.8633 107.129 37.8612 107.141 37.8579 107.152C45.2469 108.579 52.8597 109.938 60.1114 107.875Z" fill="white"/>
<path d="M55.8632 118.157C56.1701 122.945 56.5518 128.903 53.8192 133.619C51.2464 138.061 46.4087 140.559 41.8822 142.201C41.9138 142.268 41.9453 142.333 41.9779 142.398C46.5343 140.742 51.4063 138.22 54.0084 133.728C56.7727 128.956 56.3887 122.96 56.0797 118.142C56.0352 117.449 55.959 116.789 55.5119 116.33C55.1604 115.97 54.6601 115.828 54.1782 115.715C50.6525 114.888 46.9653 114.769 43.3997 114.655C42.7699 114.634 42.1422 114.614 41.5149 114.591C39.8229 114.525 38.1295 114.432 36.4346 114.312C36.4226 114.384 36.4097 114.456 36.3977 114.527C38.1012 114.649 39.804 114.743 41.5063 114.808C42.1339 114.832 42.7638 114.852 43.3926 114.872C46.9476 114.987 50.6246 115.105 54.1286 115.927C54.58 116.033 55.0457 116.163 55.3568 116.482C55.7513 116.887 55.8209 117.506 55.8632 118.157Z" fill="white"/>
<path d="M94.779 117.413C94.4092 118.483 94.126 119.609 94.5635 120.585C95.026 121.617 96.1516 122.107 97.235 122.107C97.5356 122.107 97.835 122.068 98.1255 121.991C98.826 121.785 99.4746 121.432 100.028 120.956V120.955L100.227 120.491C99.6377 121.04 98.9131 121.552 98.0689 121.781C96.8712 122.106 95.3084 121.713 94.764 120.497C94.3572 119.589 94.6305 118.512 94.9867 117.484C96.2072 113.957 97.8669 110.598 99.9266 107.486C100.045 107.307 100.166 107.126 100.287 106.945C100.762 106.233 101.256 105.493 101.701 104.731C101.643 104.687 101.585 104.643 101.526 104.599C101.081 105.365 100.584 106.109 100.106 106.824C99.9842 107.006 99.8646 107.186 99.745 107.366C97.6744 110.493 96.0059 113.868 94.779 117.413Z" fill="white"/>
<path d="M81.9793 97.4611C82.252 97.7209 82.5774 97.919 82.9334 98.042C86.3851 99.452 90.1131 99.3769 93.8479 98.9201C93.8293 98.9052 93.8108 98.8928 93.7924 98.8787C93.7238 98.8286 93.6552 98.7797 93.5878 98.7302C89.9609 99.1589 86.3492 99.2013 83.0161 97.8397C82.6893 97.7277 82.3901 97.5475 82.1382 97.3111C81.2526 96.3657 82.2066 94.8069 83.0639 93.9911C83.3065 93.7604 83.5549 93.5363 83.8091 93.3187C83.7221 93.2991 83.635 93.2796 83.5458 93.2594H83.5447C83.3304 93.4453 83.1204 93.6357 82.9138 93.8327C81.8119 94.8841 81.0484 96.4669 81.9793 97.4611Z" fill="white"/>
<path d="M38.7514 104.205C39.4606 104.22 40.1699 104.227 40.8792 104.227C42.2933 104.227 43.7079 104.199 45.123 104.142C46.6677 104.078 47.5737 103.626 47.8174 102.794C48.0721 101.926 47.4182 101.097 47.0059 100.68C45.8147 99.4746 44.2602 98.774 42.6817 98.303C42.6223 98.3606 42.563 98.4204 42.5043 98.4792C44.0949 98.9415 45.6635 99.6324 46.8514 100.832C47.23 101.215 47.8309 101.971 47.6083 102.733C47.394 103.465 46.5546 103.865 45.1139 103.924C43.703 103.982 42.2913 104.01 40.8789 104.01C40.199 104.01 39.5194 104.003 38.8403 103.989C38.8096 104.06 38.7799 104.132 38.7514 104.205Z" fill="white"/>
<path d="M55.8078 92.8765C59.574 94.6802 63.5663 96.0706 67.7763 96.459C67.9645 96.4763 68.1622 96.4915 68.3594 96.4915C68.739 96.5072 69.1161 96.4228 69.4528 96.2467C69.952 95.9595 70.2403 95.4178 70.4719 94.9827L72.1103 91.9041C72.0298 91.9008 71.9492 91.8986 71.8678 91.8964L70.2797 94.8804C70.0611 95.2905 69.7891 95.8018 69.3447 96.0575C68.8921 96.3186 68.3319 96.2914 67.7966 96.2424C63.7269 95.8671 59.8574 94.5453 56.1968 92.8212C56.0666 92.8385 55.9366 92.8581 55.8078 92.8765Z" fill="white"/>
<path d="M105.687 107.75L138.337 92.9877L142.754 102.955L107.327 128.295C106.079 129.141 104.605 129.59 103.098 129.584C101.59 129.578 100.12 129.118 98.8781 128.264L97.346 127.21L105.687 107.75Z" fill="#F59060"/>
<path d="M128.78 98.5576C128.78 98.5576 135.96 95.1571 142.145 81.4544C142.188 81.3577 142.26 81.2768 142.351 81.223C142.442 81.1691 142.548 81.1449 142.653 81.1539C142.759 81.1628 142.859 81.2044 142.939 81.2728C143.02 81.3412 143.077 81.4331 143.103 81.5356C143.493 83.117 144.003 85.8693 143.752 88.7634C143.747 88.8175 143.759 88.8719 143.786 88.9191C143.813 88.9662 143.854 89.004 143.903 89.0272C143.952 89.0505 144.007 89.0581 144.06 89.049C144.114 89.0399 144.164 89.0145 144.202 88.9764C145.77 87.4289 150.439 82.7323 153.101 79.1203C153.172 79.0252 153.273 78.9576 153.388 78.9292C153.503 78.9008 153.624 78.9134 153.731 78.9648C153.837 79.0161 153.922 79.1031 153.972 79.2107C154.021 79.3182 154.031 79.4397 154.001 79.554C153.565 81.1293 152.565 83.4398 150.293 86.2248C150.254 86.2721 150.233 86.3321 150.235 86.3935C150.237 86.455 150.261 86.5135 150.304 86.5582C150.346 86.6029 150.403 86.6305 150.464 86.6359C150.525 86.6413 150.586 86.6241 150.636 86.5875C152.128 85.4671 154.226 83.7982 155.733 82.2229C155.816 82.1369 155.925 82.0825 156.043 82.0691C156.161 82.0556 156.28 82.0841 156.38 82.1494C156.479 82.2147 156.552 82.3128 156.587 82.4266C156.621 82.5404 156.614 82.6627 156.568 82.7721C155.896 84.358 154.587 86.5489 152.038 88.9087C151.995 88.9502 151.967 89.006 151.961 89.066C151.954 89.126 151.97 89.1863 152.004 89.2359C152.039 89.2855 152.09 89.3211 152.148 89.3363C152.207 89.3515 152.269 89.3452 152.323 89.3186C153.579 88.6867 154.779 87.9483 155.91 87.1117C156.005 87.0396 156.123 87.0036 156.243 87.01C156.362 87.0163 156.476 87.0646 156.563 87.1464C156.65 87.2282 156.706 87.3382 156.72 87.457C156.734 87.5758 156.706 87.6958 156.64 87.7958C155.751 89.1315 154.279 90.8323 151.91 92.4371C151.861 92.4686 151.825 92.5156 151.807 92.5705C151.789 92.6254 151.791 92.6848 151.811 92.7387C151.832 92.7926 151.871 92.8379 151.92 92.8669C151.97 92.8959 152.029 92.9069 152.086 92.8981C152.881 92.7689 153.658 92.5469 154.401 92.2368C154.507 92.1905 154.626 92.182 154.738 92.2127C154.85 92.2434 154.947 92.3114 155.015 92.4055C155.083 92.4995 155.116 92.6139 155.11 92.7296C155.103 92.8453 155.057 92.9553 154.98 93.0413C152.3 96.0018 146.1 101.723 133.617 108.406L128.78 98.5576Z" fill="#F59060"/>
<path d="M143.482 97.9488C144.716 94.927 143.214 90.9307 143.198 90.8907L143.092 90.6134L143.389 90.609C143.514 90.6072 146.468 90.6124 149.03 94.887L148.674 95.1005C146.709 91.8233 144.489 91.1807 143.696 91.0547C144.037 92.0814 144.972 95.3995 143.866 98.1059L143.482 97.9488Z" fill="#090909"/>
<path d="M52.3963 122.76L35.6335 123.052L33.7591 139.738C33.6172 141.002 33.7436 142.281 34.13 143.492C34.5164 144.703 35.1541 145.819 36.0014 146.767C36.8487 147.715 37.8866 148.473 39.047 148.992C40.2075 149.511 41.4645 149.78 42.7359 149.78H85.6714L85.4964 140.258L51.6458 135.019L52.3963 122.76Z" fill="#F59060"/>
<path d="M43.9708 133.487L43.9042 133.87L51.6123 135.209L51.6789 134.826L43.9708 133.487Z" fill="#090909"/>
<path d="M105.687 107.748L98.1384 127.754L97.3466 127.209L105.687 107.748Z" fill="#090909"/>
<path d="M52.3963 122.76L35.4793 124.425L35.6335 123.052L52.3963 122.76Z" fill="#090909"/>
<path d="M74.6569 79.8118C74.6669 79.8732 74.6737 79.9354 74.6804 79.9976C74.7193 80.3308 74.7478 80.6629 74.7622 80.9919C74.7675 81.0477 74.7697 81.1041 74.7719 81.1607C74.78 81.3364 74.7832 81.5065 74.781 81.6812C74.7822 82.0729 74.7699 82.4641 74.735 82.8434C74.5173 85.252 73.5189 87.3812 71.1019 88.5454L71.9236 92.5641C72.0049 92.958 72.0206 93.3625 71.97 93.7614C71.94 93.9852 71.8325 94.1914 71.6664 94.3442C70.1773 95.7223 67.4604 95.8416 64.3921 94.9026C63.7311 94.7029 63.1538 94.2921 62.7483 93.7332C62.3429 93.1743 62.1317 92.498 62.147 91.8077L62.2911 86.022L59.7988 85.866C59.3074 85.8434 58.8314 85.6872 58.4222 85.4142C58.013 85.1412 57.686 84.7617 57.4764 84.3166C57.4499 84.2605 57.4262 84.203 57.4056 84.1444L57.1682 83.4991C57.0251 83.1104 56.9725 82.6941 57.0144 82.282C57.0564 81.8699 57.1917 81.4728 57.4102 81.1209C57.6287 80.769 57.9246 80.4715 58.2753 80.2511C58.6261 80.0307 59.0224 79.8932 59.4343 79.849C59.4343 79.849 59.43 79.8131 59.4263 79.7502C59.3373 78.6608 58.7712 69.2275 65.6605 68.9159C69.0261 68.7584 72.0741 70.9046 73.2137 74.0733C73.8093 75.7357 74.408 77.769 74.6569 79.8118Z" fill="#F59060"/>
<path d="M71.7652 83.811C71.8231 83.7802 71.8749 83.7391 71.9179 83.6897C72.5723 82.9428 71.3788 80.0586 71.1328 79.4881C71.1151 79.4471 71.0818 79.4148 71.0403 79.3983C70.9988 79.3818 70.9524 79.3825 70.9114 79.4002C70.8704 79.418 70.8381 79.4512 70.8216 79.4928C70.8051 79.5343 70.8058 79.5807 70.8235 79.6217C71.3602 80.8673 72.0632 83.0133 71.6646 83.4683C71.6388 83.498 71.5607 83.587 71.2955 83.5128C71.2525 83.5007 71.2065 83.5062 71.1675 83.528C71.1286 83.5499 71.0999 83.5863 71.0878 83.6292C71.0757 83.6722 71.0811 83.7183 71.103 83.7572C71.1248 83.7962 71.1612 83.8249 71.2042 83.837C71.3874 83.9023 71.5889 83.893 71.7652 83.811Z" fill="#090909"/>
<path d="M68.2912 82.8725C69.2124 82.8566 69.952 82.4281 69.9431 81.9154C69.9343 81.4027 69.1804 80.9999 68.2592 81.0158C67.338 81.0317 66.5984 81.4602 66.6073 81.973C66.6161 82.4857 67.3701 82.8884 68.2912 82.8725Z" fill="#FC6D6D"/>
<path d="M74.7621 80.9914C74.7675 81.0472 74.7697 81.1036 74.7719 81.1601C74.78 81.3358 74.7832 81.5059 74.781 81.6806C74.7822 82.0723 74.7699 82.4635 74.735 82.8428L74.7339 82.8439C73.7669 82.8906 72.9608 82.4783 72.953 81.9465C72.9453 81.4324 73.683 81.0044 74.6042 80.9888C74.6574 80.9873 74.7081 80.9896 74.7621 80.9914Z" fill="#FC6D6D"/>
<path d="M71.1032 88.5454C71.1032 88.5454 69.2869 89.3355 66.9355 87.9032C66.9355 87.9032 68.3719 90.0423 71.3099 89.5541L71.1032 88.5454Z" fill="#090909"/>
<path d="M67.2122 77.9218C67.4419 77.8061 67.6834 77.7154 67.9324 77.6512C68.1776 77.5864 68.43 77.5525 68.6837 77.5504C68.9261 77.5527 69.1661 77.5994 69.3918 77.688C69.6081 77.7807 69.8039 77.9155 69.9678 78.0844L69.9869 78.1024C70.0397 78.152 70.11 78.1787 70.1824 78.1764C70.2548 78.1742 70.3234 78.1433 70.373 78.0906C70.4227 78.0378 70.4493 77.9675 70.4471 77.8951C70.4449 77.8227 70.414 77.7541 70.3612 77.7045C70.3578 77.7014 70.3538 77.6977 70.3502 77.6947C70.1214 77.4873 69.8531 77.3282 69.5614 77.2269C69.2743 77.135 68.9728 77.0968 68.6718 77.1141C68.3829 77.1353 68.0978 77.1929 67.8233 77.2855C67.5516 77.3752 67.2906 77.4944 67.0449 77.641C67.0077 77.6624 66.9805 77.6975 66.969 77.7389C66.9576 77.7802 66.9629 77.8244 66.9837 77.8618C67.0046 77.8993 67.0394 77.9271 67.0805 77.9391C67.1217 77.9512 67.1659 77.9465 67.2037 77.9262L67.2122 77.9218Z" fill="#671E24"/>
<path d="M74.7705 77.7044C74.5513 77.5417 74.3144 77.4045 74.0643 77.2955C73.8111 77.1829 73.544 77.1048 73.27 77.0633C72.9828 77.0247 72.6908 77.0432 72.4108 77.1178C72.1268 77.2007 71.863 77.3415 71.6361 77.5313C71.6076 77.5531 71.5838 77.5804 71.5658 77.6114C71.5479 77.6425 71.5362 77.6768 71.5316 77.7124C71.5269 77.7479 71.5293 77.7841 71.5386 77.8187C71.5478 77.8534 71.5639 77.8858 71.5857 77.9143C71.6075 77.9427 71.6348 77.9666 71.6658 77.9846C71.6969 78.0025 71.7312 78.0141 71.7668 78.0188C71.8023 78.0235 71.8385 78.0211 71.8731 78.0118C71.9077 78.0025 71.9402 77.9865 71.9687 77.9647C71.9724 77.9619 71.9761 77.9589 71.9797 77.9558L72.0021 77.9366C72.1614 77.7835 72.3504 77.6644 72.5573 77.5868C72.7719 77.5135 72.9988 77.4833 73.2252 77.4978C73.4634 77.5172 73.698 77.5684 73.9227 77.6499C74.1517 77.7313 74.371 77.8378 74.5765 77.9675L74.5842 77.9725C74.6198 77.9966 74.6634 78.0057 74.7056 77.9978C74.7478 77.9899 74.7852 77.9658 74.8097 77.9305C74.8342 77.8953 74.8438 77.8518 74.8365 77.8095C74.8292 77.7672 74.8055 77.7295 74.7706 77.7045L74.7705 77.7044Z" fill="#671E24"/>
<path d="M68.9507 80.3315C69.2046 80.3036 69.3761 79.9678 69.3337 79.5815C69.2913 79.1953 69.051 78.9047 68.7971 78.9326C68.5431 78.9605 68.3716 79.2962 68.414 79.6825C68.4564 80.0688 68.6967 80.3593 68.9507 80.3315Z" fill="#090909"/>
<path d="M73.3896 80.1871C73.5825 80.1659 73.7063 79.8528 73.6662 79.4877C73.6261 79.1226 73.4373 78.8438 73.2444 78.8649C73.0516 78.8861 72.9277 79.1993 72.9678 79.5644C73.0079 79.9295 73.1967 80.2083 73.3896 80.1871Z" fill="#090909"/>
<path d="M58.995 84.2046C58.5811 83.3717 58.5045 82.6931 58.7672 82.1878C59.1359 81.4791 60.0715 81.3295 60.081 81.328L60.0272 80.9672C59.9814 80.9739 58.9017 81.1428 58.4448 82.0168C58.1238 82.6317 58.1989 83.4224 58.6684 84.3671L58.995 84.2046Z" fill="#090909"/>
<path d="M59.4335 79.8497C59.9912 79.9289 60.5292 80.1112 61.0203 80.3871C61.8267 80.8454 61.987 81.2829 62.3079 81.3162C62.8205 81.3693 63.6232 80.3772 64.9157 76.0411C65.8388 76.3389 70.136 77.6226 73.6487 75.3583C74.4315 74.8547 75.1183 74.2157 75.677 73.4713C77.711 70.7125 77.1298 67.4539 77.0045 66.7512C76.7425 65.3179 76.1642 63.9611 75.3117 62.7794C71.2783 66.2985 66.4596 68.7986 61.2599 70.0697C60.6526 70.1848 58.644 70.6447 57.3885 72.4281C55.8553 74.6062 56.0703 77.8709 58.0548 80.4064L59.4335 79.8497Z" fill="#671E24"/>
<path d="M60.2819 85.8965L62.2238 88.7358L62.2916 86.0207L60.2819 85.8965Z" fill="#671E24"/>
<path d="M71.2774 85.3399C70.767 85.35 69.8569 85.2381 68.603 84.5808C68.5755 84.566 68.5442 84.5599 68.5132 84.5632C68.4822 84.5665 68.4529 84.579 68.4291 84.5991C68.4053 84.6192 68.3881 84.646 68.3797 84.6761C68.3713 84.7061 68.3722 84.7379 68.3821 84.7675C68.646 85.5472 69.4633 87.182 71.3786 85.6164C71.4037 85.5959 71.4217 85.5681 71.4303 85.5369C71.4389 85.5057 71.4375 85.4726 71.4263 85.4421C71.4152 85.4117 71.3949 85.3856 71.3682 85.3672C71.3415 85.3489 71.3098 85.3394 71.2774 85.3399Z" fill="white"/>
<path d="M68.7065 95.4847L62.1896 90.0979L60.081 92.3418L66.9661 98.3028L68.7065 95.4847Z" fill="#DD9B0A"/>
<path d="M68.7065 95.4847L71.4194 90.0979L73.224 91.9511L70.4684 98.3028L68.7065 95.4847Z" fill="#DD9B0A"/>
<path d="M68.8698 95.4853H68.5434V141.566H68.8698V95.4853Z" fill="#090909"/>
<path d="M61.7885 149.78H98.8168L103.771 125.509C103.882 124.966 103.87 124.404 103.737 123.866C103.605 123.328 103.354 122.826 103.003 122.396C102.653 121.967 102.211 121.621 101.71 121.383C101.209 121.145 100.662 121.022 100.107 121.022H67.658L61.7885 149.78Z" fill="#6445F1"/>
<path d="M42.7359 149.78H61.7885C61.899 149.781 62.0067 149.745 62.0934 149.676C62.1802 149.608 62.2408 149.511 62.265 149.403L68.1346 121.587C68.1467 121.526 68.1465 121.462 68.1339 121.401C68.1214 121.34 68.0967 121.282 68.0614 121.23C68.0261 121.178 67.9809 121.134 67.9283 121.1C67.8758 121.066 67.817 121.043 67.7554 121.032C67.6307 121.006 67.5007 121.03 67.3934 121.098C67.2861 121.167 67.21 121.275 67.1814 121.399L61.3913 148.839H42.7356C42.6726 148.837 42.6098 148.848 42.551 148.87C42.4922 148.893 42.4386 148.928 42.3934 148.971C42.3481 149.015 42.3121 149.068 42.2876 149.126C42.263 149.184 42.2503 149.246 42.2503 149.309C42.2503 149.372 42.263 149.435 42.2876 149.493C42.3121 149.551 42.3481 149.604 42.3934 149.647C42.4386 149.691 42.4922 149.726 42.551 149.748C42.6098 149.771 42.6726 149.782 42.7356 149.78H42.7359Z" fill="#090909"/>
<path d="M88.4364 136.173C89.2302 133.944 88.1457 131.521 86.0142 130.762C83.8826 130.003 81.5112 131.195 80.7175 133.424C79.9237 135.654 81.0082 138.076 83.1398 138.835C85.2713 139.594 87.6427 138.402 88.4364 136.173Z" fill="white"/>
<path d="M52.5909 108.624H52.2018V122.76H52.5909V108.624Z" fill="#090909"/>
<path d="M85.292 108.624H84.9029V118.503H85.292V108.624Z" fill="#090909"/>
<path d="M5.60617 159.514L134.871 159.514V149.939L5.60617 149.939V159.514Z" fill="#2C34F1"/>
<path d="M3.72089 155.506L136.558 155.506C138.139 155.506 139.421 154.224 139.421 152.642C139.421 151.061 138.139 149.779 136.558 149.779L3.72089 149.779C2.13948 149.779 0.857513 151.061 0.857513 152.642C0.857513 154.224 2.13948 155.506 3.72089 155.506Z" fill="#004751"/>
<path d="M239.984 103.499H184.08C181.668 103.497 179.355 102.537 177.649 100.832C175.944 99.1261 174.984 96.8135 174.982 94.4014V41.1129C174.984 38.7008 175.944 36.3883 177.649 34.6827C179.355 32.9771 181.668 32.0177 184.08 32.0151H239.984C242.396 32.0179 244.708 32.9773 246.414 34.6829C248.119 36.3885 249.078 38.701 249.081 41.1129V94.4022C249.078 96.814 248.119 99.1263 246.413 100.832C244.708 102.537 242.396 103.497 239.984 103.499ZM184.08 33.1036C181.956 33.106 179.92 33.9506 178.419 35.4521C176.917 36.9537 176.073 38.9895 176.07 41.1129V94.4022C176.073 96.5256 176.917 98.5614 178.419 100.063C179.92 101.564 181.956 102.409 184.08 102.411H239.984C242.107 102.409 244.143 101.564 245.645 100.063C247.146 98.5614 247.991 96.5256 247.993 94.4022V41.1129C247.991 38.9895 247.146 36.9537 245.645 35.4522C244.143 33.9506 242.107 33.106 239.984 33.1036H184.08Z" fill="#6595F7"/>
<path d="M228.017 23.857H172.113C167.389 23.857 163.56 27.6864 163.56 32.4102V85.6996C163.56 90.4233 167.389 94.2527 172.113 94.2527H228.017C232.741 94.2527 236.571 90.4233 236.571 85.6996V32.4102C236.571 27.6864 232.741 23.857 228.017 23.857Z" fill="#6445F1"/>
<path d="M232.794 35.1672V82.9436C232.794 84.9773 231.986 86.9278 230.548 88.3658C229.11 89.8039 227.159 90.6118 225.126 90.6119H175.005C173.501 90.612 172.029 90.1698 170.774 89.3401C169.52 88.5105 168.536 87.3302 167.947 85.946C167.946 85.9428 167.945 85.9399 167.943 85.9374C167.542 84.9902 167.336 83.9721 167.337 82.9436V35.1672C167.337 34.1601 167.535 33.1629 167.92 32.2324C168.306 31.3019 168.87 30.4565 169.582 29.7443C170.295 29.0321 171.14 28.4672 172.07 28.0818C173.001 27.6963 173.998 27.4979 175.005 27.4979H225.126C226.133 27.4979 227.13 27.6963 228.06 28.0818C228.991 28.4672 229.836 29.0321 230.548 29.7443C231.26 30.4565 231.825 31.3019 232.21 32.2324C232.596 33.1629 232.794 34.1601 232.794 35.1672Z" fill="#FCB913"/>
<path d="M198.827 50.0863C198.443 50.0863 198.068 49.9725 197.748 49.7591C197.429 49.5457 197.18 49.2423 197.033 48.8875C196.886 48.5326 196.847 48.1421 196.922 47.7653C196.997 47.3885 197.182 47.0425 197.454 46.7708C197.725 46.4992 198.072 46.3142 198.448 46.2393C198.825 46.1644 199.216 46.2029 199.57 46.3499C199.925 46.4969 200.229 46.7458 200.442 47.0652C200.655 47.3847 200.769 47.7602 200.769 48.1443C200.769 48.6592 200.564 49.1528 200.2 49.5169C199.836 49.8809 199.342 50.0857 198.827 50.0863ZM198.827 46.5285C198.508 46.5285 198.195 46.6232 197.93 46.8008C197.664 46.9783 197.457 47.2306 197.334 47.5259C197.212 47.8211 197.18 48.146 197.242 48.4594C197.305 48.7729 197.459 49.0608 197.685 49.2868C197.911 49.5128 198.198 49.6667 198.512 49.729C198.825 49.7914 199.15 49.7594 199.445 49.6371C199.741 49.5148 199.993 49.3077 200.171 49.042C200.348 48.7763 200.443 48.4639 200.443 48.1443C200.442 47.716 200.272 47.3053 199.969 47.0024C199.666 46.6995 199.256 46.5291 198.827 46.5285Z" fill="#6595F7"/>
<path d="M198.1 44.8827C198.278 47.1172 199.134 49.1392 201.413 49.9108L201.171 52.8963C201.142 53.2488 201.184 53.6034 201.294 53.9395C201.404 54.2756 201.579 54.5865 201.811 54.8539C202.042 55.1214 202.324 55.3401 202.641 55.4974C202.958 55.6546 203.302 55.7472 203.655 55.7697C203.78 55.7771 203.903 55.7792 204.025 55.7743C204.937 55.7361 205.797 55.3449 206.425 54.6834C207.053 54.022 207.4 53.1422 207.391 52.2301L207.577 47.302L209.369 46.9698C209.724 46.9098 210.055 46.7544 210.327 46.5204C210.6 46.2863 210.804 45.9825 210.917 45.6414C210.93 45.5982 210.942 45.555 210.953 45.51L211.068 45.0203C211.137 44.726 211.138 44.4199 211.071 44.1251C211.004 43.8304 210.871 43.5548 210.681 43.3193C210.492 43.0839 210.251 42.8946 209.977 42.7661C209.704 42.6376 209.405 42.5731 209.102 42.5775L209.099 42.5033C209.067 41.7082 208.644 34.8193 203.621 35.2005C201.169 35.3853 199.15 37.2074 198.602 39.6064C198.268 41.0122 198.087 42.45 198.063 43.8947C198.062 44.2273 198.074 44.5566 198.1 44.8827Z" fill="#F59060"/>
<path d="M200.523 45.788C200.461 45.7853 200.399 45.7703 200.342 45.7437C200.285 45.7172 200.234 45.6797 200.192 45.6333C199.664 45.0492 200.511 42.9509 200.686 42.5362C200.693 42.5183 200.703 42.502 200.716 42.4883C200.73 42.4745 200.746 42.4636 200.764 42.4561C200.781 42.4487 200.8 42.4448 200.819 42.4448C200.839 42.4448 200.858 42.4487 200.875 42.4561C200.893 42.4636 200.909 42.4745 200.922 42.4883C200.936 42.502 200.946 42.5183 200.953 42.5362C200.96 42.5541 200.963 42.5731 200.963 42.5923C200.962 42.6115 200.958 42.6304 200.95 42.6478C200.572 43.5431 200.09 45.0928 200.405 45.4408C200.429 45.4676 200.502 45.5481 200.755 45.4705C200.773 45.4644 200.792 45.462 200.811 45.4634C200.831 45.4648 200.849 45.4701 200.866 45.4788C200.883 45.4876 200.898 45.4997 200.911 45.5144C200.923 45.529 200.932 45.5461 200.938 45.5644C200.944 45.5827 200.945 45.602 200.944 45.621C200.942 45.6401 200.936 45.6586 200.927 45.6754C200.917 45.6922 200.905 45.707 200.89 45.7189C200.875 45.7309 200.858 45.7397 200.839 45.7448C200.738 45.7786 200.63 45.7933 200.523 45.788Z" fill="#090909"/>
<path d="M204.256 44.7671C204.273 44.393 203.741 44.066 203.069 44.0369C202.397 44.0077 201.838 44.2874 201.822 44.6615C201.806 45.0357 202.338 45.3627 203.01 45.3918C203.682 45.421 204.24 45.1413 204.256 44.7671Z" fill="#FC6D6D"/>
<path d="M198.1 44.8825C198.34 44.9561 198.594 44.9763 198.843 44.9419C199.457 44.8654 199.921 44.5248 199.879 44.1835C199.837 43.8421 199.302 43.6256 198.688 43.702C198.47 43.7283 198.258 43.7937 198.063 43.8949C198.062 44.2271 198.074 44.5564 198.1 44.8825Z" fill="#FC6D6D"/>
<path d="M201.412 49.9111C201.412 49.9111 202.798 50.3232 204.376 49.0774C204.376 49.0774 203.524 50.7545 201.351 50.6606L201.412 49.9111Z" fill="#090909"/>
<path d="M209.378 46.9676C209.645 46.918 209.9 46.8162 210.128 46.6678C209.19 48.241 208.064 49.6109 207.489 49.6201L207.577 47.3023L209.372 46.9691C209.373 46.9691 209.376 46.9676 209.378 46.9676Z" fill="#090909"/>
<path d="M211.274 38.4277C212.493 41.4554 211.359 44.2003 211.109 44.7688C211.138 44.4902 211.107 44.2087 211.02 43.9427C210.932 43.6768 210.789 43.4323 210.6 43.2254C210.411 43.0186 210.181 42.8539 209.924 42.7422C209.667 42.6305 209.39 42.5743 209.11 42.5773H209.102C209.102 42.5773 206.144 44.7915 201.067 38.8565C201.067 38.8565 200.235 40.2915 198.261 41.4146H198.259C198.226 41.4345 198.192 41.4557 198.155 41.474C198.07 41.5171 197.974 41.5351 197.879 41.5259C197.608 41.4584 197.329 35.462 200.414 33.9927C200.924 33.7497 201.471 33.7328 202.566 33.6992C204.279 33.6466 206.49 33.5787 208.534 34.971C209.765 35.8309 210.718 37.0326 211.274 38.4277Z" fill="#090909"/>
<path d="M204.632 41.7589C204.425 41.657 204.208 41.5747 203.986 41.5128C203.765 41.4502 203.538 41.4099 203.309 41.3925C203.087 41.3792 202.864 41.397 202.647 41.4454C202.439 41.4984 202.242 41.5876 202.065 41.7087L202.053 41.7172C202.003 41.7496 201.943 41.7611 201.885 41.7491C201.827 41.7371 201.777 41.7026 201.744 41.6532C201.712 41.6038 201.7 41.5436 201.712 41.4858C201.724 41.4279 201.759 41.3772 201.808 41.3448L201.818 41.3387C202.048 41.1997 202.301 41.103 202.566 41.0533C202.823 41.0118 203.085 41.0068 203.343 41.0385C203.594 41.073 203.841 41.1326 204.079 41.2166C204.317 41.2987 204.547 41.403 204.765 41.5283C204.793 41.5467 204.812 41.5748 204.82 41.607C204.828 41.6393 204.824 41.6734 204.808 41.7026C204.793 41.7319 204.767 41.7543 204.735 41.7653C204.704 41.7764 204.669 41.7754 204.639 41.7625L204.632 41.7589Z" fill="#090909"/>
<path d="M197.41 41.4072C197.639 41.3013 197.876 41.2172 198.12 41.1561C198.366 41.0932 198.617 41.0552 198.869 41.0427C199.13 41.0335 199.39 41.0612 199.643 41.1249C199.902 41.1973 200.145 41.3156 200.363 41.474C200.411 41.5081 200.444 41.56 200.454 41.6182C200.464 41.6764 200.45 41.7362 200.416 41.7845C200.399 41.8084 200.378 41.8287 200.353 41.8443C200.328 41.8599 200.301 41.8705 200.272 41.8754C200.214 41.8854 200.154 41.8719 200.106 41.8378L200.097 41.8312L200.084 41.8211C199.918 41.6851 199.73 41.5792 199.527 41.5084C199.315 41.4415 199.095 41.4044 198.872 41.3984C198.643 41.396 198.414 41.4166 198.188 41.4597C197.961 41.502 197.738 41.5653 197.523 41.6488L197.516 41.6513C197.485 41.6618 197.45 41.6601 197.42 41.6465C197.389 41.6328 197.365 41.6083 197.352 41.5777C197.338 41.5471 197.337 41.5126 197.348 41.481C197.359 41.4495 197.381 41.4231 197.41 41.4072Z" fill="#090909"/>
<path d="M203.268 42.8195C203.28 42.5358 203.139 42.2992 202.953 42.2912C202.766 42.2831 202.605 42.5065 202.593 42.7902C202.58 43.074 202.722 43.3105 202.908 43.3186C203.095 43.3267 203.256 43.1033 203.268 42.8195Z" fill="#090909"/>
<path d="M199.405 42.6517C199.418 42.368 199.276 42.1314 199.09 42.1233C198.903 42.1153 198.742 42.3387 198.73 42.6224C198.717 42.9062 198.859 43.1427 199.045 43.1508C199.232 43.1589 199.393 42.9355 199.405 42.6517Z" fill="#090909"/>
<path d="M210.065 45.787L209.795 45.6914C210.02 45.0542 210.016 44.5588 209.783 44.2187C209.457 43.742 208.77 43.7161 208.763 43.7157L208.771 43.429C208.804 43.429 209.607 43.457 210.019 44.0545C210.308 44.4747 210.324 45.0575 210.065 45.787Z" fill="#090909"/>
<path d="M202.553 46.6225C202.589 46.6123 202.627 46.6118 202.663 46.6211C202.699 46.6304 202.732 46.6492 202.758 46.6755C202.784 46.7019 202.803 46.7347 202.812 46.7707C202.821 46.8067 202.821 46.8445 202.81 46.8802C202.745 47.122 202.613 47.3409 202.431 47.5125C202.248 47.6841 202.021 47.8016 201.776 47.852C201.571 47.8882 201.36 47.876 201.161 47.8164C200.961 47.7569 200.778 47.6516 200.626 47.509C200.601 47.4839 200.582 47.4524 200.572 47.4176C200.562 47.3829 200.561 47.3461 200.57 47.3111C200.579 47.276 200.597 47.2439 200.622 47.218C200.647 47.192 200.679 47.1731 200.713 47.1632L202.553 46.6225Z" fill="#E52039"/>
<path d="M216.52 44.3217C219.172 44.3217 221.322 42.1717 221.322 39.5196C221.322 36.8675 219.172 34.7175 216.52 34.7175C213.868 34.7175 211.718 36.8675 211.718 39.5196C211.718 42.1717 213.868 44.3217 216.52 44.3217Z" fill="#090909"/>
<path d="M211.448 38.3351C211.971 39.0357 212.68 40.3724 212.013 41.8878C211.999 41.9211 211.974 41.9488 211.943 41.9668C211.912 41.9848 211.875 41.992 211.84 41.9874C211.804 41.9828 211.771 41.9666 211.745 41.9413C211.719 41.9159 211.703 41.8829 211.698 41.8472C211.591 41.0519 211.372 39.4995 211.155 38.4678C211.147 38.4311 211.153 38.393 211.169 38.3596C211.186 38.3262 211.214 38.2996 211.248 38.2841C211.282 38.2686 211.321 38.2653 211.357 38.2745C211.393 38.2838 211.425 38.3051 211.448 38.3351Z" fill="#6595F7"/>
<path d="M200.773 50.3466H207.523C207.796 50.3466 208.057 50.4549 208.25 50.6475C208.442 50.8401 208.55 51.1014 208.55 51.3738V53.4412H199.746V51.3738C199.746 51.2389 199.772 51.1053 199.824 50.9807C199.875 50.8561 199.951 50.7428 200.046 50.6474C200.142 50.5521 200.255 50.4764 200.38 50.4248C200.504 50.3732 200.638 50.3466 200.773 50.3466Z" fill="#2C34F1"/>
<path d="M228.22 90.4418C226.259 90.6953 224.13 90.84 222.139 90.7089C221.781 90.685 221.428 90.6536 221.082 90.6111C220.891 90.5883 220.701 90.5622 220.514 90.5328C220.498 90.5305 220.482 90.5273 220.466 90.5252C220.371 90.5094 220.278 90.4928 220.185 90.4756C219.958 90.4348 219.733 90.3912 219.513 90.3403C219.228 90.2738 218.951 90.1987 218.681 90.115H218.68L218.681 90.1433L218.703 90.6111H187.166V75.1999L187.162 75.2054C186.997 75.3795 182.423 80.1899 178.064 83.9173C177.785 84.1557 177.509 84.3888 177.234 84.6168C176.805 84.9715 176.382 85.312 175.967 85.6318C174.843 86.5051 173.468 86.9951 172.045 87.0297C171.947 87.032 171.85 87.032 171.753 87.0287C170.956 87.013 170.169 86.8531 169.429 86.5566C168.972 86.3737 168.478 86.1699 167.947 85.9451C162.994 83.8391 155.094 79.8488 148.63 73.6797L149.073 72.9943H149.074L152.924 67.0405L152.994 66.9295L153.186 66.6347C153.191 66.6368 153.196 66.6386 153.201 66.6401C153.591 66.7885 162.094 70.0396 167.337 72.6679C168.332 73.1662 169.21 73.6415 169.892 74.0701C169.894 74.0678 169.896 74.0653 169.897 74.0626C170.148 73.7089 179.075 61.1616 185.564 56.5199C186.767 55.6595 188.14 55.067 189.592 54.7826C191.325 54.4432 194.459 53.8939 198.285 53.5153C198.762 53.4675 199.25 53.423 199.747 53.3817C199.753 53.3805 199.76 53.3805 199.766 53.3795C199.845 53.373 199.923 53.3664 200.002 53.3609C200.385 53.3295 200.774 53.3005 201.169 53.274C203.118 53.1434 205.184 53.0705 207.292 53.0966C207.635 53.1009 207.978 53.1077 208.321 53.1172C208.391 53.1184 208.459 53.1205 208.529 53.1227C208.537 53.1227 208.544 53.1238 208.552 53.1238C208.594 53.125 208.638 53.126 208.68 53.1282C208.759 53.1303 208.837 53.1336 208.915 53.1368C209.107 53.1434 209.297 53.1517 209.488 53.1597C211.738 53.2535 213.98 53.4981 216.197 53.8918C216.767 53.9941 217.331 54.1091 217.889 54.2367C218.547 54.3868 219.188 54.6029 219.803 54.8817C221.154 55.499 222.361 56.3934 223.344 57.5068C225.926 60.42 230.041 65.9605 232.793 74.1074C233.581 76.4415 234.206 78.8274 234.663 81.2481C235.499 85.6542 232.541 89.8827 228.22 90.4418Z" fill="#2C34F1"/>
<path d="M201.109 53.8213C201.091 53.8625 201.072 53.905 201.054 53.9464C199.559 57.3016 198.531 60.8457 197.999 64.48C197.67 66.7319 197.53 69.0215 197.394 71.2329V71.235L197.072 76.4774L196.967 78.199L196.814 80.6945L196.409 87.3086L196.354 88.1974L196.206 90.6114H195.976L196.125 88.1974L196.182 87.2624L196.589 80.633L196.77 77.6914L196.852 76.3382L197.166 71.235L197.167 71.2188C197.303 69.0006 197.443 66.707 197.774 64.4468C198.306 60.8068 199.333 57.2566 200.826 53.8945C200.85 53.8389 200.875 53.7824 200.9 53.7269L201.109 53.8213Z" fill="white"/>
<path d="M203.937 54.1958C203.921 54.235 203.905 54.2752 203.888 54.3146C203.694 54.7833 203.505 55.2544 203.323 55.7278C201.407 60.6807 200.141 65.82 199.332 71.2569C199.321 71.3363 199.309 71.4167 199.297 71.4961C199.011 73.4566 198.78 75.4579 198.606 77.5001C198.51 78.5813 198.429 79.6757 198.363 80.7831C198.358 80.8626 198.353 80.943 198.348 81.0246C198.22 83.1677 198.141 85.3597 198.097 87.6073C198.093 87.8041 198.089 88.001 198.087 88.198C198.073 88.9953 198.064 89.8 198.06 90.6119H197.827C197.832 89.8167 197.84 89.0121 197.852 88.198C197.856 87.9891 197.859 87.7799 197.863 87.5703C197.905 85.438 197.983 83.2504 198.117 81.0366C198.128 80.8495 198.14 80.6623 198.151 80.4742C198.218 79.4408 198.298 78.4037 198.391 77.3629C198.46 76.5831 198.538 75.802 198.625 75.0196C198.761 73.7914 198.916 72.5893 199.089 71.4131C199.098 71.3538 199.107 71.2968 199.115 71.239C199.974 65.5083 201.288 60.3751 203.099 55.6742C203.275 55.2129 203.457 54.756 203.645 54.3034C203.671 54.2381 203.698 54.1728 203.726 54.1077L203.937 54.1958Z" fill="white"/>
<path d="M206.619 53.9748C206.609 54.012 206.601 54.0499 206.591 54.0869C206.543 54.2763 206.496 54.4665 206.449 54.657C204.428 62.8974 203.559 71.4056 202.955 79.8038C202.942 79.9768 202.93 80.1487 202.918 80.3206C202.802 81.9697 202.692 83.6138 202.59 85.2528C202.565 85.6455 202.54 86.0379 202.515 86.4299L202.485 86.8965L202.428 87.7854L202.411 88.066L202.25 90.6116H202.021L202.183 88.0507L202.191 87.9213L202.248 87.0326L202.258 86.8824C202.318 85.9219 202.38 84.9588 202.441 83.9931C202.534 82.569 202.631 81.1403 202.733 79.707C202.748 79.5101 202.761 79.3121 202.776 79.1133C203.371 71.0415 204.232 62.8768 206.145 54.9467C206.21 54.6768 206.276 54.4078 206.343 54.1394C206.362 54.0655 206.381 53.9913 206.399 53.9168L206.619 53.9748Z" fill="white"/>
<path d="M208.919 53.1226C208.918 53.1279 208.916 53.1324 208.914 53.1374C208.069 56.19 207.763 59.6874 207.51 63.1217C207.488 63.4199 207.467 63.7173 207.445 64.0138C207.376 64.9668 207.31 65.8653 207.235 66.7487C207.099 68.3219 206.964 69.8951 206.829 71.4683C206.609 74.0127 206.39 76.5572 206.173 79.1017C206.166 79.1647 206.161 79.2278 206.157 79.2909C206.152 79.3334 206.148 79.3748 206.146 79.416C206.103 79.8992 206.062 80.3818 206.021 80.864C205.969 81.4689 205.917 82.0734 205.865 82.6775C205.814 83.2682 205.763 83.8585 205.713 84.4485C205.662 85.0349 205.611 85.6209 205.562 86.2065C205.504 86.8668 205.447 87.5268 205.391 88.1863C205.322 88.9958 205.252 89.8044 205.183 90.6123H204.953C205.023 89.8018 205.092 88.9917 205.162 88.182C205.295 86.6361 205.428 85.0899 205.562 83.5435C205.612 82.957 205.662 82.371 205.713 81.7855C205.74 81.4579 205.768 81.1316 205.798 80.8042C205.819 80.5409 205.841 80.2765 205.865 80.0133C205.88 79.8295 205.896 79.6467 205.913 79.4629C205.915 79.4172 205.92 79.3703 205.925 79.3248C205.928 79.2654 205.934 79.206 205.94 79.1467C206.295 75.0074 206.65 70.8684 207.007 66.7298C207.082 65.8487 207.148 64.95 207.217 63.9983C207.487 60.2898 207.766 56.4561 208.679 53.1295C208.686 53.1067 208.691 53.085 208.698 53.062L208.919 53.1226Z" fill="white"/>
<path d="M228.22 90.4424C226.259 90.6958 224.13 90.8405 222.139 90.7095C221.802 90.6911 221.441 90.6607 221.059 90.6117C220.882 90.5898 220.7 90.5637 220.514 90.5333C220.498 90.5311 220.481 90.5278 220.466 90.5258C219.863 90.4259 219.267 90.2889 218.681 90.1155H218.68C218.68 90.1188 218.681 90.121 218.681 90.1243C218.703 90.2864 218.725 90.4496 218.746 90.6117H207.91C207.937 90.1982 207.961 89.7852 207.98 89.3726C207.982 89.3183 207.984 89.2648 207.986 89.2105C207.989 89.1626 207.991 89.1158 207.992 89.068C208.005 88.7732 208.015 88.4795 208.023 88.1869C208.089 85.7381 207.996 83.3612 207.673 81.2083C207.619 80.8438 207.557 80.4862 207.489 80.1357C207.433 79.843 207.379 79.5471 207.33 79.2501C207.324 79.2099 207.317 79.1697 207.311 79.1282C207.301 79.0689 207.291 79.0086 207.283 78.9488C206.919 76.4725 206.767 73.9697 206.829 71.4677C206.891 68.6746 207.118 65.8877 207.51 63.1216C207.967 59.7641 208.627 56.4375 209.488 53.1601C211.738 53.2539 213.979 53.4985 216.196 53.8922C216.766 53.9945 217.33 54.1095 217.888 54.2371C218.546 54.3872 219.188 54.6033 219.802 54.8822C221.154 55.4994 222.36 56.3938 223.343 57.5072C225.925 60.4204 230.04 65.9609 232.793 74.1078C233.58 76.4419 234.205 78.8279 234.663 81.2485C235.499 85.6548 232.541 89.8833 228.22 90.4424Z" fill="#6595F7"/>
<path d="M155.355 68.8214C155.355 68.8214 150.95 66.5906 147.332 57.9757C147.307 57.9149 147.264 57.8634 147.208 57.8284C147.152 57.7935 147.087 57.7767 147.022 57.7805C146.956 57.7843 146.893 57.8085 146.842 57.8497C146.791 57.8909 146.754 57.947 146.736 58.0103C146.326 59.4665 146.15 60.9787 146.214 62.4902C146.216 62.5239 146.208 62.5575 146.19 62.5864C146.173 62.6153 146.147 62.6381 146.116 62.6517C146.085 62.6654 146.051 62.6692 146.018 62.6626C145.984 62.6561 145.954 62.6395 145.931 62.6151C144.982 61.6279 142.158 58.6332 140.564 56.3454C140.522 56.2851 140.46 56.2414 140.389 56.2219C140.318 56.2023 140.243 56.2081 140.175 56.2383C140.108 56.2685 140.054 56.3211 140.022 56.3872C139.989 56.4532 139.981 56.5285 139.998 56.6C140.243 57.586 140.826 59.0379 142.192 60.8055C142.216 60.8356 142.227 60.8732 142.225 60.9114C142.223 60.9495 142.207 60.9855 142.18 61.0126C142.153 61.0396 142.117 61.0558 142.079 61.0581C142.041 61.0605 142.003 61.0487 141.973 61.0252C141.064 60.3046 139.788 59.2332 138.878 58.2296C138.828 58.1752 138.761 58.1398 138.688 58.1296C138.615 58.1194 138.541 58.1351 138.478 58.1738C138.416 58.2126 138.369 58.272 138.345 58.3419C138.322 58.4117 138.324 58.4875 138.35 58.5561C138.741 59.5525 139.519 60.9352 141.063 62.4433C141.09 62.4696 141.107 62.5049 141.11 62.5424C141.113 62.58 141.102 62.6174 141.08 62.6478C141.058 62.6782 141.025 62.6995 140.988 62.7079C140.952 62.7162 140.913 62.711 140.88 62.6932C140.11 62.2798 139.376 61.8014 138.688 61.2631C138.629 61.2167 138.557 61.1923 138.482 61.1943C138.408 61.1962 138.337 61.2244 138.281 61.2738C138.226 61.3231 138.189 61.3906 138.179 61.4642C138.168 61.5378 138.183 61.6128 138.223 61.676C138.975 62.8397 139.948 63.8456 141.085 64.6374C141.114 64.6579 141.136 64.6877 141.146 64.722C141.156 64.7563 141.154 64.793 141.14 64.8261C141.127 64.8591 141.102 64.8865 141.071 64.9037C141.04 64.921 141.004 64.9271 140.968 64.9209C140.477 64.8275 139.997 64.6769 139.541 64.472C139.476 64.4418 139.402 64.4348 139.332 64.4521C139.263 64.4694 139.201 64.5099 139.158 64.5671C139.114 64.6242 139.091 64.6945 139.093 64.7662C139.095 64.838 139.122 64.907 139.168 64.9617C140.784 66.8454 144.542 70.5024 152.187 74.8589L155.355 68.8214Z" fill="#F59060"/>
<path d="M146.231 68.2017C145.513 66.3039 146.513 63.8458 146.523 63.8212L146.593 63.6507L146.409 63.6431C146.332 63.6398 144.496 63.5946 142.834 66.2082L143.051 66.3466C144.326 64.343 145.716 63.9802 146.211 63.9149C145.982 64.5473 145.347 66.5933 145.989 68.2931L146.231 68.2017Z" fill="#090909"/>
<path d="M195.116 76.0269C195.434 77.0658 195.56 78.5572 195.544 80.3436C195.529 81.8393 195.417 83.5417 195.234 85.3607C195.224 85.4564 195.214 85.5521 195.204 85.6479C195.157 86.0949 195.107 86.5474 195.053 87.0055C195.006 87.3993 194.956 87.7968 194.904 88.1978C194.802 88.992 194.689 89.7991 194.569 90.6118H185.109L185.435 88.1978L186.488 80.3652L186.79 78.1276L187.166 75.3297L187.184 75.2001L187.179 75.2056C187.175 75.2103 187.17 75.2152 187.166 75.2204C186.848 75.5555 182.35 80.2702 178.066 83.9331C177.788 84.1706 177.511 84.404 177.236 84.6307C176.813 84.9799 176.394 85.3161 175.985 85.6326C174.856 86.5088 173.474 86.9987 172.045 87.0299C171.947 87.0322 171.85 87.0322 171.753 87.0289C170.962 87.011 170.181 86.8511 169.446 86.5568C168.983 86.3719 168.48 86.1651 167.943 85.9367C162.988 83.8273 155.102 79.8403 148.647 73.6799L149.086 73.0021L153.003 66.9438L153.005 66.9417V66.9405L153.2 66.6403L153.203 66.6349C153.203 66.6349 161.967 69.9702 167.337 72.6594C168.332 73.1576 169.212 73.6342 169.896 74.0628C169.901 74.0649 169.904 74.0681 169.908 74.0704C169.908 74.0704 178.998 61.2282 185.581 56.52C186.784 55.6596 188.157 55.0671 189.608 54.7827C191.341 54.4432 194.475 53.894 198.301 53.5154C198.301 53.5154 194.808 63.6389 194.613 71.2353C194.568 73.0298 194.705 74.6818 195.116 76.0269Z" fill="#6595F7"/>
<path d="M187.319 66.7335H187.015V75.1999H187.319V66.7335Z" fill="#090909"/>
<path d="M201.002 88.1979H181.421C179.847 88.1979 178.419 86.9189 178.232 85.3409L176.9 74.0933C176.713 72.5155 177.837 71.2363 179.412 71.2363H198.992C200.566 71.2363 201.994 72.5155 202.181 74.0933L203.513 85.3409C203.7 86.9189 202.576 88.1979 201.002 88.1979Z" fill="#090909"/>
<path d="M200.088 88.1979H180.508C178.934 88.1979 177.506 86.9189 177.319 85.3409L175.987 74.0933C175.8 72.5155 176.924 71.2363 178.499 71.2363H198.079C199.653 71.2363 201.081 72.5155 201.268 74.0933L202.6 85.3409C202.787 86.9189 201.663 88.1979 200.088 88.1979Z" fill="#6445F1"/>
<path d="M189.302 82.36C190.593 82.1059 191.407 80.717 191.119 79.2577C190.832 77.7984 189.553 76.8213 188.262 77.0753C186.971 77.3293 186.157 78.7183 186.444 80.1776C186.732 81.6369 188.011 82.614 189.302 82.36Z" fill="white"/>
<path d="M209.108 88.1621C207.906 88.1969 206.774 88.2065 205.713 88.1908C199.494 88.1073 195.666 87.2443 193.71 86.6325C193.642 86.6107 193.583 86.5661 193.543 86.5062C193.503 86.4463 193.485 86.3747 193.492 86.3031C193.499 86.2316 193.529 86.1644 193.579 86.1128C193.629 86.0611 193.695 86.0281 193.767 86.0191C194.263 85.9512 194.749 85.825 195.216 85.6433C195.249 85.6299 195.276 85.6056 195.294 85.5744C195.311 85.5432 195.318 85.507 195.312 85.4717C195.306 85.4364 195.288 85.4042 195.262 85.3803C195.235 85.3565 195.201 85.3424 195.165 85.3404C193.781 85.272 192.424 84.9339 191.169 84.3451C191.102 84.3123 191.049 84.257 191.019 84.189C190.99 84.1209 190.985 84.0445 191.005 83.9732C191.026 83.9019 191.072 83.8402 191.134 83.7991C191.196 83.758 191.27 83.7401 191.344 83.7485C192.213 83.8404 193.089 83.8577 193.962 83.8003C193.999 83.7977 194.034 83.7817 194.061 83.7551C194.088 83.7286 194.104 83.6933 194.107 83.6558C194.11 83.6182 194.099 83.5809 194.076 83.5508C194.054 83.5206 194.021 83.4995 193.984 83.4914C191.875 83.0303 190.484 82.2694 189.624 81.6317C189.565 81.5876 189.523 81.5243 189.506 81.4526C189.489 81.3809 189.497 81.3054 189.529 81.2392C189.562 81.173 189.617 81.1203 189.684 81.0903C189.752 81.0603 189.827 81.0548 189.898 81.0748C191.201 81.4445 192.852 81.6759 194.004 81.8068C194.042 81.8109 194.08 81.8009 194.112 81.7787C194.143 81.7565 194.165 81.7237 194.173 81.6864C194.182 81.6491 194.177 81.6099 194.158 81.5763C194.14 81.5427 194.11 81.5169 194.074 81.5039C191.978 80.7278 190.715 79.8056 189.985 79.0996C189.932 79.0479 189.9 78.9796 189.892 78.9064C189.885 78.8332 189.903 78.7597 189.944 78.6985C189.985 78.6374 190.046 78.5924 190.117 78.5715C190.187 78.5505 190.263 78.5548 190.33 78.5837C192.895 79.6794 196.876 80.7234 198.203 81.0582C198.236 81.0664 198.27 81.0643 198.302 81.0523C198.333 81.0404 198.36 81.019 198.379 80.9912C198.398 80.9634 198.408 80.9304 198.408 80.8966C198.408 80.8629 198.397 80.83 198.378 80.8025C197.522 79.5549 196.87 78.1792 196.447 76.727C196.428 76.6639 196.43 76.5966 196.451 76.5345C196.473 76.4723 196.513 76.4185 196.567 76.3805C196.621 76.3424 196.685 76.3221 196.75 76.3223C196.816 76.3225 196.88 76.3433 196.934 76.3816C200.546 78.9344 203.551 80.1785 205.713 80.7811C206.551 81.0206 207.408 81.1894 208.274 81.2857L209.108 88.1621Z" fill="#F59060"/>
<path d="M209.257 89.3883L205.713 88.8922V79.3534L208 79.0309L208.274 81.2862L209.108 88.1618L209.257 89.3883Z" fill="#6595F7"/>
<path d="M218.403 90.2687C213.491 90.2687 205.769 89.055 205.69 89.0425L205.561 89.0222V79.2364L205.675 79.2068C208.449 78.4767 222.434 78.3273 223.028 78.3213L223.031 78.6256C222.888 78.6271 208.864 78.7765 205.866 79.4732V88.7619C206.917 88.9233 214.151 90.0074 218.68 89.963L218.683 90.2674C218.591 90.2683 218.497 90.2687 218.403 90.2687Z" fill="#090909"/>
<path d="M215.986 66.6932L215.692 66.7739L218.921 78.5136L219.214 78.4329L215.986 66.6932Z" fill="#090909"/>
<path d="M204.339 54.3228C202.764 54.305 201.2 54.0568 199.697 53.5859L199.794 53.2974C199.847 53.3151 205.125 55.0487 208.472 53.0303L208.629 53.291C207.329 54.0745 205.779 54.3228 204.339 54.3228Z" fill="#090909"/>
<path d="M153.005 66.9421L148.371 72.5458L149.085 73.0024L153.005 66.9421Z" fill="#090909"/>
<path d="M178.337 74.0064C178.644 74.0064 178.892 73.758 178.892 73.4516C178.892 73.1452 178.644 72.8969 178.337 72.8969C178.031 72.8969 177.783 73.1452 177.783 73.4516C177.783 73.758 178.031 74.0064 178.337 74.0064Z" fill="#090909"/>
<path d="M180.131 74.0064C180.437 74.0064 180.686 73.758 180.686 73.4516C180.686 73.1452 180.437 72.8969 180.131 72.8969C179.825 72.8969 179.576 73.1452 179.576 73.4516C179.576 73.758 179.825 74.0064 180.131 74.0064Z" fill="#090909"/>
<path d="M198.597 45.1199C197.615 45.1199 196.816 44.0689 196.816 42.7769C196.816 41.485 197.615 40.4337 198.597 40.4337C199.579 40.4337 200.378 41.485 200.378 42.7769C200.378 44.0689 199.579 45.1199 198.597 45.1199ZM198.597 40.7601C197.795 40.7601 197.142 41.6654 197.142 42.7769C197.142 43.8884 197.795 44.7936 198.597 44.7936C199.399 44.7936 200.051 43.8882 200.051 42.7769C200.051 41.6656 199.399 40.7601 198.597 40.7601Z" fill="#2C34F1"/>
<path d="M202.864 45.1199C201.882 45.1199 201.083 44.0689 201.083 42.7769C201.083 41.485 201.881 40.4337 202.864 40.4337C203.846 40.4337 204.645 41.485 204.645 42.7769C204.645 44.0689 203.845 45.1199 202.864 45.1199ZM202.864 40.7601C202.062 40.7601 201.409 41.6654 201.409 42.7769C201.409 43.8884 202.061 44.7936 202.864 44.7936C203.666 44.7936 204.318 43.8882 204.318 42.7769C204.318 41.6656 203.665 40.7601 202.864 40.7601Z" fill="#2C34F1"/>
<path d="M200.27 42.9303L200.158 42.6236C200.185 42.6138 200.817 42.3878 201.319 42.6299L201.177 42.9239C200.8 42.743 200.275 42.9286 200.27 42.9303Z" fill="#2C34F1"/>
<path d="M209.102 42.7402H209.101L204.47 42.7001C204.449 42.7 204.427 42.6957 204.408 42.6874C204.388 42.6791 204.37 42.667 204.355 42.6518C204.34 42.6366 204.328 42.6185 204.32 42.5987C204.312 42.5788 204.308 42.5576 204.308 42.5361C204.308 42.5147 204.312 42.4935 204.32 42.4737C204.329 42.454 204.341 42.436 204.356 42.4209C204.371 42.4058 204.389 42.3939 204.409 42.3858C204.429 42.3777 204.45 42.3735 204.472 42.3736H204.473L209.104 42.4138C209.125 42.4139 209.146 42.4183 209.166 42.4266C209.186 42.4349 209.204 42.447 209.219 42.4622C209.234 42.4774 209.246 42.4955 209.254 42.5153C209.262 42.5352 209.266 42.5564 209.266 42.5778C209.266 42.5993 209.262 42.6205 209.253 42.6403C209.245 42.66 209.233 42.678 209.218 42.6931C209.203 42.7082 209.185 42.7201 209.165 42.7282C209.145 42.7363 209.124 42.7405 209.102 42.7404V42.7402Z" fill="#2C34F1"/>
<path d="M209.506 50.0858C209.122 50.0858 208.746 49.9719 208.427 49.7585C208.107 49.5451 207.859 49.2418 207.712 48.8869C207.565 48.532 207.526 48.1415 207.601 47.7648C207.676 47.388 207.861 47.0419 208.133 46.7703C208.404 46.4987 208.75 46.3137 209.127 46.2388C209.504 46.1639 209.894 46.2023 210.249 46.3493C210.604 46.4964 210.907 46.7453 211.121 47.0647C211.334 47.3841 211.448 47.7597 211.448 48.1438C211.447 48.6587 211.243 49.1523 210.879 49.5163C210.514 49.8804 210.021 50.0852 209.506 50.0858ZM209.506 46.528C209.186 46.528 208.874 46.6227 208.608 46.8002C208.343 46.9778 208.135 47.2301 208.013 47.5253C207.891 47.8206 207.859 48.1455 207.921 48.4589C207.983 48.7724 208.137 49.0603 208.363 49.2863C208.589 49.5123 208.877 49.6662 209.191 49.7285C209.504 49.7909 209.829 49.7589 210.124 49.6366C210.419 49.5143 210.672 49.3072 210.849 49.0415C211.027 48.7758 211.122 48.4634 211.122 48.1438C211.121 47.7154 210.951 47.3048 210.648 47.0019C210.345 46.699 209.934 46.5285 209.506 46.528Z" fill="#6595F7"/>
<path d="M209.186 46.7335C209.35 46.7335 209.484 46.6003 209.484 46.436C209.484 46.2717 209.35 46.1385 209.186 46.1385C209.022 46.1385 208.889 46.2717 208.889 46.436C208.889 46.6003 209.022 46.7335 209.186 46.7335Z" fill="#6595F7"/>
<path d="M160.628 39.1743C156.853 39.1743 153.162 38.0547 150.022 35.957C146.883 33.8593 144.436 30.8777 142.991 27.3893C141.546 23.901 141.168 20.0625 141.905 16.3593C142.641 12.656 144.46 9.25443 147.129 6.58457C149.799 3.9147 153.201 2.09651 156.904 1.35991C160.607 0.623316 164.446 1.00139 167.934 2.44634C171.423 3.89128 174.404 6.3382 176.502 9.47765C178.599 12.6171 179.719 16.3081 179.719 20.0839C179.713 25.1452 177.7 29.9977 174.121 33.5766C170.542 37.1555 165.69 39.1686 160.628 39.1743ZM160.628 1.61052C156.975 1.61052 153.403 2.69396 150.365 4.72384C147.327 6.75372 144.96 9.63886 143.561 13.0144C142.163 16.39 141.797 20.1044 142.51 23.6878C143.223 27.2713 144.982 30.5629 147.566 33.1465C150.149 35.73 153.441 37.4894 157.024 38.2022C160.608 38.915 164.322 38.5492 167.698 37.151C171.073 35.7528 173.959 33.385 175.988 30.3471C178.018 27.3092 179.102 23.7375 179.102 20.0839C179.096 15.1861 177.148 10.4906 173.685 7.02735C170.222 3.56413 165.526 1.61606 160.628 1.61052Z" fill="#6445F1"/>
<path d="M166.801 45.0385C177.174 45.0385 185.583 36.6295 185.583 26.2566C185.583 15.8836 177.174 7.47467 166.801 7.47467C156.428 7.47467 148.019 15.8836 148.019 26.2566C148.019 36.6295 156.428 45.0385 166.801 45.0385Z" fill="#2C34F1"/>
<path d="M168.703 15.027C166.342 17.8271 163.602 20.2838 160.562 22.326C160.346 26.9113 158.9 31.354 156.376 35.1881C160.465 33.0548 165.115 32.2435 169.684 32.8661C171.909 30.0471 174.895 27.9256 178.289 26.7535L168.703 15.027Z" fill="white"/>
<path d="M156.376 35.5999C156.292 35.5999 156.21 35.5743 156.141 35.5266C156.073 35.4788 156.02 35.4111 155.991 35.3326C155.961 35.2541 155.956 35.1684 155.977 35.0872C155.998 35.0059 156.043 34.9329 156.106 34.8778L166.011 26.2615C166.094 26.191 166.201 26.156 166.309 26.164C166.417 26.1721 166.518 26.2225 166.589 26.3043C166.66 26.3862 166.696 26.4928 166.689 26.6011C166.682 26.7094 166.633 26.8105 166.552 26.8824L156.646 35.4988C156.571 35.5641 156.475 35.6 156.376 35.5999Z" fill="#090909"/>
<path d="M166.722 27.7295C167.58 27.7295 168.276 27.0337 168.276 26.1753C168.276 25.3169 167.58 24.6211 166.722 24.6211C165.863 24.6211 165.168 25.3169 165.168 26.1753C165.168 27.0337 165.863 27.7295 166.722 27.7295Z" fill="#090909"/>
<path d="M178.29 27.1655C178.229 27.1656 178.169 27.1521 178.113 27.126C178.058 27.0999 178.01 27.0619 177.971 27.0146L168.385 15.288C168.318 15.2033 168.287 15.0957 168.298 14.9883C168.31 14.881 168.363 14.7825 168.447 14.7142C168.53 14.6458 168.638 14.613 168.745 14.623C168.853 14.6329 168.952 14.6846 169.022 14.7671L178.608 26.4935C178.658 26.5538 178.689 26.6268 178.698 26.7041C178.708 26.7815 178.695 26.8599 178.662 26.9303C178.628 27.0007 178.576 27.0601 178.51 27.1018C178.444 27.1434 178.368 27.1655 178.29 27.1655Z" fill="#090909"/>
</svg>
