<svg width="197" height="186" viewBox="0 0 197 186" fill="none" xmlns="http://www.w3.org/2000/svg">
<path d="M39.8678 30.0486C38.7672 20.1137 45.9545 11.1359 55.8894 10.0354C65.8243 8.93485 74.802 16.122 75.9025 26.0569C77.003 35.9918 69.8154 44.9697 59.8805 46.0697C49.9456 47.1697 40.9678 39.9836 39.8678 30.0486ZM40.4503 29.9842C41.5153 39.5977 50.203 46.5526 59.8165 45.4876C69.4301 44.4226 76.3845 35.7351 75.3199 26.1214C74.2553 16.5077 65.5669 9.55291 55.9533 10.6176C46.3398 11.6824 39.3849 20.3705 40.4497 29.9842H40.4503Z" fill="#6595F7"/>
<path d="M52.7041 52.3586C62.5539 52.3586 70.5387 44.3738 70.5387 34.524C70.5387 24.6742 62.5539 16.6894 52.7041 16.6894C42.8543 16.6894 34.8694 24.6742 34.8694 34.524C34.8694 44.3738 42.8543 52.3586 52.7041 52.3586Z" fill="#D0B3FF"/>
<path d="M49.735 24.1249C52.2556 26.5208 55.0985 28.553 58.1812 30.1626C58.8645 34.4675 60.6935 38.5093 63.4766 41.8639C59.3948 40.278 54.9212 39.9984 50.6738 41.0639C48.2798 38.6357 45.2392 36.9457 41.9131 36.1945C44.5206 32.1713 47.1279 28.1481 49.735 24.1249Z" fill="white"/>
<path d="M63.5199 42.2523C63.5991 42.2436 63.6736 42.2109 63.7337 42.1587C63.7937 42.1064 63.8364 42.037 63.8559 41.9599C63.8755 41.8827 63.8709 41.8014 63.843 41.7268C63.8151 41.6523 63.765 41.5881 63.6995 41.5428L53.45 34.4462C53.4078 34.417 53.3603 34.3964 53.3101 34.3855C53.26 34.3747 53.2082 34.3738 53.1577 34.383C53.1072 34.3922 53.059 34.4112 53.0158 34.439C52.9727 34.4668 52.9355 34.5028 52.9062 34.545C52.877 34.5872 52.8564 34.6348 52.8456 34.6849C52.8347 34.7351 52.8339 34.7869 52.843 34.8374C52.8522 34.8879 52.8712 34.9361 52.899 34.9792C52.9268 35.0224 52.9629 35.0596 53.0051 35.0888L63.2546 42.1852C63.332 42.239 63.4263 42.2628 63.5199 42.2523Z" fill="#090909"/>
<path d="M52.7702 35.9151C53.5853 35.9151 54.2461 35.2543 54.2461 34.4392C54.2461 33.624 53.5853 32.9633 52.7702 32.9633C51.9551 32.9633 51.2943 33.624 51.2943 34.4392C51.2943 35.2543 51.9551 35.9151 52.7702 35.9151Z" fill="#090909"/>
<path d="M41.9563 36.5827C42.0139 36.5764 42.0694 36.5574 42.1187 36.527C42.168 36.4966 42.2099 36.4555 42.2414 36.4069L50.0631 24.3374C50.1195 24.2504 50.139 24.1446 50.1174 24.0432C50.0958 23.9419 50.0347 23.8533 49.9478 23.7969C49.8608 23.7405 49.755 23.721 49.6536 23.7426C49.5522 23.7643 49.4636 23.8253 49.4072 23.9123L41.5856 35.9818C41.5455 36.0438 41.5238 36.1159 41.523 36.1898C41.5223 36.2637 41.5425 36.3362 41.5813 36.3991C41.6201 36.4619 41.6759 36.5125 41.7423 36.5449C41.8087 36.5773 41.8829 36.5902 41.9563 36.5822V36.5827Z" fill="#090909"/>
<path d="M68.596 107.53H33.497V142.629H68.596V107.53Z" fill="#090909"/>
<path d="M88.5793 127.513H53.4803V162.612H88.5793V127.513Z" fill="#090909"/>
<path d="M108.563 147.497H73.4636V182.596H108.563V147.497Z" fill="#090909"/>
<path d="M162.291 128.994H127.192V164.093H162.291V128.994Z" fill="#090909"/>
<path d="M181.318 107.53H146.219V142.629H181.318V107.53Z" fill="#090909"/>
<path d="M70.5563 105.896H35.4573V140.995H70.5563V105.896Z" fill="#D0B3FF"/>
<path d="M90.5396 125.88H55.4407V160.979H90.5396V125.88Z" fill="#FCB913"/>
<path d="M110.523 145.863H75.4239V180.962H110.523V145.863Z" fill="#6595F7"/>
<path d="M164.251 127.36H129.152V162.459H164.251V127.36Z" fill="#015566"/>
<path d="M183.278 105.896H148.179V140.995H183.278V105.896Z" fill="#FF4655"/>
<path d="M139.066 173.158L136.165 168.59L148.225 165.863L150.78 170.925L139.066 173.158Z" fill="#F59060"/>
<path d="M136.165 168.59L136.91 169.763L148.225 165.863L136.165 168.59Z" fill="#090909"/>
<path d="M145.011 184.207L145.748 185.326L165.363 180.913C165.178 180.51 164.945 180.131 164.669 179.785C164.13 179.115 163.465 178.559 162.712 178.146C161.958 177.734 161.13 177.475 160.276 177.383C159.768 177.335 159.264 177.246 158.77 177.117C153.664 175.795 150.858 170.507 150.858 170.507L139.066 173.159L145.011 184.207Z" fill="#6595F7"/>
<path d="M145.011 184.208L145.748 185.326L165.363 180.913C165.178 180.51 164.945 180.132 164.669 179.785L145.011 184.208Z" fill="#090909"/>
<path d="M148.964 172.109C150.914 174.548 155.854 180.088 158.77 177.117C153.664 175.794 150.858 170.506 150.858 170.506C150.858 170.506 149.651 169.021 148.775 169.88C148.479 170.172 148.381 170.595 148.461 171.045C148.537 171.436 148.71 171.802 148.964 172.109Z" fill="white"/>
<path d="M155.302 178.53C155.279 178.534 155.257 178.533 155.235 178.528C155.213 178.523 155.192 178.513 155.174 178.499C155.144 178.484 155.122 178.457 155.112 178.425C155.102 178.392 155.105 178.358 155.12 178.328C155.649 177.607 157.277 176.603 157.347 176.56C157.38 176.545 157.416 176.542 157.451 176.551C157.486 176.56 157.517 176.58 157.538 176.608C157.551 176.619 157.561 176.632 157.567 176.647C157.574 176.662 157.577 176.678 157.576 176.695C157.576 176.711 157.571 176.727 157.564 176.741C157.556 176.756 157.546 176.768 157.533 176.778C157.516 176.788 155.867 177.803 155.357 178.495C155.344 178.513 155.324 178.525 155.302 178.53Z" fill="#090909"/>
<path d="M151.883 176.763C151.858 176.767 151.833 176.766 151.809 176.759C151.785 176.753 151.762 176.741 151.743 176.725C151.728 176.717 151.715 176.705 151.705 176.692C151.695 176.678 151.687 176.663 151.683 176.646C151.678 176.63 151.677 176.613 151.68 176.596C151.682 176.579 151.688 176.562 151.697 176.548C152.465 175.651 154.939 175.226 155.043 175.208C155.081 175.204 155.119 175.212 155.152 175.231C155.184 175.25 155.211 175.278 155.227 175.312C155.236 175.326 155.241 175.341 155.242 175.357C155.243 175.373 155.24 175.389 155.233 175.404C155.226 175.419 155.216 175.431 155.203 175.441C155.19 175.45 155.175 175.457 155.159 175.459C155.134 175.463 152.66 175.889 151.935 176.733C151.921 176.749 151.903 176.759 151.883 176.763Z" fill="#090909"/>
<path d="M153.054 173.545C153.044 173.547 153.035 173.548 153.026 173.548C153.006 173.548 151 173.561 149.698 174.063C149.66 174.073 149.621 174.07 149.585 174.056C149.549 174.042 149.518 174.017 149.497 173.985C149.449 173.917 149.462 173.841 149.525 173.817C150.869 173.297 152.862 173.286 152.946 173.285C152.985 173.287 153.023 173.3 153.054 173.324C153.085 173.347 153.109 173.379 153.122 173.416C153.127 173.429 153.13 173.443 153.129 173.457C153.128 173.47 153.124 173.484 153.118 173.496C153.111 173.509 153.102 173.519 153.091 173.528C153.08 173.536 153.067 173.542 153.054 173.545Z" fill="#090909"/>
<path d="M147.863 171.782C147.83 171.786 147.796 171.782 147.765 171.77C147.734 171.758 147.707 171.738 147.686 171.712C147.628 171.646 147.626 171.564 147.683 171.529C148.266 171.171 150.917 170.788 151.029 170.772C151.069 170.77 151.109 170.78 151.144 170.801C151.178 170.821 151.206 170.852 151.222 170.889C151.232 170.903 151.237 170.919 151.238 170.936C151.239 170.953 151.236 170.97 151.229 170.985C151.222 171 151.211 171.014 151.198 171.024C151.184 171.034 151.169 171.04 151.152 171.043C151.125 171.047 148.441 171.434 147.894 171.77C147.884 171.776 147.874 171.78 147.863 171.782Z" fill="#090909"/>
<path d="M150.813 171.069C150.79 171.074 150.774 171.078 150.768 171.079L150.565 171.121L150.553 170.911C150.538 170.641 150.431 168.222 151.409 167.986C151.721 167.907 152.09 168.06 152.507 168.427C152.938 168.808 153.145 169.179 153.125 169.532C153.067 170.52 151.145 170.995 150.813 171.069ZM151.563 168.261L151.557 168.262C150.925 168.415 150.822 169.965 150.837 170.762C151.527 170.585 152.796 170.122 152.834 169.44C152.848 169.182 152.689 168.911 152.345 168.608C152.027 168.328 151.771 168.214 151.563 168.261H151.563Z" fill="#090909"/>
<path d="M152.891 172.487C152.877 172.49 152.861 172.493 152.845 172.495C152.148 172.585 150.753 171.231 150.594 171.075L150.413 170.896L150.622 170.863C150.786 170.837 152.25 170.624 152.917 171.212C153.028 171.307 153.115 171.428 153.169 171.564C153.223 171.701 153.243 171.848 153.227 171.994C153.205 172.276 153.093 172.442 152.891 172.487ZM150.968 171.105C151.532 171.628 152.369 172.277 152.731 172.231C152.778 172.225 152.919 172.206 152.941 171.902C152.955 171.807 152.945 171.71 152.912 171.62C152.88 171.529 152.826 171.449 152.755 171.384C152.37 171.046 151.474 171.055 150.968 171.105V171.105Z" fill="#090909"/>
<path d="M152.499 175.138C152.457 175.145 152.414 175.136 152.378 175.113C152.289 175.058 150.166 173.737 150.565 172.505C150.903 171.458 150.589 171.069 150.586 171.066C150.531 171.001 150.527 170.918 150.58 170.882C150.614 170.865 150.651 170.861 150.688 170.869C150.724 170.876 150.757 170.896 150.78 170.925C150.828 170.975 151.233 171.447 150.843 172.646C150.508 173.678 152.465 174.9 152.485 174.912C152.517 174.928 152.543 174.955 152.557 174.988C152.571 175.021 152.572 175.058 152.561 175.093C152.555 175.104 152.546 175.114 152.535 175.122C152.524 175.13 152.512 175.135 152.499 175.138Z" fill="#090909"/>
<path d="M86.3075 101.38L87.4602 106.479C88.6817 111.881 91.1843 116.909 94.7569 121.141L136.732 170.862L149.593 166.333L126.84 131.21L143.456 104.972C147.954 97.8687 141.61 88.8757 133.41 90.7299L86.3075 101.38ZM111.984 111.038L123.54 108.426L119.262 120.92L111.984 111.038Z" fill="#D0B3FF"/>
<path d="M90.3164 100.473L90.0056 100.544L90.2381 101.572L90.5489 101.502L90.3164 100.473Z" fill="#090909"/>
<path d="M136.678 165.833L136.92 165.625L138.259 167.187L138.017 167.394L136.678 165.833ZM134 162.71L134.242 162.503L135.581 164.064L135.339 164.271L134 162.71ZM131.322 159.587L131.564 159.38L132.903 160.941L132.661 161.148L131.322 159.587ZM128.644 156.464L128.886 156.257L130.225 157.818L129.983 158.025L128.644 156.464ZM125.966 153.341L126.208 153.134L127.547 154.695L127.305 154.903L125.966 153.341ZM123.288 150.218L123.53 150.011L124.869 151.573L124.627 151.78L123.288 150.218ZM120.61 147.096L120.852 146.888L122.191 148.45L121.949 148.657L120.61 147.096ZM117.932 143.973L118.174 143.765L119.513 145.327L119.271 145.534L117.932 143.973ZM115.255 140.85L115.496 140.642L116.835 142.204L116.594 142.411L115.255 140.85ZM112.577 137.727L112.818 137.52L114.157 139.081L113.916 139.288L112.577 137.727ZM109.899 134.604L110.14 134.397L111.479 135.958L111.238 136.165L109.899 134.604ZM107.221 131.481L107.462 131.274L108.801 132.835L108.559 133.043L107.221 131.481ZM104.543 128.358L104.784 128.151L106.123 129.713L105.882 129.92L104.543 128.358ZM101.865 125.235L102.106 125.028L103.445 126.59L103.204 126.797L101.865 125.235ZM99.1868 122.113L99.4284 121.905L100.767 123.467L100.526 123.674L99.1868 122.113ZM96.6675 118.841L96.9307 118.662C97.3131 119.223 97.7174 119.781 98.1322 120.32L97.88 120.514C97.4612 119.971 97.0531 119.408 96.6673 118.841H96.6675ZM94.546 115.298L94.8281 115.151C95.1426 115.753 95.4789 116.354 95.8281 116.937L95.5549 117.101C95.2023 116.512 94.8628 115.906 94.5458 115.298H94.546ZM92.8521 111.531L93.1496 111.417C93.3915 112.052 93.6554 112.688 93.9342 113.308L93.6439 113.439C93.3625 112.814 93.0962 112.172 92.8521 111.531ZM91.61 107.592L91.9187 107.514C92.0849 108.173 92.2728 108.836 92.4773 109.483L92.1736 109.579C91.9671 108.926 91.7775 108.257 91.61 107.592ZM90.6913 103.578L91.0019 103.508L91.4555 105.514L91.1449 105.585L90.6913 103.578Z" fill="#090909"/>
<path d="M139.6 168.748L139.358 168.955L140.044 169.756L140.286 169.548L139.6 168.748Z" fill="#090909"/>
<path d="M108.267 105.723L108.01 105.912L126.712 131.306L126.968 131.117L108.267 105.723Z" fill="#090909"/>
<path d="M122.076 124.9L122.536 123.451L122.839 123.547L122.379 124.996L122.076 124.9ZM123.173 121.443L123.81 119.435L124.114 119.531L123.476 121.54L123.173 121.443ZM124.448 117.427L125.085 115.419L125.389 115.515L124.751 117.524L124.448 117.427ZM125.722 113.411L126.36 111.403L126.663 111.499L126.026 113.507L125.722 113.411ZM126.997 109.395L127.627 107.412L127.634 107.388L127.938 107.482L127.301 109.491L126.997 109.395ZM125.887 104.323L125.962 104.013C126.325 104.102 126.666 104.264 126.965 104.489C127.263 104.714 127.513 104.997 127.7 105.321L127.424 105.48C127.259 105.193 127.038 104.943 126.774 104.744C126.51 104.545 126.208 104.402 125.887 104.323ZM109.432 107.465L111.487 107L111.557 107.31L109.502 107.775L109.432 107.465ZM113.542 106.535L115.597 106.071L115.667 106.381L113.612 106.846L113.542 106.535ZM117.652 105.606L119.707 105.141L119.777 105.452L117.722 105.917L117.652 105.606ZM121.761 104.677L123.816 104.212L123.887 104.523L121.832 104.987L121.761 104.677Z" fill="#090909"/>
<path d="M137.497 170.689L149.312 168.017L148.633 166.672L137.497 170.689Z" fill="#090909"/>
<path d="M43.3589 72.0468L41.2413 69.0138C41.1191 68.8444 40.9718 68.6945 40.8047 68.5692C39.7573 67.7837 35.7715 64.4686 32.7017 61.901C32.6088 61.8233 32.4905 61.7828 32.3695 61.7871C32.2485 61.7914 32.1334 61.8403 32.0463 61.9244C31.9591 62.0084 31.9062 62.1217 31.8975 62.2425C31.8888 62.3632 31.9251 62.4829 31.9993 62.5786C32.6862 63.4662 34.4684 64.9673 34.1565 65.8008C34.04 66.1118 33.6289 66.0175 33.2511 66.6062C33.1016 66.8773 32.9279 67.1343 32.732 67.3741C32.6631 67.4654 32.5851 67.5495 32.4993 67.6251C32.2485 67.8271 32.0106 67.8303 31.656 68.2113C31.2383 68.6606 31.4187 68.8172 30.9221 69.378C30.6388 69.6978 30.4993 69.738 30.2759 70.0869C30.1288 70.3168 29.9575 70.5898 29.9917 70.945C30.0063 71.1 30.0532 71.2502 30.1294 71.386C30.2056 71.5217 30.3094 71.64 30.4341 71.7332L34.4728 74.7615C34.9189 75.0959 36.1399 74.9627 36.3132 75.4924L38.6164 77.7853L43.3589 72.0468Z" fill="#F59060"/>
<path d="M39.1977 67.4243L39.0696 67.6984L38.0193 67.206L37.7754 67.0921L37.4605 66.9452L36.8797 66.6731C36.825 66.6461 36.7627 66.6386 36.7031 66.6518C36.6435 66.665 36.5902 66.6981 36.552 66.7457C36.5114 66.7914 36.4879 66.8499 36.4855 66.911C36.4831 66.9721 36.502 67.0322 36.5389 67.081L36.5954 67.1601L36.9348 67.6455L37.3003 68.1666L37.9023 69.0245L37.8813 69.096C37.8779 69.1071 37.5371 70.2373 37.9695 70.9887C38.0639 71.1477 38.1909 71.2848 38.3423 71.391C38.4936 71.4972 38.6658 71.57 38.8475 71.6045L38.7787 71.8974C38.5368 71.8456 38.3086 71.7436 38.1087 71.598C37.945 71.4733 37.8079 71.3172 37.7052 71.1389C37.2716 70.3818 37.4963 69.3615 37.5706 69.0807L37.1088 68.4226L36.7433 67.9015L36.2886 67.2551C36.2727 67.2317 36.2587 67.2071 36.2468 67.1815C36.1928 67.0742 36.1737 66.9526 36.1921 66.8339C36.2105 66.7152 36.2656 66.6052 36.3495 66.5192C36.4335 66.4333 36.5422 66.3757 36.6604 66.3545C36.7787 66.3333 36.9006 66.3495 37.0092 66.4009L37.6449 66.6993L38.2051 66.9604L38.4108 67.0563L39.1977 67.4243Z" fill="#090909"/>
<path d="M34.2734 65.6705L34.071 65.8954L37.5208 68.9993L37.7231 68.7744L34.2734 65.6705Z" fill="#090909"/>
<path d="M35.1411 72.6542L35.1528 72.3519C35.6227 72.3702 35.978 72.253 36.2101 72.0036C36.5317 71.6584 36.5394 71.1448 36.5324 70.9773L32.6312 67.4867L32.833 67.2613L36.8229 70.8313L36.8295 70.8884C36.8333 70.9209 36.9147 71.6892 36.4333 72.208C36.1384 72.5261 35.7039 72.6762 35.1411 72.6542Z" fill="#090909"/>
<path d="M33.7679 74.3612L33.7128 74.0637C34.8539 73.8519 34.9813 72.8563 34.9945 72.5777L30.8521 69.471L31.0336 69.229L35.2964 72.4255L35.2982 72.4987C35.2993 72.5151 35.3206 74.0729 33.7679 74.3612Z" fill="#090909"/>
<path d="M36.7493 71.0399L36.6093 70.7717C37.4999 70.3066 37.5843 69.0546 37.5851 69.042L37.8871 69.0599C37.8838 69.1179 37.7902 70.496 36.7493 71.0399Z" fill="#090909"/>
<path d="M160.617 54.2126C158.827 56.8082 155.617 60.679 150.035 65.4687L145.416 59.6893C145.416 59.6893 148.724 57.121 150.927 49.6657C151.031 49.3129 151.133 48.9498 151.231 48.5765C151.406 47.9125 151.57 47.2136 151.725 46.4798C151.74 46.4098 151.775 46.346 151.827 46.2973C151.879 46.2485 151.945 46.2173 152.016 46.2078C152.087 46.1983 152.159 46.2112 152.222 46.2445C152.285 46.2779 152.336 46.3301 152.368 46.3939C152.89 47.4433 153.298 48.5455 153.586 49.6817C153.696 50.1279 153.783 50.5798 153.845 51.0354C153.846 51.0434 153.848 51.0515 153.848 51.0597C153.853 51.0914 153.865 51.1214 153.885 51.1466C153.904 51.1718 153.931 51.1912 153.96 51.2028C153.99 51.2145 154.022 51.2179 154.054 51.2127C154.086 51.2075 154.115 51.1939 154.14 51.1734L160.617 54.2126Z" fill="#F59060"/>
<path d="M159.938 52.5681C160.442 52.3659 160.922 52.1062 161.366 51.794C161.43 51.7484 161.507 51.7258 161.585 51.73C161.663 51.7342 161.737 51.7649 161.795 51.8169C161.853 51.869 161.892 51.9394 161.904 52.0165C161.917 52.0935 161.903 52.1726 161.865 52.2406C161.691 52.5455 161.485 52.8901 161.241 53.2732C161.055 53.5645 160.848 53.8782 160.617 54.213L154.14 51.1733C154.154 51.1626 154.166 51.1493 154.175 51.1342C154.321 50.9082 154.519 50.599 154.752 50.2293C155.81 48.5542 157.595 45.6125 158.599 43.3473C158.632 43.2744 158.689 43.2152 158.76 43.1799C158.832 43.1445 158.913 43.1351 158.991 43.1533C159.069 43.1716 159.137 43.2163 159.186 43.2798C159.234 43.3433 159.259 43.4217 159.256 43.5014C159.198 44.6034 158.876 46.2687 157.785 48.4355C157.768 48.4722 157.764 48.514 157.775 48.5533C157.785 48.5926 157.81 48.6267 157.844 48.6495C157.877 48.6723 157.918 48.6822 157.959 48.6774C157.999 48.6725 158.036 48.6534 158.064 48.6233C158.883 47.6681 160.023 46.2638 160.784 45.0076C160.826 44.9391 160.89 44.8873 160.966 44.8613C161.042 44.8352 161.124 44.8367 161.199 44.8652C161.274 44.8938 161.337 44.9478 161.376 45.0177C161.415 45.0876 161.429 45.1691 161.414 45.2479C161.203 46.3889 160.659 48.0235 159.325 49.9478C159.302 49.9813 159.291 50.0223 159.295 50.0632C159.299 50.1041 159.318 50.1421 159.348 50.1701C159.378 50.1981 159.418 50.2142 159.459 50.2155C159.5 50.2168 159.54 50.2031 159.572 50.177C160.307 49.5774 160.99 48.9163 161.613 48.2009C161.665 48.1395 161.737 48.0986 161.817 48.0853C161.896 48.072 161.978 48.0873 162.047 48.1283C162.117 48.1694 162.169 48.2337 162.196 48.3098C162.223 48.3859 162.222 48.4689 162.193 48.5443C161.802 49.5541 161.081 50.8875 159.754 52.2896C159.727 52.3176 159.711 52.3539 159.707 52.3925C159.704 52.4311 159.713 52.4698 159.735 52.5022C159.756 52.5346 159.788 52.5587 159.825 52.5707C159.862 52.5827 159.901 52.5817 159.938 52.5681Z" fill="#F59060"/>
<path d="M154.386 62.3976C154.386 62.3976 152.773 64.5571 150.333 67.8015C150.251 67.9088 150.168 68.0196 150.085 68.1305C148.727 69.9327 147.133 72.0449 145.429 74.2963C145.347 74.4054 145.264 74.5148 145.18 74.6256C142.376 78.3244 139.293 82.3711 136.482 86.0061C136.405 86.1051 136.33 86.2038 136.254 86.3011C136.063 86.5473 135.874 86.7919 135.686 87.0348C135.625 87.1137 135.564 87.1928 135.503 87.2704C134.836 88.1289 134 88.841 133.046 89.3626C132.093 89.8841 131.042 90.2039 129.959 90.302C128.877 90.4001 127.786 90.2745 126.754 89.9329C125.722 89.5914 124.771 89.0412 123.961 88.3166C123.673 88.0599 123.378 87.7923 123.076 87.5138C119.696 84.3828 116.533 81.0262 113.607 77.467L119.103 95.8693C119.103 95.8693 118.174 97.1907 116.283 98.8864C116.225 98.9386 116.164 98.9908 116.103 99.0442C114.304 100.625 112.31 101.968 110.169 103.041C110.105 103.075 110.04 103.108 109.974 103.139C104.58 105.799 96.7477 107.521 86.3664 104.606L85.7425 102.175L85.6715 101.901L82.1807 88.2999L82.1154 88.0432L81.5727 85.9319C81.5727 85.9319 81.3638 86.4509 80.9668 87.3195C80.9358 87.3858 80.9037 87.4538 80.8708 87.525C79.9165 89.5832 78.0253 93.3188 75.4364 96.7927C75.3934 96.8513 75.3503 96.9102 75.3067 96.9673C74.7861 97.6562 74.2394 98.3346 73.6671 98.9861C73.3595 99.3375 73.0446 99.6792 72.7226 100.011C71.5083 101.263 69.9448 102.12 68.236 102.47C66.5272 102.82 64.7527 102.646 63.144 101.972C63.0751 101.943 63.0062 101.914 62.9382 101.882C62.1014 101.505 61.33 100.997 60.6531 100.377L60.5633 100.295C56.9074 96.9458 50.4522 90.7093 45.038 85.436C44.9807 85.3794 44.9219 85.3229 44.8649 85.2675C43.1126 83.5602 41.4748 81.9591 40.0837 80.5958C40.025 80.5395 39.9677 80.4827 39.9107 80.4273C37.3914 77.9589 35.7216 76.3146 35.7216 76.3146L43.0139 70.6056C43.0139 70.6056 45.9263 72.8055 49.6745 75.6638C49.7513 75.722 49.8286 75.7812 49.9073 75.841C55.3896 80.022 62.5377 85.5201 65.0321 87.6426L73.0497 71.672L73.9068 69.9651C74.5222 68.7404 75.3083 67.6092 76.2416 66.6053C76.2915 66.5509 76.343 66.4963 76.3948 66.4431C77.5976 65.1869 79.0169 64.1579 80.5848 63.4054C81.2897 63.066 82.0619 62.708 82.8926 62.3407C82.9305 62.3246 82.9682 62.3072 83.006 62.2913C83.0926 62.2539 83.1787 62.2151 83.2651 62.1778C85.8763 61.0305 88.5504 60.0322 91.2746 59.1874C91.4036 59.1483 91.534 59.1081 91.6633 59.07C94.8321 58.119 98.2338 57.3661 101.62 57.0826C102.523 57.0075 103.422 56.967 104.316 56.9611C104.338 56.9611 104.361 56.9611 104.383 56.9611C104.456 56.9611 104.528 56.9611 104.6 56.9625C107.97 57.0097 111.218 58.2358 113.778 60.4279C114.026 60.6388 114.284 60.8608 114.551 61.0898C115.504 61.9081 116.573 62.8341 117.696 63.8248C117.755 63.878 117.816 63.931 117.877 63.984C120.589 66.3806 123.602 69.1291 126.093 71.6261C126.205 71.7374 126.315 71.8487 126.424 71.9593C127.28 72.825 128.067 73.6562 128.75 74.4254L129.7 73.543L129.865 73.3899L134.857 68.7515L135.046 68.5767L144.385 59.9009L144.574 59.7248L147.927 56.6109L154.386 62.3976Z" fill="#6595F7"/>
<path d="M76.3952 66.442C76.343 66.4953 76.292 66.5499 76.242 66.6043C77.4587 68.4312 78.2417 70.5121 78.5312 72.6879C78.8207 74.8638 78.609 77.077 77.9124 79.1585C77.2157 81.24 76.0524 83.1347 74.5115 84.6979C72.9706 86.2611 71.0927 87.4514 69.0214 88.1778C66.9501 88.9043 64.7401 89.1476 62.5603 88.8893C60.3806 88.631 58.2887 87.8779 56.4445 86.6875C54.6004 85.4971 53.0527 83.9009 51.9198 82.0208C50.7868 80.1408 50.0986 78.0267 49.9077 75.84C49.8294 75.7806 49.7517 75.7209 49.6749 75.6627C49.8397 77.8951 50.5149 80.0599 51.6485 81.9901C52.7821 83.9203 54.3439 85.5644 56.2133 86.7957C58.0827 88.027 60.21 88.8125 62.431 89.0917C64.652 89.371 66.9075 89.1364 69.0235 88.4062C71.1395 87.676 73.0597 86.4696 74.6358 84.8801C76.2119 83.2905 77.402 81.3603 78.1142 79.2381C78.8265 77.116 79.0419 74.8586 78.7438 72.64C78.4458 70.4215 77.6423 68.301 76.3952 66.442Z" fill="white"/>
<path d="M129.867 73.3887L129.701 73.5419C131.814 74.9092 133.532 76.8072 134.682 79.0462C135.832 81.2852 136.374 83.7868 136.254 86.3011C136.33 86.2038 136.406 86.1053 136.483 86.0061C136.549 83.5131 135.975 81.0447 134.817 78.836C133.659 76.6274 131.955 74.7521 129.867 73.3887ZM118.643 71.3574C115.631 72.0376 112.912 73.6542 110.876 75.9753C108.84 78.2965 107.591 81.2029 107.309 84.2777C107.027 87.3525 107.726 90.4376 109.306 93.0904C110.886 95.7433 113.266 97.8276 116.103 99.0442C116.164 98.9904 116.225 98.9382 116.283 98.8864C112.848 97.4439 110.107 94.7263 108.634 91.3048C107.161 87.8833 107.072 84.0241 108.385 80.538C109.698 77.052 112.31 74.2105 115.674 72.6105C119.038 71.0106 122.892 70.7767 126.424 71.958C126.316 71.8474 126.205 71.7361 126.094 71.6248C123.676 70.8886 121.107 70.7965 118.643 71.3574Z" fill="white"/>
<path d="M94.3227 96.1572C90.8313 96.9434 87.7517 98.988 85.6719 101.901L85.7429 102.175C87.1246 100.193 88.9827 98.591 91.1461 97.5162C93.3095 96.4414 95.7087 95.9283 98.1225 96.0243C100.536 96.1203 102.887 96.8222 104.958 98.0654C107.03 99.3086 108.755 101.053 109.975 103.138C110.04 103.107 110.105 103.075 110.169 103.041C108.599 100.361 106.218 98.2501 103.369 97.0127C100.521 95.7754 97.3527 95.4757 94.3227 96.1572Z" fill="white"/>
<path d="M68.9518 95.3638C67.408 95.7146 66.0068 96.5253 64.9333 97.6889C63.8597 98.8525 63.1642 100.314 62.9385 101.881C63.0065 101.913 63.0755 101.942 63.1444 101.971C63.3224 100.651 63.8447 99.4002 64.6587 98.3453C65.4728 97.2904 66.5499 96.4681 67.7822 95.9611C69.0144 95.454 70.3583 95.2799 71.679 95.4564C72.9998 95.6328 74.2509 96.1535 75.3068 96.9663C75.3504 96.909 75.3935 96.8502 75.4366 96.7916C74.527 96.0918 73.4743 95.601 72.3535 95.3542C71.2327 95.1074 70.0712 95.1107 68.9518 95.3638Z" fill="white"/>
<path d="M96.782 81.4539C96.0175 81.6267 95.3214 82.0224 94.7817 82.5909C94.2421 83.1594 93.8831 83.8751 93.7502 84.6476C93.6174 85.4201 93.7165 86.2147 94.0352 86.9308C94.3539 87.647 94.8778 88.2525 95.5407 88.6709C96.2035 89.0892 96.9756 89.3017 97.7592 89.2813C98.5427 89.2609 99.3027 89.0086 99.9429 88.5563C100.583 88.104 101.075 87.472 101.356 86.7403C101.637 86.0085 101.694 85.2099 101.522 84.4454C101.289 83.4208 100.659 82.5306 99.7703 81.9698C98.8818 81.409 97.8071 81.2234 96.782 81.4539ZM98.4822 88.9732C97.7595 89.1366 97.0046 89.0821 96.3129 88.8165C95.6212 88.5508 95.0238 88.0861 94.5962 87.4809C94.1687 86.8758 93.9302 86.1574 93.9109 85.4167C93.8916 84.676 94.0924 83.9462 94.4879 83.3197C94.8834 82.6931 95.4558 82.1979 96.1327 81.8966C96.8097 81.5954 97.5608 81.5016 98.291 81.6273C99.0212 81.7529 99.6978 82.0922 100.235 82.6024C100.772 83.1125 101.147 83.7705 101.31 84.4933C101.528 85.4622 101.352 86.4779 100.822 87.3177C100.292 88.1575 99.4505 88.7528 98.4822 88.9732Z" fill="white"/>
<path d="M42.7793 77.8584C42.1223 78.0073 41.5141 78.3212 41.0122 78.7705C40.5103 79.2199 40.1313 79.7899 39.911 80.4265C39.9681 80.4818 40.0254 80.5386 40.0841 80.595C40.2768 79.9852 40.6225 79.4348 41.0883 78.9965C41.554 78.5582 42.1243 78.2464 42.7447 78.091C43.3651 77.9356 44.015 77.9417 44.6323 78.1087C45.2497 78.2757 45.8141 78.598 46.2715 79.045C46.729 79.492 47.0643 80.0487 47.2456 80.6621C47.4268 81.2754 47.448 81.925 47.307 82.5488C47.166 83.1726 46.8675 83.75 46.4401 84.2257C46.0127 84.7015 45.4705 85.0599 44.8653 85.2667C44.9222 85.322 44.9811 85.3786 45.0384 85.4352C45.9798 85.0841 46.7528 84.3885 47.2007 83.4891C47.6486 82.5896 47.7381 81.5536 47.451 80.5907C47.1639 79.6278 46.5217 78.8099 45.6543 78.3026C44.787 77.7954 43.7593 77.6366 42.7793 77.8584Z" fill="white"/>
<path d="M82.632 80.7015C81.9215 80.8616 81.2689 81.2146 80.746 81.7216C80.2231 82.2286 79.8502 82.87 79.6682 83.5752C79.4862 84.2804 79.5022 85.0222 79.7144 85.7189C79.9266 86.4156 80.3269 87.0403 80.8712 87.5243C80.9041 87.453 80.9364 87.385 80.9671 87.3187C80.2772 86.6838 79.8497 85.814 79.7683 84.88C79.687 83.946 79.9577 83.0153 80.5274 82.2707C81.0971 81.5261 81.9246 81.0214 82.8473 80.8557C83.7701 80.6899 84.7215 80.8752 85.5147 81.375C86.3079 81.8748 86.8856 82.6531 87.1344 83.557C87.3831 84.4609 87.285 85.4252 86.8592 86.2604C86.4334 87.0957 85.7107 87.7416 84.8331 88.0713C83.9554 88.4011 82.9862 88.3908 82.1158 88.0425L82.181 88.2991C82.8862 88.5529 83.6493 88.5992 84.3799 88.4324C85.4051 88.2006 86.2962 87.571 86.8572 86.6822C87.4182 85.7934 87.6032 84.7181 87.3714 83.6929C87.1396 82.6677 86.51 81.7766 85.6212 81.2156C84.7323 80.6546 83.6572 80.4697 82.632 80.7015Z" fill="white"/>
<path d="M91.6643 59.0691C91.535 59.1072 91.4046 59.1474 91.2756 59.1865C92.8552 59.5725 94.2695 60.4548 95.3109 61.7038C96.3522 62.9527 96.9657 64.5026 97.0613 66.126C97.1569 67.7493 96.7296 69.3605 95.8422 70.7231C94.9547 72.0856 93.6538 73.1278 92.1304 73.6966C90.607 74.2655 88.9413 74.3309 87.378 73.8834C85.8147 73.4359 84.436 72.499 83.4443 71.2103C82.4526 69.9215 81.9002 68.3488 81.8681 66.723C81.8361 65.0972 82.326 63.504 83.2661 62.1771C83.1797 62.2144 83.0936 62.2532 83.007 62.2907C82.9692 62.3066 82.9315 62.324 82.8936 62.34C82.0052 63.7203 81.574 65.3453 81.661 66.9845C81.748 68.6237 82.3489 70.1939 83.3784 71.4725C84.408 72.751 85.8139 73.6729 87.3968 74.1075C88.9797 74.5421 90.6593 74.4674 92.1973 73.8938C93.7354 73.3203 95.0538 72.277 95.9657 70.9121C96.8775 69.5472 97.3365 67.9298 97.2775 66.2893C97.2185 64.6489 96.6446 63.0686 95.6371 61.7727C94.6295 60.4768 93.2396 59.5309 91.6643 59.0693V59.0691Z" fill="white"/>
<path d="M144.21 74.6817C142.244 75.1237 140.183 74.7679 138.479 73.6924C136.775 72.6168 135.567 70.9094 135.12 68.9445C135.092 68.8216 135.068 68.6983 135.047 68.5753L134.858 68.7501C134.874 68.8312 134.89 68.912 134.908 68.9924C135.368 71.0134 136.61 72.7697 138.363 73.8759C140.116 74.9822 142.236 75.3481 144.258 74.8934C144.57 74.8224 144.879 74.7329 145.181 74.6254C145.264 74.5146 145.348 74.4052 145.43 74.2961C145.035 74.4589 144.627 74.5879 144.21 74.6817ZM144.575 59.7229L144.387 59.899C146.172 60.3481 147.734 61.4301 148.782 62.9439C149.83 64.4576 150.293 66.3003 150.085 68.1297C150.169 68.0189 150.252 67.9078 150.333 67.8008C150.456 65.9961 149.949 64.2047 148.899 62.7318C147.849 61.2589 146.321 60.1955 144.575 59.7229H144.575Z" fill="white"/>
<path d="M117.697 63.8237C117.414 64.9363 116.883 65.9705 116.144 66.8487C115.405 67.7268 114.476 68.4261 113.428 68.8939C112.379 69.3617 111.239 69.586 110.092 69.5499C108.944 69.5139 107.82 69.2183 106.803 68.6855C105.786 68.1527 104.903 67.3965 104.221 66.4736C103.538 65.5508 103.073 64.4852 102.861 63.357C102.65 62.2289 102.696 61.0673 102.997 59.9596C103.299 58.852 103.847 57.8269 104.601 56.9615C104.529 56.9598 104.457 56.9599 104.384 56.96C104.362 56.96 104.339 56.96 104.317 56.96C103.571 57.8587 103.036 58.9131 102.751 60.0459C102.466 61.1787 102.438 62.3609 102.67 63.5057C102.902 64.6505 103.388 65.7287 104.092 66.6611C104.795 67.5934 105.699 68.3562 106.736 68.8934C107.773 69.4305 108.918 69.7283 110.085 69.7649C111.253 69.8015 112.414 69.576 113.483 69.1049C114.551 68.6338 115.501 67.9291 116.262 67.0427C117.022 66.1562 117.575 65.1106 117.878 63.9826C117.817 63.93 117.756 63.877 117.697 63.8237Z" fill="white"/>
<path d="M88.4036 60.1391C88.4036 60.1391 89.6761 63.4237 94.9401 61.4705C94.9401 61.4705 98.8415 60.1558 96.9842 57.7191C96.9842 57.7191 89.1749 59.6349 88.4036 60.1391Z" fill="white"/>
<path d="M96.4428 48.0405C96.4602 48.0858 96.4753 48.1319 96.4905 48.1786C96.5735 48.4266 96.6485 48.6762 96.7124 48.9247C96.7254 48.9665 96.7361 49.0093 96.7468 49.0521C96.7811 49.185 96.811 49.3145 96.8371 49.4483C96.901 49.7472 96.9546 50.0487 96.9883 50.3435C97.2081 52.2184 96.7868 54.005 95.1271 55.2817L96.3988 58.2198C96.5241 58.5076 96.601 58.8142 96.6263 59.1271C96.6392 59.3028 96.5901 59.4775 96.4877 59.6209C95.5711 60.9122 93.5148 61.4391 91.0203 61.2134C90.4834 61.1668 89.9765 60.9455 89.5772 60.5836C89.1779 60.2216 88.9082 59.7388 88.8093 59.209L87.9918 54.7668L86.0625 55.0471C85.6835 55.1087 85.2949 55.0656 84.9385 54.9226C84.5822 54.7797 84.2716 54.5422 84.0402 54.2357C84.0109 54.1971 83.9835 54.157 83.9584 54.1155L83.6738 53.6606C83.5022 53.3866 83.3953 53.0771 83.3613 52.7555C83.3273 52.434 83.3671 52.1089 83.4776 51.8051C83.5881 51.5012 83.7664 51.2266 83.999 51.002C84.2316 50.7774 84.5123 50.6088 84.8199 50.509C84.8199 50.509 84.8107 50.4829 84.7979 50.4348C84.5553 49.6169 82.6108 42.5013 87.8235 41.1586C90.3688 40.4989 93.0416 41.6494 94.4202 43.8877C95.1418 45.0625 95.9253 46.5202 96.4428 48.0405Z" fill="#F59060"/>
<path d="M94.8747 51.5594C94.9141 51.5266 94.947 51.4867 94.972 51.442C95.3521 50.7663 93.978 48.7545 93.6987 48.3581C93.6888 48.3436 93.6763 48.3313 93.6616 48.3217C93.647 48.3122 93.6306 48.3057 93.6135 48.3025C93.5963 48.2994 93.5787 48.2997 93.5616 48.3035C93.5446 48.3072 93.5284 48.3144 93.5142 48.3244C93.4999 48.3345 93.4878 48.3473 93.4785 48.3621C93.4692 48.3769 93.463 48.3934 93.4602 48.4106C93.4573 48.4278 93.458 48.4454 93.462 48.4624C93.4661 48.4794 93.4735 48.4954 93.4838 48.5095C94.0935 49.375 94.9745 50.9016 94.7429 51.313C94.7279 51.3391 94.6826 51.4204 94.468 51.4058C94.4332 51.4035 94.3989 51.415 94.3726 51.438C94.3464 51.4609 94.3303 51.4933 94.3279 51.5281C94.3256 51.5629 94.3371 51.5972 94.3601 51.6235C94.383 51.6497 94.4155 51.6658 94.4502 51.6682C94.6005 51.6891 94.753 51.65 94.8747 51.5594Z" fill="#090909"/>
<path d="M92.0705 51.3995C92.7717 51.2396 93.268 50.7937 93.1791 50.4034C93.0901 50.0131 92.4496 49.8262 91.7484 49.986C91.0472 50.1459 90.5509 50.5918 90.6398 50.9821C90.7288 51.3724 91.3693 51.5593 92.0705 51.3995Z" fill="#FC6D6D"/>
<path d="M96.7122 48.9254C96.7253 48.9672 96.736 49.01 96.7467 49.0528C96.781 49.1857 96.8109 49.3152 96.837 49.449C96.9008 49.7479 96.9545 50.0494 96.9881 50.3441V50.3451C96.2572 50.5358 95.575 50.35 95.4838 49.9453C95.3954 49.5537 95.8905 49.1084 96.5916 48.9488C96.6315 48.9391 96.6707 48.9329 96.7122 48.9254Z" fill="#FC6D6D"/>
<path d="M95.1279 55.2821C95.1279 55.2821 93.867 56.1769 91.8412 55.4597C91.8412 55.4597 93.2813 56.8634 95.4475 56.0197L95.1279 55.2821Z" fill="#090909"/>
<path d="M90.4526 47.7901C90.6095 47.6649 90.7795 47.5569 90.9595 47.468C91.1364 47.3791 91.3238 47.3127 91.5172 47.2705C91.7028 47.2335 91.8935 47.2306 92.0801 47.2621C92.2603 47.2982 92.4314 47.3698 92.5837 47.4727L92.6012 47.4833C92.6251 47.4985 92.6518 47.5087 92.6797 47.5135C92.7076 47.5183 92.7362 47.5174 92.7638 47.511C92.7914 47.5046 92.8174 47.4928 92.8404 47.4762C92.8634 47.4596 92.8828 47.4386 92.8975 47.4144C92.9123 47.3902 92.9221 47.3633 92.9263 47.3353C92.9305 47.3073 92.9291 47.2787 92.9222 47.2512C92.9153 47.2237 92.9029 47.1979 92.8859 47.1753C92.8689 47.1526 92.8475 47.1336 92.8231 47.1193C92.8199 47.1174 92.8163 47.1153 92.8131 47.1136C92.6051 46.9918 92.3746 46.9133 92.1354 46.8827C91.9014 46.8585 91.6649 46.8777 91.4379 46.9392C91.2205 47.0016 91.012 47.0913 90.8172 47.2061C90.624 47.3181 90.4437 47.451 90.2795 47.6024C90.2549 47.6248 90.2399 47.656 90.2379 47.6892C90.2359 47.7225 90.247 47.7552 90.2689 47.7803C90.2907 47.8055 90.3215 47.8211 90.3547 47.8238C90.3879 47.8265 90.4209 47.8161 90.4465 47.7948L90.4526 47.7901Z" fill="#671E24"/>
<path d="M96.1916 46.4126C95.9981 46.3235 95.7951 46.2568 95.5865 46.2135C95.375 46.168 95.1584 46.1512 94.9425 46.1635C94.7169 46.18 94.4968 46.2409 94.2949 46.3429C94.0912 46.4517 93.9123 46.6015 93.7694 46.7829C93.7341 46.826 93.7171 46.8812 93.722 46.9367C93.7269 46.9922 93.7533 47.0435 93.7956 47.0798C93.8378 47.1161 93.8926 47.1344 93.9482 47.1308C94.0037 47.1272 94.0557 47.1021 94.093 47.0607L94.1 47.0521L94.114 47.0338C94.2112 46.8912 94.3364 46.77 94.4821 46.6776C94.6343 46.5872 94.8029 46.5276 94.9781 46.5024C95.1631 46.4791 95.3504 46.4806 95.5351 46.5068C95.723 46.5323 95.9076 46.5785 96.0854 46.6445L96.0922 46.6472C96.1233 46.6603 96.1585 46.6606 96.1898 46.6479C96.2212 46.6352 96.2462 46.6106 96.2594 46.5794C96.2726 46.5483 96.2729 46.5131 96.2601 46.4818C96.2474 46.4504 96.2228 46.4254 96.1916 46.4122V46.4126Z" fill="#671E24"/>
<path d="M92.1673 49.3527C92.357 49.2907 92.4342 49.0064 92.3398 48.7179C92.2454 48.4294 92.0151 48.2458 91.8254 48.3078C91.6358 48.3699 91.5586 48.6541 91.653 48.9426C91.7474 49.2312 91.9776 49.4148 92.1673 49.3527Z" fill="#090909"/>
<path d="M95.5353 48.531C95.6793 48.4838 95.7238 48.2246 95.6346 47.9519C95.5454 47.6792 95.3562 47.4963 95.2122 47.5434C95.0681 47.5906 95.0237 47.8499 95.1129 48.1226C95.2021 48.3953 95.3912 48.5781 95.5353 48.531Z" fill="#090909"/>
<path d="M85.1826 53.9072C84.7328 53.3372 84.5656 52.8313 84.6853 52.4031C84.8533 51.8027 85.544 51.5384 85.5509 51.5357L85.4521 51.2687C85.4182 51.2811 84.6204 51.5833 84.4115 52.3241C84.2648 52.8454 84.449 53.4373 84.959 54.0837L85.1826 53.9072Z" fill="#090909"/>
<path d="M84.8194 50.5101C85.2581 50.4814 85.6984 50.5345 86.1177 50.6667C86.8073 50.8876 86.9998 51.1961 87.2503 51.1702C87.6504 51.1285 88.1045 50.2418 88.3967 46.7223C89.1498 46.802 92.6382 47.0936 94.9586 44.8012C95.4759 44.291 95.8981 43.6928 96.2056 43.0346C97.3172 40.6011 96.3509 38.205 96.1425 37.6882C95.7127 36.635 95.0533 35.6909 94.2125 34.9246C91.6955 38.2594 88.4151 40.9417 84.6469 42.7463C84.2014 42.9313 82.7411 43.6048 82.0675 45.1682C81.2451 47.078 81.9329 49.5375 83.8557 51.1563L84.8194 50.5101Z" fill="#671E24"/>
<path d="M86.4368 54.9935L88.3753 56.8512L87.992 54.7662L86.4368 54.9935Z" fill="#671E24"/>
<path d="M94.7473 52.8061C94.3589 52.8955 93.6458 52.9561 92.5825 52.6548C92.5591 52.648 92.5342 52.6483 92.511 52.6557C92.4879 52.6632 92.4675 52.6775 92.4525 52.6967C92.4375 52.7159 92.4287 52.7392 92.4271 52.7635C92.4256 52.7878 92.4314 52.812 92.4437 52.833C92.7701 53.3863 93.6567 54.5038 94.8689 53.0011C94.8847 52.9815 94.894 52.9573 94.8956 52.9321C94.8971 52.9069 94.8907 52.8819 94.8774 52.8604C94.864 52.839 94.8443 52.8222 94.821 52.8125C94.7977 52.8028 94.772 52.8005 94.7473 52.8061Z" fill="#E52039"/>
<path d="M175.785 43.8655L169.818 56.5792C169.719 56.7892 169.58 56.9778 169.409 57.1341C169.237 57.2905 169.037 57.4115 168.819 57.4903C168.6 57.569 168.369 57.6041 168.137 57.5933C167.905 57.5826 167.678 57.5263 167.467 57.4276L160.617 54.2119L154.14 51.1733L153.845 51.0353C153.783 50.5797 153.696 50.1278 153.586 49.6816C153.298 48.5454 152.89 47.4432 152.368 46.3938C152.336 46.33 152.285 46.2778 152.222 46.2444C152.159 46.2111 152.087 46.1982 152.016 46.2077C151.945 46.2171 151.879 46.2484 151.827 46.2972C151.775 46.3459 151.74 46.4097 151.726 46.4797C151.571 47.2147 151.406 47.9136 151.231 48.5764C151.133 48.9501 151.032 49.3132 150.927 49.6656L147.175 47.9048C146.965 47.8063 146.776 47.6674 146.619 47.4959C146.463 47.3244 146.342 47.1237 146.263 46.9054C146.184 46.687 146.149 46.4553 146.16 46.2234C146.171 45.9915 146.227 45.7641 146.326 45.5541L152.293 32.839C152.492 32.4149 152.851 32.0873 153.292 31.9283C153.733 31.7692 154.219 31.7916 154.643 31.9905L174.936 41.5155C175.146 41.6139 175.335 41.7528 175.491 41.9243C175.648 42.0957 175.769 42.2963 175.848 42.5146C175.926 42.7329 175.961 42.9645 175.951 43.1963C175.94 43.4282 175.883 43.6556 175.785 43.8655Z" fill="#D0B3FF"/>
<path d="M174.136 44.0944L171.297 50.1435L170.928 50.9302L170.494 51.853L169.227 54.555L169.225 54.5584L168.94 55.1642C168.853 55.3499 168.731 55.5166 168.579 55.6548C168.428 55.793 168.251 55.9 168.058 55.9696C167.865 56.0393 167.661 56.0702 167.456 56.0606C167.251 56.051 167.05 56.001 166.865 55.9137L164.939 55.0095L164.289 54.7055L164.043 54.5891L163.942 54.5422L163.602 54.3818L163.059 54.1276L153.586 49.6815C153.48 49.2544 153.357 48.8448 153.227 48.4632V48.4617C153.098 48.0815 152.963 47.7263 152.83 47.4044C152.803 47.3392 152.775 47.2757 152.748 47.2152C152.614 46.9028 152.485 46.6265 152.368 46.3928C152.336 46.3293 152.285 46.2774 152.222 46.2443C152.159 46.2111 152.087 46.1984 152.016 46.2078C151.946 46.2172 151.88 46.2484 151.828 46.2969C151.776 46.3455 151.74 46.409 151.726 46.4787C151.712 46.5485 151.697 46.6188 151.681 46.6876C151.565 47.2358 151.439 47.7643 151.31 48.2728C151.284 48.3751 151.257 48.4759 151.231 48.5754L150.677 48.3143L148.724 47.3972C148.439 47.2632 148.202 47.0464 148.043 46.7753C148.007 46.7137 147.975 46.6495 147.948 46.5833C147.909 46.4905 147.88 46.3944 147.859 46.2961C147.808 46.0506 147.817 45.7962 147.887 45.5553C147.91 45.4753 147.939 45.3973 147.974 45.3221L148.799 43.5646V43.5633L149.156 42.8047L149.38 42.3268L152.71 35.2351L153.17 34.2528C153.197 34.1965 153.227 34.1417 153.259 34.0888C153.31 34.0088 153.367 33.9337 153.431 33.8645C153.656 33.6186 153.953 33.4509 154.279 33.3859C154.606 33.3209 154.944 33.362 155.246 33.5032L156.168 33.937L158.787 35.165L160.666 36.0471L161.268 36.3293L165.576 38.3516L166.036 38.5667L169.943 40.4009L170.321 40.5781L171.901 41.32L172.03 41.3812L172.548 41.6232L173.387 42.0178C173.573 42.105 173.74 42.2278 173.878 42.3794C174.016 42.5309 174.123 42.7081 174.192 42.901C174.262 43.0938 174.292 43.2985 174.283 43.5032C174.273 43.708 174.224 43.9089 174.136 44.0944Z" fill="white"/>
<path d="M110.463 66.4848L110.186 66.568L113.47 77.5075L113.747 77.4243L110.463 66.4848Z" fill="#090909"/>
<path d="M79.2773 75.1195L78.9951 75.1833L81.4324 85.9626L81.7147 85.8988L79.2773 75.1195Z" fill="#090909"/>
<path d="M73.6675 98.9853C73.3598 99.3367 73.045 99.6784 72.7229 100.01C71.1538 101.629 69.0157 102.573 66.7623 102.641C64.509 102.709 62.3177 101.897 60.6535 100.376L60.5637 100.294C61.2985 99.2928 62.2356 98.4576 63.3142 97.8422C64.3927 97.2268 65.5885 96.845 66.8241 96.7216C68.0597 96.5982 69.3075 96.7359 70.4864 97.1258C71.6653 97.5157 72.7491 98.1491 73.6675 98.9849V98.9853Z" fill="#D0B3FF"/>
<path d="M135.686 87.0349C135.625 87.1139 135.564 87.193 135.503 87.2705C134.836 88.129 134 88.8411 133.047 89.3627C132.093 89.8842 131.042 90.204 129.96 90.3021C128.877 90.4002 127.786 90.2746 126.754 89.933C125.722 89.5915 124.772 89.0413 123.961 88.3167C123.673 88.06 123.378 87.7924 123.077 87.5139C123.869 86.6474 124.825 85.947 125.89 85.4532C126.955 84.9594 128.108 84.6822 129.281 84.6376C130.454 84.5931 131.625 84.782 132.724 85.1936C133.824 85.6051 134.83 86.231 135.686 87.0349Z" fill="#D0B3FF"/>
<path d="M114.552 61.0886C113.466 61.7821 112.242 62.2305 110.965 62.4025C109.687 62.5745 108.388 62.466 107.157 62.0845C105.926 61.7031 104.794 61.0579 103.838 60.1939C102.882 59.3299 102.125 58.2679 101.622 57.0818C102.546 57.0047 103.468 56.9625 104.385 56.96C107.83 56.956 111.163 58.1858 113.78 60.4267C114.027 60.6377 114.285 60.8597 114.552 61.0886Z" fill="#D0B3FF"/>
<path d="M83.007 62.2902C83.0923 63.5944 82.8883 64.9015 82.4096 66.1177C81.9309 67.334 81.1894 68.4294 80.238 69.3257C79.2867 70.222 78.149 70.897 76.9064 71.3024C75.6638 71.7078 74.3469 71.8336 73.05 71.6708L73.9071 69.9639C75.346 67.0984 77.6949 64.7912 80.5858 63.4038C81.3232 63.0506 82.1342 62.6744 83.007 62.2902Z" fill="#D0B3FF"/>
<path d="M65.1309 87.5354L64.9341 87.7476L67.2873 89.9308L67.4841 89.7186L65.1309 87.5354Z" fill="#090909"/>
<path d="M128.845 74.3145L128.656 74.5333L132.153 77.557L132.342 77.3382L128.845 74.3145Z" fill="#090909"/>
<path d="M42.4654 63.8248L42.6387 66.8088L38.4115 67.0541L37.7759 67.091L37.461 66.9442L36.8802 66.672C36.8255 66.645 36.7632 66.6375 36.7036 66.6507C36.644 66.6639 36.5907 66.697 36.5525 66.7446C36.5119 66.7904 36.4884 66.8488 36.486 66.9099C36.4836 66.9711 36.5025 67.0311 36.5394 67.0799L36.5959 67.159L36.2477 67.1799L28.6205 67.6228L28.4464 64.6388L42.4654 63.8248Z" fill="#D0B3FF"/>
<path d="M28.447 64.6392L25.3043 66.3186L28.6203 67.6228L28.447 64.6392Z" fill="#D0B3FF"/>
<path d="M153.259 34.0906C153.278 36.9658 153.212 40.1835 153.049 43.586C152.988 44.8876 152.914 46.1637 152.83 47.405C152.666 47.0163 152.507 46.6741 152.368 46.3938C152.336 46.3301 152.285 46.2779 152.222 46.2445C152.159 46.2111 152.087 46.1983 152.017 46.2078C151.946 46.2172 151.88 46.2485 151.828 46.2972C151.776 46.346 151.74 46.4098 151.726 46.4797C151.572 47.2148 151.407 47.9137 151.232 48.5764L148.724 47.3989C148.504 47.2955 148.311 47.1421 148.161 46.9509C148.011 46.7598 147.908 46.5361 147.859 46.2979C147.868 46.0526 147.877 45.8057 147.888 45.5571C147.909 45.0152 147.933 44.468 147.959 43.9153C148.546 31.6063 150.161 21.5546 151.566 21.4624C152.583 21.397 153.211 26.5641 153.259 34.0906Z" fill="#FF4655"/>
<path d="M160.665 36.0486C160.524 36.7377 160.379 37.4331 160.229 38.135C159.795 40.178 159.352 42.1695 158.909 44.0883C158.314 46.6541 157.717 49.0899 157.132 51.345L156.885 51.2288L154.753 50.2291L153.586 49.6808C153.48 49.2537 153.357 48.8441 153.227 48.4625V48.461C153.8 45.2461 154.482 41.7435 155.262 38.0784C155.561 36.6713 155.863 35.2911 156.168 33.938C159.25 20.27 162.514 9.78724 163.761 9.80043C165.072 9.81583 163.687 21.3884 160.665 36.0486Z" fill="#FF4655"/>
<path d="M166.906 34.2533C166.462 35.6428 166.019 37.0094 165.575 38.3533C164.836 40.6062 164.1 42.7856 163.38 44.8681C162.38 47.7627 161.411 50.4678 160.496 52.9239L160.249 52.8077L157.132 51.3457L156.885 51.2296C157.487 49.0106 158.166 46.6172 158.909 44.0896C159.635 41.6188 160.424 39.0194 161.267 36.3322C161.562 35.3904 161.862 34.4382 162.17 33.4756C167.983 15.2905 173.756 0.723357 175.064 0.937949C176.371 1.15254 172.719 16.0695 166.906 34.2533Z" fill="#FF4655"/>
<path d="M170.33 40.5569C170.327 40.5649 170.323 40.5718 170.32 40.5799C168.104 45.7256 165.916 50.5002 163.943 54.542L161.241 53.2733L160.496 52.924L160.248 52.8079C161.171 50.3594 162.222 47.6874 163.38 44.8682C164.15 42.9895 164.969 41.0437 165.824 39.0552C165.894 38.8925 165.965 38.7298 166.035 38.5686C172.463 23.6901 178.622 12.0367 179.854 12.4465C181.097 12.861 176.834 25.446 170.33 40.5569Z" fill="#FF4655"/>
<path d="M173.359 48.0898C171.953 50.3688 170.561 52.5424 169.225 54.5579C168.946 54.9771 168.67 55.3901 168.397 55.7969C168.173 55.9468 167.915 56.0363 167.646 56.0567C167.378 56.0771 167.109 56.0276 166.865 55.9132L164.044 54.5886C165.487 52.0001 167.153 49.1609 168.976 46.203C170.006 44.5322 171.03 42.9188 172.029 41.3828C177.768 32.5599 182.718 26.308 183.749 26.7528C184.96 27.2742 180.308 36.826 173.359 48.0898Z" fill="#FF4655"/>
<path d="M156.629 40.76C157.978 38.5626 157.389 35.5562 157.273 35.1121C156.945 33.8475 156.321 32.551 156.42 31.2346C156.484 30.3923 156.975 29.6986 157.839 28.2709C158.874 26.5609 159.094 26.6594 159.359 25.8143C159.744 24.5873 159.752 22.8796 159.173 21.2805C158.702 19.9335 157.809 18.7747 156.627 17.9765C154.326 16.4003 151.816 17.1968 150.31 18.7901C149.86 19.2657 148.22 21.0019 148.39 23.78C148.566 26.6321 150.527 28.0459 150.194 30.4938C150.158 30.7651 150.132 30.7623 149.339 32.5746C147.606 36.5357 147.534 37.0014 147.534 37.4931C147.534 39.3752 148.59 40.8045 148.891 41.1849C149.277 41.6717 150.251 42.7441 151.713 43.0677C153.706 43.5087 155.665 42.329 156.629 40.76Z" fill="#015566"/>
<path d="M134.619 30.6595C135.328 33.8097 137.913 35.7986 138.293 36.0535C139.345 36.7599 140.573 37.2365 141.291 38.2472C141.735 38.8727 141.813 39.695 142.058 41.2298C142.338 42.9835 142.151 43.0788 142.436 43.7447C142.89 44.7768 143.724 45.5943 144.765 46.0269C145.678 46.3812 146.689 46.3861 147.606 46.0409C149.463 45.3908 150.523 43.4722 150.766 41.7053C150.84 41.1631 151.12 39.1241 149.937 37.531C148.624 35.7628 146.755 36.1698 145.759 34.1558C145.644 33.9234 145.662 33.9063 145.237 31.8819C144.214 27.0207 143.99 26.5145 143.693 26.035C142.906 24.7577 141.68 23.8116 140.244 23.3743C139.593 23.1832 138.02 22.8637 136.599 23.8442C134.637 25.1959 134.076 28.2499 134.619 30.6595Z" fill="#015566"/>
<path d="M151.309 48.2736C151.283 48.3759 151.257 48.4767 151.231 48.5762L150.677 48.3151C150.134 46.7004 149.507 45.115 148.799 43.5655V43.5642C146.997 39.6384 144.281 35.2475 140.513 32.9337L140.825 32.2521C144.597 34.5944 147.327 38.8961 149.155 42.8056C149.983 44.583 150.703 46.4091 151.309 48.2736Z" fill="#090909"/>
<path d="M153.494 30.4826C153.494 30.5348 153.479 31.8662 153.43 33.8661C153.344 37.3627 153.154 42.9033 152.748 47.2155C152.613 46.9032 152.484 46.6268 152.367 46.3932C152.336 46.3299 152.286 46.2779 152.224 46.2447C152.499 42.674 152.639 38.4235 152.709 35.2362C152.769 32.4962 152.778 30.5404 152.778 30.478L153.494 30.4826Z" fill="#090909"/>
<path d="M164.622 45.5421C164.898 42.9781 167.203 40.9596 167.565 40.6787C168.598 39.8785 169.885 39.2341 170.611 38.1319C171.076 37.427 171.112 36.5777 171.301 34.9194C171.527 32.9335 171.293 32.8769 171.6 32.0462C172.046 30.8399 173.084 29.4837 174.519 28.5721C175.715 27.7941 177.131 27.4232 178.554 27.5148C181.339 27.6745 182.838 29.8392 183.055 32.0207C183.12 32.6721 183.357 35.049 181.523 37.143C179.641 39.2928 177.225 39.2126 175.991 41.3527C175.854 41.5899 175.876 41.6035 175.396 43.5224C174.345 47.7163 174.118 48.1291 173.816 48.5182C172.665 50.0073 170.956 50.4927 170.484 50.6093C169.881 50.7584 168.455 51.0117 167.1 50.3743C165.254 49.5041 164.426 47.3727 164.622 45.5421Z" fill="#015566"/>
<path d="M188.215 51.0071C185.727 53.0662 182.466 53.0596 182.009 53.029C180.745 52.9446 179.481 52.5709 178.295 52.9317C177.561 53.1547 176.997 53.7584 175.865 54.8232C174.571 56.0397 174.661 56.229 174.028 56.5821C173.039 57.1216 171.879 57.2585 170.791 56.9645C169.852 56.6865 169.048 56.0719 168.534 55.2384C167.462 53.5886 167.796 51.4221 168.684 49.8756C168.957 49.4009 169.982 47.6165 171.892 47.0789C174.012 46.4824 175.242 47.9474 177.262 46.963C177.495 46.8493 177.491 46.8247 179.066 45.4831C182.847 42.2616 183.334 41.9979 183.862 41.8C185.266 41.2707 186.815 41.2719 188.218 41.8034C188.85 42.0503 190.291 42.7593 190.816 44.4036C191.541 46.6725 190.117 49.4323 188.215 51.0071Z" fill="#015566"/>
<path d="M173.956 39.7608C173.931 39.7932 173.39 40.4999 172.547 41.6252C170.359 44.5438 166.136 50.2793 163.602 54.3816L163.06 54.1275C165.571 49.998 169.7 44.2997 171.9 41.3225C172.787 40.1207 173.36 39.362 173.386 39.3265L173.956 39.7608Z" fill="#090909"/>
<path d="M182.33 48.4724L182.158 49.2034C178.28 48.7857 174.061 50.1487 170.494 51.8532C168.574 52.7794 166.718 53.8338 164.94 55.0092L164.29 54.7052C166.396 53.2692 168.616 52.0067 170.928 50.9303C174.44 49.3172 178.523 48.0827 182.33 48.4724Z" fill="#090909"/>
<path d="M151.231 48.576L150.677 48.315L151.681 46.6875C151.565 47.2357 151.439 47.7642 151.309 48.2728C151.284 48.3758 151.257 48.4769 151.231 48.576Z" fill="#FCB913"/>
<path d="M195.504 41.6379C194.922 43.8518 193.905 45.9276 192.512 47.7439L192.254 48.0782L192.197 48.1503L192.15 48.2085L192.054 48.3251L191.673 48.7909L190.911 49.7229L189.387 51.5849L187.863 53.4471L187.101 54.3789L186.306 55.333L185.508 56.2907L185.107 56.7685L184.699 57.2391L183.06 59.1153C180.846 61.5933 178.548 63.9898 176.168 66.3048C173.789 68.6169 171.337 70.8535 168.796 72.9812C166.258 75.1141 163.651 77.1548 160.974 79.1031C160.299 79.5834 159.633 80.0724 158.955 80.5446L156.911 81.9502L154.839 83.3154C154.496 83.5442 154.145 83.763 153.796 83.9829L152.746 84.6416C147.142 88.1324 141.294 91.2161 135.248 93.8687C129.222 96.5192 123.014 98.734 116.671 100.496C110.348 102.258 103.907 103.566 97.3978 104.409C90.9069 105.256 84.3635 105.636 77.8182 105.546C71.2915 105.461 64.7793 104.907 58.3323 103.887C55.1141 103.379 51.919 102.759 48.747 102.027C45.5785 101.293 42.4402 100.436 39.3371 99.4788C36.2344 98.5174 33.163 97.4629 30.1419 96.2798C27.1223 95.1024 24.1406 93.8095 21.2166 92.4443L12.4956 88.3638L8.13591 86.3233L7.59173 86.0682L7.31762 85.9401L7.02497 85.7942L6.73376 85.6479L6.44933 85.4853C6.35535 85.4309 6.26032 85.3782 6.16752 85.3221L5.8934 85.1452C4.43222 84.1967 3.20664 82.9275 2.30996 81.4339C1.86913 80.6932 1.51198 79.9058 1.24509 79.0862C0.712595 77.4523 0.554536 75.7195 0.78262 74.0162C1.01453 72.3278 1.62782 70.7144 2.57598 69.2983L2.93794 68.7803C3.06781 68.613 3.20344 68.4518 3.33514 68.2871C3.46358 68.12 3.61408 67.9718 3.75715 67.8178C3.89749 67.6609 4.04593 67.5115 4.20186 67.3701C4.80967 66.79 5.48403 66.284 6.21085 65.8626C6.57071 65.6496 6.94207 65.4567 7.32323 65.2847L7.90292 65.0469C8.09597 64.9686 8.29699 64.9132 8.4937 64.8451C8.59342 64.8136 8.69041 64.7768 8.79131 64.7511L9.09453 64.6752C9.29711 64.6263 9.49722 64.5663 9.70254 64.5361C9.90825 64.5016 10.1128 64.4612 10.3179 64.4296L10.9367 64.3654C11.763 64.3038 12.5935 64.3303 13.4142 64.4445L15.7946 64.8037L25.3137 66.2477L25.294 66.3901L15.7252 65.3376L13.3344 65.0765C12.5611 65.0008 11.7819 65.0074 11.0099 65.0964L10.4356 65.1802C10.2453 65.2174 10.0581 65.2625 9.86844 65.3025C9.67917 65.3379 9.49617 65.4016 9.30938 65.4542L9.03266 65.536C8.94129 65.5641 8.85174 65.6021 8.76115 65.6344C8.58128 65.7048 8.39737 65.7642 8.22246 65.8433L7.69694 66.0837C7.35397 66.256 7.02082 66.4473 6.69904 66.6565C6.05208 67.0673 5.45637 67.5536 4.92448 68.1054C4.78796 68.2387 4.65881 68.3793 4.53759 68.5267C4.41476 68.6716 4.28279 68.8098 4.17419 68.9663C4.0605 69.1196 3.94485 69.2703 3.83481 69.4245L3.52833 69.9062C2.54305 71.5171 2.03479 73.3744 2.06251 75.2625C2.09024 77.1506 2.65282 78.9922 3.68496 80.5735C4.49726 81.8112 5.58129 82.8472 6.8545 83.6026L7.09219 83.7416C7.17195 83.7858 7.25536 83.8264 7.33615 83.869L7.57999 83.9963L7.83126 84.1101L8.08214 84.2225L8.35755 84.3382L8.91322 84.5715L13.3522 86.4309L22.2319 90.151C25.1759 91.3811 28.1339 92.5237 31.1381 93.5547C34.1394 94.5924 37.1816 95.4977 40.2453 96.3122C43.309 97.1207 46.3976 97.8301 49.5078 98.4175C52.6186 99.0018 55.7448 99.4772 58.8865 99.8438C65.158 100.574 71.4739 100.852 77.7853 100.677C84.079 100.506 90.3524 99.8833 96.5571 98.8148C102.744 97.7561 108.848 96.2552 114.82 94.3236C120.777 92.404 126.588 90.0594 132.208 87.3078C137.815 84.5697 143.218 81.432 148.375 77.919L149.337 77.2595C149.657 77.0386 149.979 76.8205 150.293 76.5907L152.189 75.2292L154.055 73.8294C154.674 73.3595 155.281 72.8743 155.894 72.3975C158.331 70.4667 160.696 68.4544 162.991 66.3604C165.286 64.2719 167.492 62.0865 169.624 59.8376C171.754 57.5862 173.804 55.2648 175.775 52.8735L177.229 51.0642L177.591 50.6116L177.945 50.1503L178.65 49.2298L179.36 48.3054L180.083 47.3439L181.529 45.4206L182.976 43.4973L183.699 42.5357L184.061 42.0549L184.151 41.9336L184.197 41.8744C184.214 41.8513 184.224 41.8371 184.23 41.8266L184.33 41.6779C184.86 40.9203 185.231 40.0641 185.424 39.1601C185.616 38.2561 185.625 37.3227 185.45 36.4152C185.286 35.5186 184.942 34.6644 184.439 33.9041C184.195 33.533 183.916 33.1862 183.607 32.8683C183.297 32.5564 182.957 32.2765 182.591 32.0329C182.223 31.7841 181.831 31.5726 181.421 31.4017C180.215 30.8869 178.882 30.7498 177.596 31.0084C176.756 31.1725 175.956 31.503 175.245 31.9805C174.548 32.4464 173.95 33.046 173.486 33.7446C173.428 33.8303 173.377 33.9218 173.32 34.009L173.165 34.2831L172.591 35.3253L171.429 37.4335L169.94 40.4031L163.06 54.1273L153.586 49.6815C153.48 49.2544 153.357 48.8448 153.227 48.4632V48.4617C153.098 48.0815 152.963 47.7263 152.83 47.4044C152.803 47.3392 152.775 47.2757 152.748 47.2152C152.614 46.9028 152.485 46.6265 152.368 46.3928C152.333 46.3216 152.274 46.265 152.201 46.2329C152.129 46.2008 152.047 46.1952 151.971 46.2171L158.786 35.1658L161.08 31.4474L162.328 29.3881L162.959 28.3479C163.116 28.096 163.271 27.8443 163.435 27.5982C163.604 27.3537 163.771 27.1083 163.948 26.8694C165.361 24.9642 167.136 23.3573 169.172 22.1413C171.208 20.9252 173.465 20.1241 175.812 19.784C178.132 19.4476 180.495 19.5728 182.767 20.1525C185.038 20.7321 187.172 21.7547 189.047 23.1616C189.982 23.8592 190.844 24.6487 191.621 25.5183C192.391 26.3874 193.075 27.3299 193.662 28.3321C196.015 32.3481 196.677 37.1337 195.504 41.6379Z" fill="#FCB913"/>
<path d="M177.671 53.1914C177.671 53.1914 172.208 53.1732 169.227 54.5548C168.397 54.9383 167.759 55.4294 167.485 56.0613C167.27 56.0554 167.059 56.0051 166.865 55.9135L164.94 55.0093L164.29 54.7053L164.044 54.5889L163.943 54.542L163.602 54.3816L163.06 54.1275L153.586 49.6817C153.48 49.2546 153.357 48.845 153.227 48.4634V48.4619C153.098 48.0817 152.963 47.7265 152.83 47.4046C152.803 47.3394 152.775 47.2759 152.748 47.2154C152.614 46.903 152.485 46.6267 152.368 46.393C152.336 46.3295 152.285 46.2776 152.222 46.2445C152.159 46.2113 152.087 46.1986 152.016 46.208C151.946 46.2174 151.88 46.2486 151.828 46.2971C151.776 46.3457 151.74 46.4092 151.726 46.4789C151.712 46.5487 151.697 46.619 151.681 46.6878C151.565 47.236 151.439 47.7645 151.31 48.2731C151.284 48.3753 151.257 48.4762 151.231 48.5756L150.677 48.3146L148.724 47.3975C148.439 47.2634 148.202 47.0466 148.043 46.7755L148.055 46.7178C148.055 46.7178 148.018 46.6713 147.948 46.5835C147.112 45.5455 141.558 38.8071 137.706 38.1121C137.706 38.1121 141.176 35.6155 149.38 42.3275C150.866 43.5562 152.285 44.8645 153.63 46.2468C153.63 46.2468 160.658 40.8247 163.189 50.8055C163.189 50.8055 167.282 49.7351 171.297 50.1425C173.776 50.396 176.228 51.2127 177.671 53.1914Z" fill="#6595F7"/>
<path d="M147.928 56.6095L154.58 61.2806L153.893 61.9557L147.928 56.6095Z" fill="#090909"/>
<path d="M36.5138 75.6934L36.2023 75.3232L42.586 70.9396L36.5138 75.6934Z" fill="#090909"/>
</svg>
