<svg width="218" height="148" viewBox="0 0 218 148" fill="none" xmlns="http://www.w3.org/2000/svg">
<path d="M108.22 78.8761C111.786 72.5034 109.474 64.925 107.83 57.9569C106.224 51.1572 105.325 44.2093 105.147 37.2244C105.064 33.9158 105.201 30.4198 107.152 27.603C109.061 24.8464 112.402 23.1778 115.638 21.7016C128.321 15.9158 143.363 11.2185 156.527 16.0769C165.684 19.4562 172.457 27.4894 173.548 36.2655C174.639 45.0416 170.003 54.2004 161.899 59.2828C157.412 62.0961 151.99 63.7356 148.052 67.1391C141.577 72.7368 140.938 82.8439 146.667 89.0537C150.907 93.6495 157.536 95.7814 163.285 98.807C172.088 103.439 179.216 110.554 183.387 118.87C185.798 123.676 187.113 129.606 183.811 133.971C178.388 141.14 165.676 138.511 157.816 133.441C149.957 128.37 142.288 121.296 132.594 121.686C126.661 121.924 121.43 125.005 116.284 127.646C106.427 132.681 95.9487 136.391 85.1207 138.68C76.7968 140.449 68.0372 141.39 59.7062 139.648C51.3752 137.906 43.5059 133.109 40.2828 126.046C35.978 116.615 41.1989 105.166 50.4654 99.2063C65.9028 89.2784 98.2782 96.6459 108.22 78.8761Z" fill="#F5F3E3" fill-opacity="0.4"/>
<path d="M85.1513 60.1542C84.4745 68.3445 81.1416 76.6815 74.2336 82.1246C65.3236 89.1454 52.4457 90.1238 40.5495 90.3442C30.4348 90.5315 23.0327 90.1252 16.1392 87.1863C9.49685 84.3545 7.78912 81.4889 7.30295 80.5781C4.46105 75.2525 6.70797 68.0269 11.5239 64.6553C13.3353 63.3872 17.0005 62.8852 24.2565 61.9332C32.2224 60.8879 35.5044 60.9888 41.0289 59.1682C46.9646 57.2122 48.0808 55.4794 48.4237 54.8554C49.8415 52.2752 48.287 50.0016 46.9219 45.5666C45.7668 41.8138 42.9734 32.7392 46.8937 25.7999C47.6727 24.421 50.3004 20.3237 55.3152 18.723C65.3983 15.5044 76.3546 25.1812 77.1202 25.875C89.4554 37.0533 85.6024 54.6957 85.1513 60.1542Z" fill="#F5F3E3" fill-opacity="0.4"/>
<path d="M184.696 140.641H23.2452C21.3231 140.641 19.765 142.199 19.765 144.121C19.765 146.043 21.3231 147.601 23.2452 147.601H184.696C186.618 147.601 188.176 146.043 188.176 144.121C188.176 142.199 186.618 140.641 184.696 140.641Z" fill="#004751"/>
<path d="M147.394 110.361L139.429 113.726L139.136 113.847L125.622 119.556V140.723H79.381L78.7248 124.156L78.7128 123.844L78.5434 119.556L76.26 118.589L75.9163 118.44L71.1264 116.411H71.1234L70.3946 116.1L68.432 115.268L67.6459 114.936L61.9737 112.532L61.6138 112.378L56.9903 110.418L56.5368 110.225L56.57 110.161L61.0682 101.244L61.3826 100.621L64.4942 94.455L64.6333 94.1774L66.7078 90.0654L66.8559 89.7745L67.7994 87.9028C68.1047 87.2979 68.4353 86.7102 68.791 86.1398C68.8423 86.0522 68.8968 85.9705 68.9514 85.8859C71.4768 81.9336 75.1835 78.7857 79.595 76.8289C79.7129 76.7775 79.8308 76.7231 79.952 76.6747C80.7787 76.3218 81.6236 76.0129 82.483 75.7492C87.1392 74.31 91.9194 73.3078 96.7617 72.7557C101.149 72.2506 105.578 72.2172 109.973 72.6558C113.442 73.0074 116.864 73.7208 120.185 74.7845C123.682 75.9059 126.881 77.8015 129.544 80.3303C129.631 80.412 129.719 80.4966 129.804 80.5815C130.836 81.5941 131.774 82.6984 132.607 83.8806C132.667 83.9683 132.728 84.0525 132.785 84.1407C133.392 85.0292 133.937 85.9588 134.415 86.9227L135.107 88.1715L135.262 88.4527L139.277 95.704L139.973 96.9619L143.955 104.15L144.11 104.431L146.375 108.522L146.529 108.8L147.394 110.361Z" fill="#FCE9BA"/>
<path d="M129.804 80.5818C129.455 80.6749 129.095 80.7207 128.733 80.7178C126.853 80.7178 125.909 79.6172 124.996 78.5494C124.089 77.4881 123.233 76.4842 121.491 76.4842C119.749 76.4842 118.891 77.4881 117.984 78.5494C117.07 79.617 116.127 80.7178 114.246 80.7178C112.365 80.7178 111.422 79.6172 110.508 78.5494C109.601 77.4881 108.743 76.4842 107.004 76.4842C105.262 76.4842 104.403 77.4881 103.496 78.5494C102.583 79.617 101.639 80.7178 99.7586 80.7178C97.878 80.7178 96.9343 79.6172 96.021 78.5494C95.1109 77.4881 94.2551 76.4842 92.5133 76.4842C90.7716 76.4842 89.9129 77.4881 89.0057 78.5494C88.0925 79.617 87.149 80.7178 85.2682 80.7178C83.3874 80.7178 82.4437 79.6172 81.5305 78.5494C80.947 77.8692 80.3844 77.2099 79.5954 76.8289C79.7133 76.7774 79.8312 76.7231 79.9524 76.6747C80.6841 77.095 81.2283 77.7301 81.7606 78.353C82.6708 79.4143 83.5265 80.4156 85.2683 80.4156C87.0102 80.4156 87.8688 79.4147 88.7759 78.353C89.6893 77.2856 90.6327 76.1818 92.5135 76.1818C94.3943 76.1818 95.3378 77.2856 96.251 78.353C97.1582 79.4143 98.0169 80.4156 99.7588 80.4156C101.501 80.4156 102.356 79.4147 103.267 78.353C104.177 77.2856 105.123 76.1818 107.004 76.1818C108.881 76.1818 109.825 77.2856 110.738 78.353C111.646 79.4143 112.504 80.4156 114.246 80.4156C115.988 80.4156 116.844 79.4147 117.754 78.353C118.667 77.2856 119.611 76.1818 121.491 76.1818C123.372 76.1818 124.316 77.2856 125.226 78.353C126.136 79.4143 126.992 80.4156 128.733 80.4156C129.006 80.4183 129.278 80.3899 129.544 80.3309C129.632 80.4125 129.72 80.4971 129.804 80.5818Z" fill="white"/>
<path d="M132.786 84.1409C132.68 84.2589 132.577 84.3797 132.471 84.5007C131.561 85.5682 130.615 86.6691 128.734 86.6691C126.853 86.6691 125.91 85.5685 124.996 84.5007C124.089 83.4394 123.233 82.4354 121.492 82.4354C119.75 82.4354 118.891 83.4394 117.984 84.5007C117.071 85.5682 116.127 86.6691 114.246 86.6691C112.366 86.6691 111.422 85.5685 110.509 84.5007C109.602 83.4394 108.743 82.4354 107.004 82.4354C105.262 82.4354 104.404 83.4394 103.496 84.5007C102.583 85.5682 101.64 86.6691 99.759 86.6691C97.8784 86.6691 96.9347 85.5685 96.0214 84.5007C95.1113 83.4394 94.2555 82.4354 92.5137 82.4354C90.772 82.4354 89.9133 83.4394 89.0061 84.5007C88.0929 85.5682 87.1494 86.6691 85.2686 86.6691C83.3878 86.6691 82.4441 85.5685 81.5309 84.5007C80.6237 83.4394 79.7651 82.4354 78.0234 82.4354C76.2846 82.4354 75.4257 83.4394 74.5186 84.5007C73.6053 85.5682 72.6618 86.6691 70.7812 86.6691C70.0814 86.6832 69.3918 86.4999 68.7914 86.1402C68.8427 86.0525 68.8972 85.9708 68.9518 85.8862C69.505 86.2135 70.1385 86.38 70.7812 86.3669C72.5227 86.3669 73.3786 85.366 74.2889 84.3043C75.199 83.2369 76.1425 82.1332 78.0234 82.1332C79.9043 82.1332 80.8476 83.2369 81.7608 84.3043C82.671 85.3657 83.5267 86.3669 85.2686 86.3669C87.0104 86.3669 87.869 85.366 88.7762 84.3043C89.6896 83.2369 90.6329 82.1332 92.5137 82.1332C94.3945 82.1332 95.338 83.2369 96.2513 84.3043C97.1584 85.3657 98.0172 86.3669 99.759 86.3669C101.501 86.3669 102.356 85.366 103.267 84.3043C104.177 83.2369 105.123 82.1332 107.004 82.1332C108.882 82.1332 109.825 83.2369 110.739 84.3043C111.646 85.3657 112.505 86.3669 114.246 86.3669C115.988 86.3669 116.844 85.366 117.754 84.3043C118.667 83.2369 119.611 82.1332 121.492 82.1332C123.372 82.1332 124.316 83.2369 125.226 84.3043C126.136 85.3657 126.992 86.3669 128.734 86.3669C130.475 86.3669 131.334 85.366 132.241 84.3043C132.362 84.1622 132.483 84.0201 132.607 83.8812C132.668 83.9685 132.728 84.0533 132.786 84.1409Z" fill="white"/>
<path d="M135.262 88.453C133.983 88.6828 133.248 89.5476 132.471 90.4517C131.561 91.5162 130.615 92.6201 128.734 92.6201C126.853 92.6201 125.91 91.5165 124.996 90.4517C124.089 89.3904 123.233 88.3865 121.492 88.3865C119.75 88.3865 118.891 89.3904 117.984 90.4517C117.071 91.5162 116.127 92.6201 114.246 92.6201C112.366 92.6201 111.422 91.5165 110.509 90.4517C109.602 89.3904 108.743 88.3865 107.004 88.3865C105.262 88.3865 104.404 89.3904 103.496 90.4517C102.583 91.5162 101.64 92.6201 99.759 92.6201C97.8784 92.6201 96.9347 91.5165 96.0214 90.4517C95.1113 89.3904 94.2555 88.3865 92.5137 88.3865C90.772 88.3865 89.9133 89.3904 89.0061 90.4517C88.0929 91.5162 87.1494 92.6201 85.2686 92.6201C83.3878 92.6201 82.4441 91.5165 81.5309 90.4517C80.6238 89.3904 79.7651 88.3865 78.0234 88.3865C76.2846 88.3865 75.4257 89.3904 74.5186 90.4517C73.6053 91.5162 72.6618 92.6201 70.7812 92.6201C68.9005 92.6201 67.9569 91.5165 67.0436 90.4517C66.9318 90.3217 66.8198 90.1916 66.7081 90.0647L66.8561 89.7738C66.9983 89.9312 67.1338 90.0945 67.2734 90.2547C68.1806 91.316 69.0395 92.3173 70.7812 92.3173C72.5229 92.3173 73.3786 91.3164 74.2889 90.2547C75.199 89.1872 76.1425 88.0836 78.0234 88.0836C79.9044 88.0836 80.8476 89.1872 81.7608 90.2547C82.671 91.316 83.5267 92.3173 85.2686 92.3173C87.0104 92.3173 87.8691 91.3164 88.7762 90.2547C89.6896 89.1872 90.6329 88.0836 92.5137 88.0836C94.3946 88.0836 95.3381 89.1872 96.2513 90.2547C97.1584 91.316 98.0172 92.3173 99.759 92.3173C101.501 92.3173 102.356 91.3164 103.267 90.2547C104.177 89.1872 105.123 88.0836 107.004 88.0836C108.882 88.0836 109.825 89.1872 110.739 90.2547C111.646 91.316 112.505 92.3173 114.246 92.3173C115.988 92.3173 116.844 91.3164 117.754 90.2547C118.667 89.1872 119.611 88.0836 121.492 88.0836C123.372 88.0836 124.316 89.1872 125.226 90.2547C126.136 91.316 126.992 92.3173 128.734 92.3173C130.475 92.3173 131.334 91.3164 132.241 90.2547C133 89.3657 133.784 88.4524 135.108 88.1712L135.262 88.453Z" fill="white"/>
<path d="M139.973 96.962C139.807 96.7768 139.647 96.59 139.487 96.4025C138.579 95.3412 137.721 94.3373 135.979 94.3373C134.237 94.3373 133.381 95.3412 132.471 96.4025C131.561 97.4699 130.615 98.5709 128.734 98.5709C126.853 98.5709 125.91 97.4702 124.996 96.4025C124.089 95.3412 123.233 94.3373 121.492 94.3373C119.75 94.3373 118.891 95.3412 117.984 96.4025C117.071 97.4699 116.127 98.5709 114.246 98.5709C112.366 98.5709 111.422 97.4702 110.509 96.4025C109.602 95.3412 108.743 94.3373 107.004 94.3373C105.262 94.3373 104.404 95.3412 103.496 96.4025C102.583 97.4699 101.64 98.5709 99.759 98.5709C97.8784 98.5709 96.9347 97.4702 96.0214 96.4025C95.1113 95.3412 94.2555 94.3373 92.5137 94.3373C90.772 94.3373 89.9133 95.3412 89.0061 96.4025C88.0929 97.4699 87.1494 98.5709 85.2686 98.5709C83.3878 98.5709 82.4441 97.4702 81.5309 96.4025C80.6238 95.3412 79.7651 94.3373 78.0234 94.3373C76.2846 94.3373 75.4257 95.3412 74.5186 96.4025C73.6053 97.4699 72.6618 98.5709 70.7812 98.5709C68.9005 98.5709 67.9569 97.4702 67.0436 96.4025C66.3209 95.5563 65.6289 94.7454 64.4945 94.4552L64.6335 94.1776C65.8219 94.5101 66.5568 95.3689 67.2734 96.2066C68.1806 97.2679 69.0395 98.2692 70.7812 98.2692C72.5229 98.2692 73.3786 97.2683 74.2889 96.2066C75.199 95.1391 76.1425 94.0354 78.0234 94.0354C79.9044 94.0354 80.8476 95.1391 81.7608 96.2066C82.671 97.2679 83.5267 98.2692 85.2686 98.2692C87.0104 98.2692 87.8691 97.2683 88.7762 96.2066C89.6896 95.1391 90.6329 94.0354 92.5137 94.0354C94.3945 94.0354 95.338 95.1391 96.2513 96.2066C97.1584 97.2679 98.0172 98.2692 99.759 98.2692C101.501 98.2692 102.356 97.2683 103.267 96.2066C104.177 95.1391 105.123 94.0354 107.004 94.0354C108.882 94.0354 109.825 95.1391 110.739 96.2066C111.646 97.2679 112.505 98.2692 114.246 98.2692C115.988 98.2692 116.844 97.2683 117.754 96.2066C118.667 95.1391 119.611 94.0354 121.492 94.0354C123.372 94.0354 124.316 95.1391 125.226 96.2066C126.136 97.2679 126.992 98.2692 128.734 98.2692C130.475 98.2692 131.334 97.2683 132.241 96.2066C133.155 95.1391 134.098 94.0354 135.979 94.0354C137.564 94.0354 138.486 94.8186 139.278 95.7046L139.973 96.962Z" fill="white"/>
<path d="M144.11 104.431C143.819 104.492 143.522 104.523 143.224 104.522C141.344 104.522 140.4 103.418 139.487 102.353C138.58 101.292 137.721 100.288 135.979 100.288C134.237 100.288 133.382 101.292 132.471 102.353C131.561 103.418 130.615 104.522 128.734 104.522C126.853 104.522 125.91 103.418 124.996 102.353C124.089 101.292 123.233 100.288 121.492 100.288C119.75 100.288 118.891 101.292 117.984 102.353C117.071 103.418 116.127 104.522 114.247 104.522C112.366 104.522 111.422 103.418 110.509 102.353C109.602 101.292 108.743 100.288 107.004 100.288C105.263 100.288 104.404 101.292 103.497 102.353C102.583 103.418 101.64 104.522 99.7592 104.522C97.8785 104.522 96.9349 103.418 96.0215 102.353C95.1114 101.292 94.2556 100.288 92.5139 100.288C90.7722 100.288 89.9134 101.292 89.0063 102.353C88.093 103.418 87.1495 104.522 85.2687 104.522C83.3879 104.522 82.4443 103.418 81.531 102.353C80.6239 101.292 79.7653 100.288 78.0236 100.288C76.2848 100.288 75.4259 101.292 74.5187 102.353C73.6055 103.418 72.662 104.522 70.7813 104.522C68.9006 104.522 67.957 103.418 67.0438 102.353C66.1366 101.292 65.2777 100.288 63.536 100.288C62.6202 100.271 61.7343 100.615 61.0686 101.244L61.383 100.621C62.0181 100.192 62.7701 99.9707 63.536 99.9861C65.4168 99.9861 66.3603 101.09 67.2736 102.157C68.1807 103.219 69.0396 104.22 70.7813 104.22C72.523 104.22 73.3787 103.219 74.2891 102.157C75.1991 101.09 76.1426 99.9861 78.0236 99.9861C79.9045 99.9861 80.8477 101.09 81.761 102.157C82.6712 103.219 83.5269 104.22 85.2687 104.22C87.0106 104.22 87.8692 103.219 88.7763 102.157C89.6897 101.09 90.6331 99.9861 92.5139 99.9861C94.3947 99.9861 95.3382 101.09 96.2514 102.157C97.1586 103.219 98.0173 104.22 99.7592 104.22C101.501 104.22 102.357 103.219 103.267 102.157C104.177 101.09 105.123 99.9861 107.004 99.9861C108.882 99.9861 109.826 101.09 110.739 102.157C111.646 103.219 112.505 104.22 114.247 104.22C115.988 104.22 116.844 103.219 117.754 102.157C118.667 101.09 119.611 99.9861 121.492 99.9861C123.373 99.9861 124.316 101.09 125.226 102.157C126.136 103.219 126.992 104.22 128.734 104.22C130.475 104.22 131.334 103.219 132.242 102.157C133.155 101.09 134.098 99.9861 135.979 99.9861C137.86 99.9861 138.807 101.09 139.717 102.157C140.627 103.219 141.483 104.22 143.224 104.22C143.47 104.221 143.715 104.198 143.956 104.15L144.11 104.431Z" fill="white"/>
<path d="M146.529 108.801C145.734 109.687 144.812 110.473 143.224 110.473C141.343 110.473 140.4 109.372 139.486 108.304C138.579 107.243 137.721 106.239 135.979 106.239C134.237 106.239 133.381 107.243 132.471 108.304C131.561 109.372 130.614 110.473 128.733 110.473C126.853 110.473 125.909 109.372 124.996 108.304C124.089 107.243 123.233 106.239 121.491 106.239C119.75 106.239 118.891 107.243 117.984 108.304C117.07 109.372 116.127 110.473 114.246 110.473C112.365 110.473 111.422 109.372 110.509 108.304C109.601 107.243 108.743 106.239 107.004 106.239C105.262 106.239 104.403 107.243 103.496 108.304C102.583 109.372 101.639 110.473 99.7588 110.473C97.8781 110.473 96.9345 109.372 96.0211 108.304C95.111 107.243 94.2552 106.239 92.5135 106.239C90.7718 106.239 89.913 107.243 89.0059 108.304C88.0926 109.372 87.1491 110.473 85.2683 110.473C83.3875 110.473 82.4439 109.372 81.5306 108.304C80.6235 107.243 79.7649 106.239 78.0232 106.239C76.2844 106.239 75.4255 107.243 74.5183 108.304C73.6051 109.372 72.6616 110.473 70.7809 110.473C68.9002 110.473 67.9566 109.372 67.0434 108.304C66.1362 107.243 65.2773 106.239 63.5356 106.239C61.7939 106.239 60.9351 107.243 60.0279 108.304C59.2356 109.23 58.4193 110.182 56.989 110.418L56.5355 110.225L56.5686 110.161C58.1259 110.061 58.9393 109.112 59.7982 108.108C60.7114 107.04 61.6547 105.937 63.5356 105.937C65.4166 105.937 66.3599 107.04 67.2732 108.108C68.1803 109.169 69.0392 110.17 70.7809 110.17C72.5226 110.17 73.3783 109.17 74.2887 108.108C75.1987 107.04 76.1422 105.937 78.0232 105.937C79.9041 105.937 80.8473 107.04 81.7606 108.108C82.6708 109.169 83.5265 110.17 85.2683 110.17C87.0102 110.17 87.8688 109.17 88.7759 108.108C89.6893 107.04 90.6327 105.937 92.5135 105.937C94.3943 105.937 95.3378 107.04 96.251 108.108C97.1582 109.169 98.0169 110.17 99.7588 110.17C101.501 110.17 102.356 109.17 103.267 108.108C104.177 107.04 105.123 105.937 107.004 105.937C108.881 105.937 109.825 107.04 110.738 108.108C111.646 109.169 112.504 110.17 114.246 110.17C115.988 110.17 116.844 109.17 117.754 108.108C118.667 107.04 119.611 105.937 121.491 105.937C123.372 105.937 124.316 107.04 125.226 108.108C126.136 109.169 126.992 110.17 128.733 110.17C130.475 110.17 131.334 109.17 132.241 108.108C133.154 107.04 134.098 105.937 135.979 105.937C137.86 105.937 138.806 107.04 139.716 108.108C140.626 109.169 141.482 110.17 143.224 110.17C144.736 110.17 145.583 109.417 146.375 108.522L146.529 108.801Z" fill="white"/>
<path d="M139.429 113.726L139.136 113.847C138.341 112.949 137.494 112.19 135.979 112.19C134.237 112.19 133.381 113.194 132.471 114.255C131.561 115.32 130.615 116.424 128.734 116.424C126.853 116.424 125.91 115.32 124.996 114.255C124.089 113.194 123.233 112.19 121.492 112.19C119.75 112.19 118.891 113.194 117.984 114.255C117.071 115.32 116.127 116.424 114.246 116.424C112.366 116.424 111.422 115.32 110.509 114.255C109.602 113.194 108.743 112.19 107.004 112.19C105.262 112.19 104.404 113.194 103.496 114.255C102.583 115.32 101.64 116.424 99.759 116.424C97.8784 116.424 96.9347 115.32 96.0214 114.255C95.1113 113.194 94.2555 112.19 92.5137 112.19C90.772 112.19 89.9133 113.194 89.0061 114.255C88.0929 115.32 87.1494 116.424 85.2686 116.424C83.3878 116.424 82.4441 115.32 81.5309 114.255C80.6238 113.194 79.7651 112.19 78.0234 112.19C76.2846 112.19 75.4257 113.194 74.5186 114.255C73.663 115.253 72.7799 116.284 71.1259 116.411H71.1228C71.014 116.421 70.8991 116.424 70.7812 116.424C69.3055 116.424 68.4044 115.743 67.6453 114.936C67.4367 114.715 67.2402 114.485 67.0436 114.255C66.1365 113.194 65.2776 112.19 63.5359 112.19C62.9953 112.181 62.4601 112.298 61.9727 112.532L61.6128 112.378C62.1984 112.045 62.8626 111.876 63.5359 111.888C65.4167 111.888 66.3602 112.991 67.2734 114.059C67.6234 114.495 68.0109 114.9 68.4315 115.268C68.9799 115.748 69.6678 116.04 70.394 116.1C70.5225 116.115 70.6518 116.122 70.7812 116.121C72.5227 116.121 73.3786 115.12 74.2889 114.059C75.199 112.991 76.1425 111.887 78.0234 111.887C79.9044 111.887 80.8476 112.991 81.7608 114.059C82.671 115.12 83.5267 116.121 85.2686 116.121C87.0104 116.121 87.8691 115.12 88.7762 114.059C89.6896 112.991 90.6329 111.887 92.5137 111.887C94.3946 111.887 95.3381 112.991 96.2513 114.059C97.1584 115.12 98.0172 116.121 99.759 116.121C101.501 116.121 102.356 115.12 103.267 114.059C104.177 112.991 105.123 111.887 107.004 111.887C108.882 111.887 109.825 112.991 110.739 114.059C111.646 115.12 112.505 116.121 114.246 116.121C115.988 116.121 116.844 115.12 117.754 114.059C118.667 112.991 119.611 111.887 121.492 111.887C123.372 111.887 124.316 112.991 125.226 114.059C126.136 115.12 126.992 116.121 128.734 116.121C130.475 116.121 131.334 115.12 132.241 114.059C133.155 112.991 134.098 111.887 135.979 111.887C137.663 111.888 138.598 112.774 139.429 113.726Z" fill="white"/>
<path d="M125.622 120.464V120.911C125.405 120.681 125.199 120.443 124.996 120.207C124.089 119.145 123.233 118.141 121.492 118.141C119.75 118.141 118.891 119.145 117.984 120.207C117.071 121.271 116.127 122.375 114.246 122.375C112.366 122.375 111.422 121.271 110.509 120.207C109.602 119.145 108.743 118.141 107.004 118.141C105.262 118.141 104.404 119.145 103.496 120.207C102.583 121.271 101.64 122.375 99.759 122.375C97.8784 122.375 96.9347 121.271 96.0214 120.207C95.1113 119.145 94.2555 118.141 92.5137 118.141C90.772 118.141 89.9133 119.145 89.0061 120.207C88.0929 121.271 87.1494 122.375 85.2686 122.375C83.3878 122.375 82.4441 121.271 81.5309 120.207C80.6238 119.145 79.7651 118.141 78.0234 118.141C77.4062 118.129 76.7971 118.284 76.2604 118.589L75.9163 118.441C76.5431 118.035 77.2771 117.825 78.0239 117.839C79.9046 117.839 80.8481 118.943 81.7614 120.01C82.6715 121.072 83.5273 122.073 85.2691 122.073C87.011 122.073 87.8696 121.072 88.7767 120.01C89.6901 118.943 90.6335 117.839 92.5143 117.839C94.3951 117.839 95.3386 118.943 96.2518 120.01C97.159 121.072 98.0177 122.073 99.7596 122.073C101.501 122.073 102.357 121.072 103.267 120.01C104.177 118.943 105.124 117.839 107.005 117.839C108.882 117.839 109.826 118.943 110.739 120.01C111.646 121.072 112.505 122.073 114.247 122.073C115.989 122.073 116.844 121.072 117.755 120.01C118.668 118.943 119.611 117.839 121.492 117.839C123.373 117.839 124.316 118.943 125.227 120.01C125.359 120.164 125.489 120.316 125.622 120.464Z" fill="white"/>
<path d="M125.622 126.415V126.862C125.405 126.632 125.199 126.394 124.996 126.158C124.089 125.096 123.233 124.092 121.492 124.092C119.75 124.092 118.891 125.096 117.984 126.158C117.071 127.222 116.127 128.326 114.246 128.326C112.366 128.326 111.422 127.222 110.509 126.158C109.602 125.096 108.743 124.092 107.004 124.092C105.262 124.092 104.404 125.096 103.496 126.158C102.583 127.222 101.64 128.326 99.759 128.326C97.8784 128.326 96.9347 127.222 96.0214 126.158C95.1113 125.096 94.2555 124.092 92.5138 124.092C90.772 124.092 89.9133 125.096 89.0061 126.158C88.0929 127.222 87.1494 128.326 85.2686 128.326C83.3878 128.326 82.4441 127.222 81.5309 126.158C80.7539 125.25 80.0132 124.383 78.7248 124.156L78.7128 123.844C80.1491 124.077 80.9657 125.033 81.7608 125.961C82.671 127.022 83.5267 128.024 85.2686 128.024C87.0104 128.024 87.8691 127.023 88.7762 125.961C89.6896 124.894 90.6329 123.79 92.5138 123.79C94.3946 123.79 95.3381 124.894 96.2513 125.961C97.1584 127.022 98.0172 128.024 99.759 128.024C101.501 128.024 102.356 127.023 103.267 125.961C104.177 124.894 105.123 123.79 107.004 123.79C108.882 123.79 109.825 124.894 110.739 125.961C111.646 127.022 112.505 128.024 114.246 128.024C115.988 128.024 116.844 127.023 117.754 125.961C118.667 124.894 119.611 123.79 121.492 123.79C123.372 123.79 124.316 124.894 125.226 125.961C125.359 126.115 125.489 126.266 125.622 126.415Z" fill="white"/>
<path d="M78.5434 119.557L55.0262 109.68L57.5464 104.522L78.5434 114.156V119.557Z" fill="white"/>
<path d="M125.622 119.556L149.192 109.58L146.261 104.265L125.7 113.207L125.622 119.556Z" fill="white"/>
<path d="M102.34 81.603C102.201 81.5765 102.061 81.5477 101.928 81.5129C101.143 81.3201 100.405 80.9695 99.7595 80.4824C99.1142 79.9953 98.5748 79.3819 98.1741 78.6796C97.5562 77.6112 97.2788 76.3797 97.3788 75.1494L97.9594 67.8396H108.544L108.64 68.6726L109.368 74.9112C109.839 78.9264 106.311 82.3577 102.34 81.603Z" fill="#F9986A"/>
<path d="M108.64 68.6728V68.6758C108.64 68.6758 104.361 75.2073 98.8252 70.9169C98.8252 70.9169 97.9601 74.2524 98.1748 78.6796C97.5569 77.6112 97.2794 76.3797 97.3795 75.1494L97.9601 67.8396H108.545L108.64 68.6728Z" fill="#090909"/>
<path d="M113.077 55.9591C112.505 61.5743 110.565 70.1373 104.077 71.176C103.531 71.2623 102.972 71.2391 102.434 71.1079C100.159 70.556 94.6705 67.9225 94.0935 55.3553C94.0001 53.4798 94.3992 51.6124 95.2509 49.9388C96.1026 48.2652 97.3774 46.8436 98.9487 45.8152C101.365 44.2395 104.544 43.475 108.171 45.8134C109.847 46.8853 111.193 48.4012 112.059 50.1923C112.925 51.9835 113.277 53.9797 113.077 55.9591Z" fill="#F9986A"/>
<path d="M103.132 63.8667C103.254 63.8648 103.375 63.8445 103.491 63.8064C103.548 63.7884 103.596 63.7484 103.624 63.6951C103.652 63.6418 103.657 63.5796 103.639 63.5222C103.622 63.4648 103.582 63.4169 103.528 63.389C103.475 63.3611 103.413 63.3555 103.355 63.3735C103.057 63.467 102.969 63.3718 102.94 63.3406C102.483 62.8477 103.178 60.3594 103.818 58.75C103.839 58.6943 103.837 58.6325 103.813 58.578C103.789 58.5235 103.745 58.4806 103.69 58.4586C103.634 58.4366 103.572 58.4373 103.518 58.4605C103.463 58.4836 103.419 58.5274 103.396 58.5824C103.121 59.2741 101.791 62.7686 102.608 63.6489C102.674 63.7205 102.756 63.7769 102.846 63.8145C102.937 63.8521 103.034 63.8698 103.132 63.8667Z" fill="#090909"/>
<path d="M108.59 63.2242C109.687 63.1516 110.544 62.5976 110.504 61.9867C110.463 61.3759 109.541 60.9395 108.444 61.0121C107.346 61.0847 106.489 61.6387 106.53 62.2496C106.57 62.8604 107.492 63.2968 108.59 63.2242Z" fill="#FC6D6D"/>
<path d="M110.152 56.6743C109.814 56.5066 109.46 56.3734 109.096 56.2767C108.723 56.1752 108.339 56.1163 107.953 56.1011C107.55 56.0904 107.149 56.1461 106.765 56.2659C106.385 56.3929 106.032 56.5915 105.726 56.8509C105.691 56.8771 105.662 56.9106 105.641 56.9492C105.62 56.9878 105.607 57.0305 105.605 57.0744C105.602 57.1182 105.609 57.1621 105.625 57.203C105.641 57.2439 105.666 57.2808 105.697 57.3112C105.766 57.3763 105.856 57.4147 105.951 57.4194C106.046 57.4241 106.139 57.3948 106.214 57.3368C106.219 57.3331 106.223 57.3294 106.228 57.3256L106.253 57.3027C106.472 57.092 106.729 56.9249 107.01 56.8102C107.312 56.6962 107.63 56.6326 107.953 56.6221C108.292 56.6158 108.631 56.6475 108.964 56.7167C109.297 56.7842 109.624 56.8841 109.939 57.015L109.95 57.0196C110.001 57.0425 110.059 57.0459 110.113 57.0291C110.167 57.0123 110.212 56.9764 110.242 56.9283C110.253 56.9059 110.26 56.8813 110.262 56.8562C110.264 56.831 110.26 56.8057 110.252 56.782C110.243 56.7582 110.23 56.7364 110.213 56.7178C110.196 56.6993 110.175 56.6845 110.152 56.6743Z" fill="#090909"/>
<path d="M108.176 59.2908C108.213 58.8285 107.997 58.4337 107.693 58.4091C107.389 58.3845 107.112 58.7393 107.075 59.2016C107.037 59.6639 107.253 60.0587 107.557 60.0833C107.861 60.1079 108.138 59.7531 108.176 59.2908Z" fill="#090909"/>
<path d="M100.854 62.1788C100.894 61.5681 100.038 61.0138 98.9407 60.9407C97.8435 60.8676 96.9211 61.3034 96.8804 61.9141C96.8397 62.5248 97.6962 63.0792 98.7934 63.1523C99.8906 63.2254 100.813 62.7895 100.854 62.1788Z" fill="#FC6D6D"/>
<path d="M97.2456 56.6743C97.5835 56.5066 97.9375 56.3734 98.3021 56.2767C98.6753 56.1752 99.0587 56.1163 99.4452 56.1011C99.8474 56.0905 100.249 56.1461 100.633 56.2659C101.013 56.393 101.366 56.5915 101.672 56.8509C101.707 56.8771 101.736 56.9107 101.757 56.9493C101.778 56.9879 101.79 57.0306 101.793 57.0744C101.796 57.1182 101.789 57.1621 101.773 57.203C101.757 57.2439 101.732 57.2808 101.7 57.3112C101.631 57.3763 101.541 57.4147 101.447 57.4194C101.352 57.4241 101.259 57.3948 101.183 57.3368C101.179 57.3331 101.174 57.3294 101.17 57.3256L101.145 57.3027C100.926 57.092 100.669 56.9248 100.388 56.8102C100.086 56.6962 99.7674 56.6326 99.4448 56.622C99.1055 56.6158 98.7666 56.6475 98.4344 56.7167C98.1004 56.7842 97.7738 56.8841 97.4592 57.015L97.4481 57.0196C97.3967 57.0425 97.3387 57.0459 97.2849 57.0291C97.2312 57.0123 97.1854 56.9764 97.1562 56.9283C97.1446 56.9059 97.1378 56.8813 97.1361 56.8562C97.1343 56.831 97.1377 56.8058 97.1461 56.782C97.1545 56.7582 97.1676 56.7364 97.1847 56.7179C97.2018 56.6993 97.2225 56.6845 97.2456 56.6743Z" fill="#090909"/>
<path d="M99.8393 60.0847C100.143 60.0601 100.359 59.6653 100.322 59.203C100.284 58.7407 100.008 58.3859 99.7036 58.4105C99.3997 58.4351 99.1836 58.8299 99.2211 59.2922C99.2586 59.7545 99.5353 60.1093 99.8393 60.0847Z" fill="#090909"/>
<path d="M94.6335 56.1128C94.254 56.1128 93.8795 56.1981 93.5374 56.3623C93.1954 56.5265 92.8946 56.7654 92.6573 57.0615C92.42 57.3576 92.2523 57.7031 92.1665 58.0727C92.0807 58.4423 92.079 58.8265 92.1616 59.1968L92.6112 61.2152C92.7365 61.7774 93.0498 62.2801 93.4993 62.6404C93.9488 63.0006 94.5076 63.1968 95.0837 63.1967H95.7315C95.7315 63.1967 96.8484 58.2398 94.6335 56.1128Z" fill="#F9986A"/>
<path d="M112.718 56.1128C113.097 56.1127 113.472 56.1979 113.814 56.3621C114.156 56.5263 114.457 56.7652 114.694 57.0613C114.931 57.3574 115.099 57.703 115.185 58.0726C115.271 58.4422 115.273 58.8264 115.19 59.1968L114.741 61.2152C114.615 61.7774 114.302 62.2801 113.852 62.6403C113.403 63.0005 112.844 63.1968 112.268 63.1967H111.62C111.62 63.1967 110.503 58.2398 112.718 56.1128Z" fill="#F9986A"/>
<path d="M103.41 67.3136C105.156 67.3136 106.534 66.0746 106.604 66.0103L106.298 65.6757C106.279 65.693 104.369 67.4053 102.349 66.6746L102.195 67.1011C102.585 67.2423 102.996 67.3142 103.41 67.3136Z" fill="#090909"/>
<path d="M94.1388 56.1613L94.8767 60.2632C94.8767 60.2632 96.2297 57.044 96.2297 53.4048C101.832 54.7138 106.359 54.489 109.3 54.0892C112.407 53.6661 114.355 53.3735 115.858 51.8039C119.349 48.158 117.997 40.1739 115.002 39.0004C113.003 38.2169 111.413 40.9176 105.724 43.1599C102.94 44.2493 100.01 44.9189 97.03 45.147C96.4653 45.1665 95.9142 45.3264 95.4268 45.6123C93.1972 46.9576 92.708 51.1978 94.1388 56.1613Z" fill="#090909"/>
<path d="M113.481 53.059L112.406 60.2634C112.406 60.2634 111.02 56.8109 111.113 53.3583C111.205 49.9057 113.481 53.059 113.481 53.059Z" fill="#090909"/>
<path d="M93.8703 61.6213L94.2426 61.3623C93.157 59.8021 93.1411 58.9852 93.3191 58.5741C93.5279 58.092 94.0655 58.0079 94.0882 58.0046L94.0258 57.5551C93.993 57.5594 93.2193 57.6726 92.9056 58.3873C92.5758 59.1396 92.9001 60.2275 93.8703 61.6213Z" fill="#090909"/>
<path d="M113.481 61.6215C114.451 60.2277 114.776 59.1398 114.446 58.3878C114.132 57.6738 113.359 57.5599 113.326 57.5556L113.264 58.0051C113.286 58.0084 113.824 58.0925 114.033 58.5746C114.21 58.9856 114.195 59.803 113.109 61.3628L113.481 61.6215Z" fill="#090909"/>
<path d="M146.151 110.884L150.819 125.64C153.261 133.356 147.162 141.12 138.659 141.12H97.198L98.7175 132.027C99.1516 129.429 101.87 127.763 104.548 128.453L113.332 130.714L125.357 128.247L125.7 119.559L146.151 110.884Z" fill="#F9986A"/>
<path d="M139.52 124.368L125.302 128.035L125.412 128.462L139.63 124.796L139.52 124.368Z" fill="#090909"/>
<path d="M125.7 119.559L146.698 112.612L146.151 110.884L125.7 119.559Z" fill="#090909"/>
<path d="M58.0932 110.884L53.4244 125.64C50.983 133.356 57.0822 141.12 65.585 141.12H107.046L105.527 132.027C105.092 129.429 102.374 127.763 99.6957 128.453L90.9118 130.714L78.8872 128.247L78.5434 119.559L58.0932 110.884Z" fill="#F9986A"/>
<path d="M64.7235 124.369L64.6134 124.796L78.8319 128.46L78.9421 128.033L64.7235 124.369Z" fill="#090909"/>
<path d="M78.5441 119.559L57.5464 112.612L58.093 110.884L78.5441 119.559Z" fill="#090909"/>
<path d="M78.7649 93.4609H78.3233V119.559H78.7649V93.4609Z" fill="#090909"/>
<path d="M125.921 93.4609H125.479V119.559H125.921V93.4609Z" fill="#090909"/>
<path d="M107.267 141.12H106.825C106.825 133.773 105.226 130.777 103.885 129.557C102.874 128.638 101.995 128.709 101.986 128.711L101.944 128.271C101.989 128.267 103.029 128.182 104.182 129.231C105.589 130.51 107.267 133.612 107.267 141.12Z" fill="#090909"/>
<path d="M99.4643 63.1339C97.5265 63.1339 95.9501 61.39 95.9501 59.2466C95.9501 57.1033 97.5264 55.3594 99.4643 55.3594C101.402 55.3594 102.978 57.1033 102.978 59.2466C102.978 61.39 101.402 63.1339 99.4643 63.1339ZM99.4643 56.0546C97.9101 56.0546 96.6456 57.4864 96.6456 59.2465C96.6456 61.0066 97.9101 62.4383 99.4643 62.4383C101.019 62.4383 102.283 61.0065 102.283 59.2465C102.283 57.4866 101.018 56.055 99.4643 56.055V56.0546Z" fill="#015566"/>
<path d="M107.934 63.1339C105.996 63.1339 104.419 61.39 104.419 59.2466C104.419 57.1033 105.996 55.3594 107.934 55.3594C109.871 55.3594 111.448 57.1033 111.448 59.2466C111.448 61.39 109.871 63.1339 107.934 63.1339ZM107.934 56.0546C106.379 56.0546 105.115 57.4864 105.115 59.2465C105.115 61.0066 106.379 62.4383 107.934 62.4383C109.488 62.4383 110.752 61.0065 110.752 59.2465C110.752 57.4866 109.488 56.055 107.934 56.055V56.0546Z" fill="#015566"/>
<path d="M104.665 59.2844C103.545 58.8955 102.807 59.2508 102.776 59.266L102.459 58.6471C102.5 58.6258 103.475 58.135 104.892 58.6274L104.665 59.2844Z" fill="#015566"/>
<path d="M112.859 55.6882L110.597 57.5089L111.033 58.0508L113.295 56.2301L112.859 55.6882Z" fill="#015566"/>
<path d="M94.3281 55.8163L93.9442 56.3965L96.3888 58.0145L96.7728 57.4344L94.3281 55.8163Z" fill="#015566"/>
<path d="M97.7855 70.029L94.5952 73.0167L100.358 84.4008L102.999 81.7077L97.7855 70.029Z" fill="white"/>
<path d="M108.798 70.029L102.999 81.7077L105.899 84.4008L112.026 72.9103L108.798 70.029Z" fill="white"/>
<path d="M102.771 81.7064L102.356 128.266L102.819 128.27L103.235 81.7106L102.771 81.7064Z" fill="#090909"/>
<path d="M78.5836 63.9202H25.8251C23.3631 63.9202 21.3603 62.2659 21.3603 60.2325V4.67439C21.3603 2.64101 23.3631 0.986694 25.8251 0.986694H78.5836C81.0457 0.986694 83.0485 2.64101 83.0485 4.67439V60.2325C83.0485 62.2659 81.0463 63.9202 78.5836 63.9202ZM25.8251 1.86753C23.8487 1.86753 22.2408 3.12678 22.2408 4.67452V60.2326C22.2408 61.7804 23.8487 63.0396 25.8251 63.0396H78.5836C80.56 63.0396 82.1679 61.7804 82.1679 60.2326V4.67452C82.1679 3.12678 80.56 1.86753 78.5836 1.86753H25.8251Z" fill="#6445F1"/>
<path d="M75.6531 11.6295V67.1876C75.6531 68.9806 73.8494 70.4349 71.6286 70.4349H18.8701C16.6468 70.4349 14.8455 68.9805 14.8455 67.1876V11.6295C14.8455 9.83653 16.6468 8.38226 18.8701 8.38226H71.6286C73.8494 8.38226 75.6531 9.83666 75.6531 11.6295Z" fill="#090909"/>
<path d="M75.6531 11.6414V17.9945H14.846V11.6392C14.846 10.7755 15.1891 9.94719 15.7998 9.33642C16.4105 8.72565 17.2387 8.38244 18.1024 8.38226H72.394C73.2584 8.38226 74.0873 8.72564 74.6986 9.33685C75.3098 9.94807 75.6531 10.7771 75.6531 11.6414Z" fill="#6445F1"/>
<path d="M19.609 14.1984C20.2538 14.1984 20.7765 13.6757 20.7765 13.031C20.7765 12.3862 20.2538 11.8635 19.609 11.8635C18.9642 11.8635 18.4415 12.3862 18.4415 13.031C18.4415 13.6757 18.9642 14.1984 19.609 14.1984Z" fill="#FF4655"/>
<path d="M22.8879 14.1984C23.5327 14.1984 24.0554 13.6757 24.0554 13.031C24.0554 12.3862 23.5327 11.8635 22.8879 11.8635C22.2431 11.8635 21.7204 12.3862 21.7204 13.031C21.7204 13.6757 22.2431 14.1984 22.8879 14.1984Z" fill="#6595F7"/>
<path d="M26.1667 14.1984C26.8114 14.1984 27.3341 13.6757 27.3341 13.031C27.3341 12.3862 26.8114 11.8635 26.1667 11.8635C25.5219 11.8635 24.9992 12.3862 24.9992 13.031C24.9992 13.6757 25.5219 14.1984 26.1667 14.1984Z" fill="#090909"/>
<path d="M34.9479 29.9258H26.3631V31.3377H34.9479V29.9258Z" fill="#FF4655"/>
<path d="M42.0566 29.9258H36.7356V31.3377H42.0566V29.9258Z" fill="#6445F1"/>
<path d="M49.4103 29.9258H44.0894V31.3377H49.4103V29.9258Z" fill="white"/>
<path d="M57.5226 29.9258H51.2024V31.3377H57.5226V29.9258Z" fill="#6445F1"/>
<path d="M62.7562 29.9258H58.8388V31.3377H62.7562V29.9258Z" fill="white"/>
<path d="M57.5226 51.8861H51.2024V53.298H57.5226V51.8861Z" fill="#015566"/>
<path d="M62.7562 51.8861H58.8388V53.298H62.7562V51.8861Z" fill="#FF4655"/>
<path d="M49.1291 35.4156H42.809V36.8275H49.1291V35.4156Z" fill="#6445F1"/>
<path d="M54.3626 35.4156H50.4452V36.8275H54.3626V35.4156Z" fill="white"/>
<path d="M68.17 29.9258H64.2526V31.3377H68.17V29.9258Z" fill="#FF4655"/>
<path d="M71.6475 24.4095H26.3631V25.8739H71.6475V24.4095Z" fill="#FF4655"/>
<path d="M52.9695 27.2167H26.3631V28.6811H52.9695V27.2167Z" fill="#015566"/>
<path d="M34.9479 40.9059H26.3631V42.3179H34.9479V40.9059Z" fill="#015566"/>
<path d="M42.0566 40.9059H36.7356V42.3179H42.0566V40.9059Z" fill="white"/>
<path d="M49.4103 40.9059H44.0894V42.3179H49.4103V40.9059Z" fill="#6445F1"/>
<path d="M47.3776 49.177H42.0566V50.5889H47.3776V49.177Z" fill="#FF4655"/>
<path d="M54.7313 49.177H49.4103V50.5889H54.7313V49.177Z" fill="white"/>
<path d="M41.1447 35.3896H26.3631V36.8541H41.1447V35.3896Z" fill="#FF4655"/>
<path d="M61.5627 38.1968H26.3631V39.6613H61.5627V38.1968Z" fill="#015566"/>
<path d="M34.9479 51.8861H26.3631V53.298H34.9479V51.8861Z" fill="#015566"/>
<path d="M42.0566 51.8861H36.7356V53.298H42.0566V51.8861Z" fill="white"/>
<path d="M49.4103 51.8861H44.0894V53.298H49.4103V51.8861Z" fill="white"/>
<path d="M62.2954 46.3698H26.3631V47.8343H62.2954V46.3698Z" fill="#6445F1"/>
<path d="M40.6976 49.177H26.3631V50.6414H40.6976V49.177Z" fill="#015566"/>
<path d="M34.9479 62.8662H26.3631V64.2782H34.9479V62.8662Z" fill="#015566"/>
<path d="M24.3809 24.4354H19.0599V25.8474H24.3809V24.4354Z" fill="#FF4655"/>
<path d="M24.3809 35.4156H19.0599V36.8275H24.3809V35.4156Z" fill="#FF4655"/>
<path d="M24.3809 46.3958H19.0599V47.8077H24.3809V46.3958Z" fill="#6445F1"/>
<path d="M24.3809 57.3759H19.0599V58.7879H24.3809V57.3759Z" fill="white"/>
<path d="M49.4103 62.8662H44.0894V64.2782H49.4103V62.8662Z" fill="#FF4655"/>
<path d="M42.0566 62.8662H36.7356V64.2782H42.0566V62.8662Z" fill="#6445F1"/>
<path d="M71.6475 57.35H26.3631V58.8144H71.6475V57.35Z" fill="white"/>
<path d="M52.9695 60.1571H26.3631V61.6216H52.9695V60.1571Z" fill="#6445F1"/>
<path d="M27.3828 73.6916H8.50561C6.28442 73.689 4.15494 72.8055 2.58433 71.2349C1.01373 69.6642 0.130255 67.5347 0.127736 65.3136C0.127024 63.1069 0.981865 60.9859 2.51255 59.3964C4.00887 57.8325 6.01224 56.9355 8.00887 56.9355H14.7975C14.9142 56.9355 15.0262 56.9819 15.1088 57.0645C15.1914 57.1471 15.2378 57.2591 15.2378 57.3758C15.2378 57.4926 15.1914 57.6046 15.1088 57.6872C15.0262 57.7697 14.9142 57.8161 14.7975 57.8161H8.009C4.27978 57.8161 1.00844 61.3199 1.00844 65.3136C1.01068 67.3012 1.80121 69.2068 3.20663 70.6123C4.61204 72.0179 6.51757 72.8086 8.50521 72.811H27.3828C27.4996 72.811 27.6116 72.8574 27.6941 72.9399C27.7767 73.0225 27.8231 73.1345 27.8231 73.2513C27.8231 73.368 27.7767 73.48 27.6941 73.5626C27.6116 73.6452 27.4996 73.6916 27.3828 73.6916Z" fill="#6445F1"/>
<path d="M35.301 74.266C35.8612 74.266 36.3153 73.8119 36.3153 73.2517C36.3153 72.6914 35.8612 72.2373 35.301 72.2373C34.7407 72.2373 34.2866 72.6914 34.2866 73.2517C34.2866 73.8119 34.7407 74.266 35.301 74.266Z" fill="#6445F1"/>
<path d="M32.3994 74.266C32.9596 74.266 33.4138 73.8119 33.4138 73.2517C33.4138 72.6914 32.9596 72.2373 32.3994 72.2373C31.8392 72.2373 31.385 72.6914 31.385 73.2517C31.385 73.8119 31.8392 74.266 32.3994 74.266Z" fill="#6445F1"/>
<path d="M29.498 74.266C30.0582 74.266 30.5124 73.8119 30.5124 73.2517C30.5124 72.6914 30.0582 72.2373 29.498 72.2373C28.9378 72.2373 28.4836 72.6914 28.4836 73.2517C28.4836 73.8119 28.9378 74.266 29.498 74.266Z" fill="#6445F1"/>
<path d="M196.062 78.8776H136.32C135.688 78.8769 135.082 78.6254 134.635 78.1784C134.188 77.7315 133.937 77.1254 133.936 76.4933V33.174C133.937 32.5418 134.188 31.9358 134.635 31.4888C135.082 31.0418 135.688 30.7904 136.32 30.7897H196.062C196.694 30.7904 197.3 31.0418 197.747 31.4888C198.194 31.9358 198.445 32.5418 198.446 33.174V76.4933C198.445 77.1254 198.194 77.7315 197.747 78.1784C197.3 78.6254 196.694 78.8769 196.062 78.8776ZM136.32 31.6702C135.922 31.6707 135.54 31.8293 135.258 32.1112C134.976 32.3931 134.817 32.7753 134.817 33.174V76.4933C134.817 76.8919 134.976 77.2742 135.258 77.5561C135.54 77.838 135.922 77.9965 136.32 77.997H196.062C196.46 77.9965 196.843 77.838 197.125 77.5561C197.406 77.2742 197.565 76.8919 197.565 76.4933V33.174C197.565 32.7753 197.406 32.3931 197.125 32.1112C196.843 31.8293 196.46 31.6707 196.062 31.6702H136.32Z" fill="#6445F1"/>
<path d="M202.409 37.5775V80.8968C202.409 81.4122 202.204 81.9064 201.84 82.2709C201.475 82.6353 200.981 82.8402 200.466 82.8404H140.724C140.208 82.8401 139.714 82.6353 139.35 82.2709C138.985 81.9064 138.78 81.4122 138.78 80.8968V37.5775C138.78 37.0621 138.985 36.5679 139.35 36.2035C139.714 35.839 140.208 35.6342 140.724 35.6339H200.465C200.981 35.6339 201.475 35.8387 201.84 36.2032C202.204 36.5676 202.409 37.062 202.409 37.5775Z" fill="#6595F7"/>
<path d="M158.045 45.2752H145.356C143.22 45.2752 141.488 47.0072 141.488 49.1437V57.3451C141.488 59.4817 143.22 61.2137 145.356 61.2137H158.045C160.182 61.2137 161.914 59.4817 161.914 57.3451V49.1437C161.914 47.0072 160.182 45.2752 158.045 45.2752Z" fill="white"/>
<path d="M202.409 37.5775V42.9936H138.78V37.5775C138.78 37.0621 138.985 36.5679 139.349 36.2035C139.713 35.839 140.208 35.6342 140.723 35.6339H200.464C200.98 35.6338 201.475 35.8385 201.839 36.203C202.204 36.5675 202.409 37.0619 202.409 37.5775Z" fill="#015566"/>
<path d="M142.585 40.3397C143.19 40.3397 143.682 39.8486 143.682 39.2428C143.682 38.637 143.19 38.1459 142.585 38.1459C141.979 38.1459 141.488 38.637 141.488 39.2428C141.488 39.8486 141.979 40.3397 142.585 40.3397Z" fill="white"/>
<path d="M146.406 40.3397C147.012 40.3397 147.503 39.8486 147.503 39.2428C147.503 38.637 147.012 38.1459 146.406 38.1459C145.8 38.1459 145.309 38.637 145.309 39.2428C145.309 39.8486 145.8 40.3397 146.406 40.3397Z" fill="white"/>
<path d="M150.227 40.3397C150.833 40.3397 151.324 39.8486 151.324 39.2428C151.324 38.637 150.833 38.1459 150.227 38.1459C149.622 38.1459 149.131 38.637 149.131 39.2428C149.131 39.8486 149.622 40.3397 150.227 40.3397Z" fill="white"/>
<path d="M176.513 45.2752H165.532V47.5397H176.513V45.2752Z" fill="white"/>
<path d="M185.606 45.2752H178.8V47.5397H185.606V45.2752Z" fill="#FF4655"/>
<path d="M195.012 45.2752H188.206V47.5397H195.012V45.2752Z" fill="#015566"/>
<path d="M176.513 56.9726H165.532V59.2371H176.513V56.9726Z" fill="#015566"/>
<path d="M185.606 56.9726H178.8V59.2371H185.606V56.9726Z" fill="#015566"/>
<path d="M195.012 56.9726H188.206V59.2371H195.012V56.9726Z" fill="#FF4655"/>
<path d="M152.468 70.0879H141.488V72.3524H152.468V70.0879Z" fill="#015566"/>
<path d="M161.561 70.0879H154.755V72.3524H161.561V70.0879Z" fill="white"/>
<path d="M170.967 70.0879H164.161V72.3524H170.967V70.0879Z" fill="white"/>
<path d="M199.41 75.8344H141.488V77.2989H199.41V75.8344Z" fill="#015566"/>
<path d="M175.52 78.6416H141.488V80.106H175.52V78.6416Z" fill="white"/>
<path d="M199.41 62.7827H141.488V64.2471H199.41V62.7827Z" fill="white"/>
<path d="M175.52 65.5898H141.488V67.0543H175.52V65.5898Z" fill="#015566"/>
<path d="M199.564 50.0318H165.532V51.4963H199.564V50.0318Z" fill="#015566"/>
<path d="M185.527 52.839H165.532V54.3035H185.527V52.839Z" fill="white"/>
<path d="M209.198 81.2343H190.321C190.205 81.2323 190.095 81.185 190.014 81.1027C189.934 81.0203 189.888 80.9094 189.888 80.794C189.888 80.6785 189.934 80.5676 190.014 80.4852C190.095 80.4029 190.205 80.3556 190.321 80.3536H209.198C211.186 80.3536 213.093 79.5637 214.499 78.1577C215.905 76.7516 216.695 74.8447 216.695 72.8562C216.695 70.8678 215.905 68.9608 214.499 67.5548C213.093 66.1488 211.186 65.3589 209.198 65.3589H202.409C202.293 65.3589 202.181 65.3125 202.098 65.2299C202.015 65.1474 201.969 65.0354 201.969 64.9186C201.969 64.8018 202.015 64.6898 202.098 64.6073C202.181 64.5247 202.293 64.4783 202.409 64.4783H209.198C211.42 64.4783 213.551 65.361 215.122 66.9322C216.693 68.5033 217.576 70.6343 217.576 72.8563C217.576 75.0783 216.693 77.2093 215.122 78.7805C213.551 80.3516 211.42 81.2343 209.198 81.2343Z" fill="#6445F1"/>
<path d="M182.403 81.8083C182.963 81.8083 183.417 81.3542 183.417 80.7939C183.417 80.2337 182.963 79.7796 182.403 79.7796C181.843 79.7796 181.388 80.2337 181.388 80.7939C181.388 81.3542 181.843 81.8083 182.403 81.8083Z" fill="#6445F1"/>
<path d="M185.304 81.8083C185.864 81.8083 186.319 81.3542 186.319 80.7939C186.319 80.2337 185.864 79.7796 185.304 79.7796C184.744 79.7796 184.29 80.2337 184.29 80.7939C184.29 81.3542 184.744 81.8083 185.304 81.8083Z" fill="#6445F1"/>
<path d="M188.206 81.8083C188.766 81.8083 189.22 81.3542 189.22 80.7939C189.22 80.2337 188.766 79.7796 188.206 79.7796C187.645 79.7796 187.191 80.2337 187.191 80.7939C187.191 81.3542 187.645 81.8083 188.206 81.8083Z" fill="#6445F1"/>
<path d="M137.312 140.641H176.548C178.003 140.641 179.398 140.063 180.427 139.034C181.456 138.005 182.034 136.609 182.034 135.154C182.034 133.699 181.456 132.304 180.427 131.275C179.398 130.246 178.003 129.668 176.548 129.668H137.312V140.641Z" fill="#FF4655"/>
<path d="M176.415 139.206H137.312V131.103H176.415C177.485 131.103 178.512 131.528 179.269 132.285C180.025 133.041 180.451 134.068 180.451 135.138V135.17C180.451 135.7 180.346 136.225 180.143 136.715C179.941 137.204 179.643 137.649 179.269 138.024C178.894 138.399 178.449 138.696 177.959 138.899C177.47 139.102 176.945 139.206 176.415 139.206Z" fill="white"/>
<path d="M179.781 132.671H137.312V133.207H179.781V132.671Z" fill="#090909"/>
<path d="M179.461 137.549H137.312V138.085H179.461V137.549Z" fill="#090909"/>
<path d="M180.451 134.886H137.312V135.422H180.451V134.886Z" fill="#090909"/>
<path d="M172.83 129.668H142.238V121.113H172.83C173.965 121.113 175.053 121.563 175.855 122.366C176.657 123.168 177.108 124.256 177.108 125.39C177.108 126.525 176.657 127.613 175.855 128.415C175.053 129.217 173.965 129.668 172.83 129.668Z" fill="#6595F7"/>
<path d="M172.727 128.549H142.238V122.231H172.727C173.561 122.231 174.362 122.563 174.952 123.153C175.542 123.743 175.874 124.543 175.874 125.378V125.403C175.873 126.238 175.542 127.038 174.952 127.628C174.362 128.218 173.561 128.549 172.727 128.549Z" fill="white"/>
<path d="M175.351 123.395H142.238V123.931H175.351V123.395Z" fill="#090909"/>
<path d="M175.101 127.198H142.238V127.734H175.101V127.198Z" fill="#090909"/>
<path d="M175.873 125.122H142.238V125.658H175.873V125.122Z" fill="#090909"/>
<path d="M122.258 141.12H81.887C81.3318 141.12 80.7963 140.914 80.3837 140.543C79.971 140.172 79.7106 139.661 79.6525 139.109L76.7241 111.265C76.6912 110.952 76.7244 110.635 76.8217 110.336C76.919 110.036 77.0782 109.761 77.2889 109.527C77.4996 109.293 77.7571 109.106 78.0447 108.978C78.3324 108.85 78.6437 108.783 78.9586 108.783H125.186C125.501 108.783 125.812 108.85 126.1 108.978C126.388 109.106 126.645 109.293 126.856 109.527C127.067 109.761 127.226 110.036 127.323 110.336C127.42 110.635 127.454 110.952 127.421 111.265L124.492 139.109C124.434 139.661 124.174 140.172 123.761 140.543C123.349 140.914 122.813 141.12 122.258 141.12Z" fill="#6595F7"/>
<path d="M102.122 130.575C105.099 130.575 107.513 128.161 107.513 125.184C107.513 122.207 105.099 119.793 102.122 119.793C99.1448 119.793 96.7312 122.207 96.7312 125.184C96.7312 128.161 99.1448 130.575 102.122 130.575Z" fill="white"/>
<path d="M41.8792 87.9512H40.4184V108.202H41.8792V87.9512Z" fill="#080808"/>
<path d="M38.8136 81.1341C38.8136 81.1341 41.1073 74.9908 43.4901 81.1341C43.4901 81.1341 41.0588 85.5527 38.8136 81.1341Z" fill="#FF4655"/>
<path d="M37.9168 80.6171C37.7384 80.5185 37.5376 80.4678 37.3338 80.4699C37.13 80.4719 36.9303 80.5267 36.7539 80.6288C36.5776 80.7309 36.4306 80.8769 36.3274 81.0526C36.2242 81.2283 36.1682 81.4277 36.1649 81.6314C36.1394 83.3883 36.4792 85.1313 37.1626 86.75C37.6727 87.9442 39.0772 91.2322 41.1416 91.2382C43.2059 91.2441 44.6309 87.9564 45.129 86.8061C45.8294 85.1692 46.1736 83.4021 46.1387 81.6221C46.1372 81.4225 46.0846 81.2267 45.9859 81.0532C45.8873 80.8797 45.7459 80.7344 45.5752 80.631C45.4045 80.5276 45.2101 80.4697 45.0107 80.4626C44.8113 80.4556 44.6133 80.4997 44.4358 80.5908C43.4358 81.133 42.3171 81.4192 41.1796 81.4238C40.0421 81.4284 38.9211 81.1513 37.9168 80.6172V80.6171Z" fill="#FF4655"/>
<path d="M49.0828 134.053L46.8406 140.393C46.8236 140.46 46.7854 140.521 46.7315 140.566C46.6777 140.611 46.6109 140.637 46.5411 140.641H35.753C35.6796 140.639 35.6092 140.611 35.5557 140.561C35.5078 140.514 35.4726 140.456 35.4535 140.393L33.2112 134.038C31.1222 128.122 31.1222 121.351 33.2038 115.427L33.2112 115.413C34.7262 111.028 35.1474 106.339 34.4382 101.755V101.747C34.4019 101.484 34.5552 101.251 34.7595 101.251H47.5199C47.7243 101.251 47.8851 101.484 47.8412 101.747C47.79 102.091 47.7464 102.434 47.7025 102.777C47.5771 103.878 47.5137 104.985 47.5126 106.093C47.5077 109.268 48.0386 112.422 49.0828 115.421C51.1718 121.456 51.1718 128.018 49.0828 134.053Z" fill="#6445F1"/>
<path d="M41.1519 131.264C43.385 131.264 45.1952 127.982 45.1952 123.933C45.1952 119.885 43.385 116.603 41.1519 116.603C38.9188 116.603 37.1085 119.885 37.1085 123.933C37.1085 127.982 38.9188 131.264 41.1519 131.264Z" fill="white"/>
</svg>
