<svg width="28" height="28" viewBox="0 0 28 28" fill="none" xmlns="http://www.w3.org/2000/svg">
<rect width="27.8558" height="27.8558" rx="13.9279" fill="#FFC095"/>
<mask id="mask0_1_29" style="mask-type:alpha" maskUnits="userSpaceOnUse" x="0" y="0" width="28" height="28">
<rect x="0.144165" y="6.10352e-05" width="27.8558" height="27.8558" rx="13.9279" fill="#F4E7D7"/>
</mask>
<g mask="url(#mask0_1_29)">
<path d="M24.6381 13.2011C24.605 12.8028 24.5718 12.3715 24.5054 11.9733C24.439 11.5419 24.3395 11.1437 24.2068 10.7123C24.074 10.2809 23.9413 9.8827 23.7754 9.48449C23.5763 9.05311 23.3772 8.62173 23.1449 8.22352C22.8794 7.79214 22.6139 7.39393 22.2821 6.99573C21.9171 6.53116 21.5189 6.13296 21.0875 5.73476C20.5897 5.27019 20.0256 4.87198 19.4615 4.50696C17.8355 3.54464 15.9441 2.98053 13.9199 2.98053V4.50696V5.73476V6.99573V8.22352V9.48449V10.7123V11.9733V13.2011V14.462V15.6898V16.9508V18.1786V19.4396V20.6673V21.9283V23.1561V24.6494C15.9109 24.6494 17.7691 24.1184 19.3951 23.1561C19.9924 22.7911 20.5566 22.3929 21.0543 21.9283C21.4857 21.5301 21.8839 21.1319 22.2489 20.6673C22.5476 20.2691 22.8462 19.8709 23.1117 19.4396C23.344 19.0413 23.5763 18.61 23.7754 18.1786C23.9413 17.7804 24.1072 17.3822 24.2068 16.9508C24.3395 16.5526 24.439 16.1212 24.5054 15.6898C24.5718 15.2916 24.6381 14.8934 24.6381 14.462C24.6381 14.2629 24.6713 14.0306 24.6713 13.8315C24.6381 13.5992 24.6381 13.4002 24.6381 13.2011Z" fill="#142DE0"/>
<path d="M13.9196 3.04626C11.8954 3.04626 10.004 3.6104 8.37799 4.57272H13.9196V3.04626Z" fill="#142DE0"/>
<path d="M13.9195 18.1108H4.06403C4.26313 18.5422 4.46223 18.9735 4.7277 19.3717H13.9195V18.1108Z" fill="#142DE0"/>
<path d="M13.9199 20.6001H5.59082C5.95584 21.0647 6.35404 21.4629 6.78543 21.8611H13.9199V20.6001Z" fill="#142DE0"/>
<path d="M8.44476 23.0565C10.0376 24.0188 11.929 24.5498 13.92 24.5498V23.0565H8.44476Z" fill="#142DE0"/>
<path d="M13.9197 13.2006H3.20146C3.20146 13.3997 3.16827 13.5988 3.16827 13.7979C3.16827 14.0302 3.16828 14.2293 3.20146 14.4284H13.9197V13.2006Z" fill="#142DE0"/>
<path d="M13.9199 15.6557H3.33435C3.40072 16.0871 3.50027 16.4853 3.633 16.9167H13.9199V15.6557Z" fill="#142DE0"/>
<path d="M13.9195 8.25562H4.69451C4.46223 8.65382 4.22994 9.0852 4.06403 9.51659H13.9195V8.25562Z" fill="#142DE0"/>
<path d="M13.9195 5.80054H6.75186C6.32047 6.19874 5.92227 6.59694 5.55725 7.06151H13.9195V5.80054Z" fill="#142DE0"/>
<path d="M13.9199 10.7121H3.633C3.50027 11.1103 3.40072 11.5417 3.33435 11.9731H13.9199V10.7121Z" fill="#142DE0"/>
</g>
</svg>
