<svg width="48" height="42" viewBox="0 0 48 42" fill="none" xmlns="http://www.w3.org/2000/svg">
<rect width="48" height="42" rx="5.57117" fill="#4359F1"/>
<path d="M25.1965 21.9532H34C34 26.5447 30.0567 30.2699 25.1965 30.2699V21.9532Z" fill="white"/>
<path d="M15 21.9532H23.8035V30.2699C18.9433 30.2699 15 26.5447 15 21.9532Z" fill="white"/>
<path d="M23.8035 12.3545H15V20.6712H23.8035V12.3545Z" fill="white"/>
<path d="M29.6006 12.3545H29.5959C27.1661 12.3545 25.1965 14.2152 25.1965 16.5106V16.515C25.1965 18.8104 27.1661 20.6711 29.5959 20.6711H29.6006C32.0303 20.6711 34 18.8104 34 16.515V16.5106C34 14.2152 32.0303 12.3545 29.6006 12.3545Z" fill="white"/>
</svg>
