<svg width="16" height="17" viewBox="0 0 16 17" fill="none" xmlns="http://www.w3.org/2000/svg">
<path d="M8 5.83331L5.33333 8.49998L8.56667 11.7333C8.84282 12.0089 9.06191 12.3362 9.2114 12.6965C9.36089 13.0569 9.43783 13.4432 9.43783 13.8333C9.43783 14.2234 9.36089 14.6097 9.2114 14.9701C9.06191 15.3304 8.84282 15.6577 8.56667 15.9333C8.4157 16.0823 8.21212 16.1659 8 16.1659C7.78788 16.1659 7.5843 16.0823 7.43333 15.9333L0.566665 9.06665C0.417656 8.91568 0.334106 8.7121 0.334106 8.49998C0.334106 8.28786 0.417656 8.08428 0.566665 7.93331L7.43333 1.06665C7.58417 0.917354 7.78777 0.833519 8 0.833313" stroke="#4359F1" stroke-linecap="round" stroke-linejoin="round"/>
<path d="M7.99997 11.1667L10.6666 8.5L7.4333 5.26666C7.15715 4.9911 6.93806 4.66378 6.78857 4.30343C6.63908 3.94308 6.56213 3.55679 6.56213 3.16666C6.56213 2.77654 6.63908 2.39025 6.78857 2.0299C6.93806 1.66955 7.15715 1.34223 7.4333 1.06667C7.58427 0.917656 7.78785 0.834106 7.99997 0.834106C8.21209 0.834106 8.41567 0.917656 8.56664 1.06667L15.4333 7.93333C15.5823 8.0843 15.6659 8.28788 15.6659 8.5C15.6659 8.71212 15.5823 8.9157 15.4333 9.06667L8.56664 15.9333C8.4158 16.0826 8.2122 16.1665 7.99997 16.1667" stroke="#4359F1" stroke-linecap="round" stroke-linejoin="round"/>
</svg>
