<svg width="22" height="22" viewBox="0 0 22 22" fill="none" xmlns="http://www.w3.org/2000/svg">
<path d="M21.3125 11.6875V5.5H15.125" stroke="#131313" stroke-width="1.375" stroke-linecap="round" stroke-linejoin="round"/>
<path d="M21.3125 5.5L14.0351 12.7774C13.9074 12.9052 13.7558 13.0066 13.5889 13.0757C13.422 13.1449 13.2431 13.1805 13.0625 13.1805C12.8819 13.1805 12.703 13.1449 12.5361 13.0757C12.3692 13.0066 12.2176 12.9052 12.0899 12.7774L9.22258 9.91008C9.09489 9.78231 8.94327 9.68095 8.77639 9.61179C8.60951 9.54264 8.43064 9.50704 8.25 9.50704C8.06936 9.50704 7.89049 9.54264 7.72361 9.61179C7.55673 9.68095 7.40511 9.78231 7.27742 9.91008L0.6875 16.5" stroke="#131313" stroke-width="1.375" stroke-linecap="round" stroke-linejoin="round"/>
</svg>
