<svg width="12" height="13" viewBox="0 0 12 13" fill="none" xmlns="http://www.w3.org/2000/svg">
<g clip-path="url(#clip0_1_1033)">
<path d="M10.875 9.5V11.25C10.875 11.4489 10.796 11.6397 10.6553 11.7803C10.5147 11.921 10.3239 12 10.125 12H1.5C1.20163 12 0.915485 11.8814 0.704505 11.6705C0.493527 11.4595 0.375 11.1734 0.375 10.875V2.125C0.375 1.82663 0.493527 1.54049 0.704505 1.32951C0.915485 1.11853 1.20163 1 1.5 1H9.375C9.5739 1 9.7647 1.07902 9.90535 1.21967C10.046 1.36032 10.125 1.55109 10.125 1.75V3.375" stroke="black" stroke-width="0.75" stroke-linecap="round" stroke-linejoin="round"/>
<path d="M10.875 9.5C11.0739 9.5 11.2647 9.421 11.4053 9.28035C11.546 9.1397 11.625 8.9489 11.625 8.75V6.5C11.625 6.3011 11.546 6.1103 11.4053 5.96965C11.2647 5.829 11.0739 5.75 10.875 5.75H8.75C8.2527 5.75 7.7758 5.94755 7.42415 6.29915C7.07255 6.6508 6.875 7.1277 6.875 7.625C6.875 8.1223 7.07255 8.5992 7.42415 8.95085C7.7758 9.30245 8.2527 9.5 8.75 9.5H10.875Z" stroke="black" stroke-width="0.75" stroke-linecap="round" stroke-linejoin="round"/>
<path d="M8.99756 7.81006C8.89401 7.81006 8.81006 7.72616 8.81006 7.62256C8.81006 7.51901 8.89401 7.43506 8.99756 7.43506" stroke="black" stroke-width="0.75"/>
<path d="M8.99756 7.81006C9.10111 7.81006 9.18506 7.72616 9.18506 7.62256C9.18506 7.51901 9.10111 7.43506 8.99756 7.43506" stroke="black" stroke-width="0.75"/>
<path d="M10.875 5.75004V4.12505C10.875 3.92613 10.796 3.73537 10.6553 3.59472C10.5147 3.45406 10.3239 3.37505 10.125 3.37505H2.815C2.65067 3.38375 2.48719 3.34619 2.34312 3.26665C2.19906 3.1871 2.08018 3.06876 2 2.92505" stroke="black" stroke-width="0.75" stroke-linecap="round" stroke-linejoin="round"/>
</g>
<defs>
<clipPath id="clip0_1_1033">
<rect width="12" height="12" fill="white" transform="translate(0 0.5)"/>
</clipPath>
</defs>
</svg>
